<svg id="Layer_1" data-name="Layer 1" xmlns="http://www.w3.org/2000/svg" xmlns:xlink="http://www.w3.org/1999/xlink" viewBox="0 0 400 400"><defs><style>.cls-1,.cls-8{fill:none;}.cls-2{fill:#343841;}.cls-3{fill:url(#linear-gradient);}.cls-4{fill:url(#linear-gradient-2);}.cls-5{fill:url(#radial-gradient);}.cls-6{fill:url(#radial-gradient-2);}.cls-7{fill:url(#linear-gradient-3);}.cls-8{stroke-miterlimit:10;stroke-width:0.48px;stroke:url(#linear-gradient-4);}.cls-9{opacity:0.25;fill:url(#radial-gradient-3);}.cls-10{clip-path:url(#clip-path);}.cls-11{fill:url(#linear-gradient-5);}</style><linearGradient id="linear-gradient" x1="194.05" y1="197.15" x2="201.58" y2="197.15" gradientUnits="userSpaceOnUse"><stop offset="0" stop-color="#593021"/><stop offset="0" stop-color="#7a4a3d"/><stop offset="0" stop-color="#231f20"/><stop offset="0.67" stop-color="#6d6e71"/><stop offset="1" stop-color="#6d6e71"/></linearGradient><linearGradient id="linear-gradient-2" x1="169.46" y1="135.39" x2="227.36" y2="135.39" gradientUnits="userSpaceOnUse"><stop offset="0" stop-color="#593021"/><stop offset="0.3" stop-color="#7a4a3d"/><stop offset="0.49" stop-color="#562e24"/><stop offset="0.75" stop-color="#35190f"/><stop offset="0.89" stop-color="#764b3d"/><stop offset="1" stop-color="#613121"/></linearGradient><radialGradient id="radial-gradient" cx="16.28" cy="115.85" r="27.77" gradientTransform="translate(175.85 52.45) scale(1.39 0.55)" gradientUnits="userSpaceOnUse"><stop offset="0" stop-color="#593021"/><stop offset="0" stop-color="#7a4a3d"/><stop offset="0" stop-color="#562e24"/><stop offset="0" stop-color="#68382a"/><stop offset="1" stop-color="#35190f"/></radialGradient><radialGradient id="radial-gradient-2" cx="222.47" cy="380.74" r="22.9" gradientUnits="userSpaceOnUse"><stop offset="0" stop-color="#593021"/><stop offset="0" stop-color="#7a4a3d"/><stop offset="0" stop-color="#231f20"/><stop offset="0.32" stop-color="#414042"/><stop offset="0.76" stop-color="#666668"/></radialGradient><linearGradient id="linear-gradient-3" x1="191.71" y1="370.63" x2="253.23" y2="370.63" xlink:href="#linear-gradient"/><linearGradient id="linear-gradient-4" x1="191.47" y1="370.63" x2="253.47" y2="370.63" gradientUnits="userSpaceOnUse"><stop offset="0" stop-color="#593021"/><stop offset="0" stop-color="#7a4a3d"/><stop offset="0" stop-color="#939598"/><stop offset="0.67" stop-color="#58595b"/><stop offset="1" stop-color="#6d6e71"/></linearGradient><radialGradient id="radial-gradient-3" cx="-168.25" cy="-370.62" r="10.15" gradientTransform="translate(446.77 652.52) scale(1.39 0.76)" gradientUnits="userSpaceOnUse"><stop offset="0" stop-color="#fff" stop-opacity="0.4"/><stop offset="0" stop-color="#fff" stop-opacity="0.6"/><stop offset="0.71" stop-color="#fff" stop-opacity="0"/></radialGradient><clipPath id="clip-path"><rect class="cls-1" x="184.99" y="6.81" width="25.65" height="109.25"/></clipPath><linearGradient id="linear-gradient-5" x1="194.14" y1="197.15" x2="201.68" y2="197.15" xlink:href="#linear-gradient"/></defs><title>Artboard 5 copy 6</title><rect class="cls-2" x="0.09" y="-1.98" width="404.72" height="403.2"/><rect class="cls-3" x="194.05" y="16.47" width="7.54" height="361.36" rx="3.36"/><path class="cls-4" d="M227.36,115.37h-57.9l2.85,35.87a.68.68,0,0,0-.11.32c0,2.13,11.71,3.86,26.14,3.86s26.14-1.73,26.14-3.86h0Z"/><ellipse class="cls-5" cx="198.41" cy="115.85" rx="28.95" ry="4.48"/><path class="cls-6" d="M191.76,370.63c0,.23,0,.45,0,.68,0,10.79,13.77,19.54,30.76,19.54s30.76-8.75,30.76-19.54c0-.23,0-.45-.06-.68Z"/><ellipse class="cls-7" cx="222.47" cy="370.63" rx="30.76" ry="11.35"/><ellipse class="cls-8" cx="222.47" cy="370.63" rx="30.76" ry="11.35"/><ellipse class="cls-9" cx="210.59" cy="373.63" rx="14.93" ry="13.42" transform="translate(-55.68 37.41) rotate(-8.97)"/><g class="cls-10"><rect class="cls-11" x="194.14" y="16.47" width="7.54" height="361.36" rx="3.36"/></g></svg>