<svg id="Layer_1" data-name="Layer 1" xmlns="http://www.w3.org/2000/svg" xmlns:xlink="http://www.w3.org/1999/xlink" viewBox="0 0 400 400"><defs><style>.cls-1{fill:#343841;}.cls-2{fill:url(#linear-gradient);}.cls-3{fill:url(#linear-gradient-2);}.cls-4{fill:url(#linear-gradient-3);}.cls-5{fill:url(#linear-gradient-4);}.cls-6{fill:url(#linear-gradient-5);}.cls-10,.cls-12,.cls-7,.cls-8{stroke:#fff;opacity:0.33;}.cls-10,.cls-12,.cls-14,.cls-20,.cls-22,.cls-7,.cls-8{stroke-miterlimit:10;}.cls-10,.cls-7,.cls-8{stroke-width:1.19px;}.cls-7{fill:url(#radial-gradient);}.cls-8{fill:url(#radial-gradient-2);}.cls-9{fill:url(#linear-gradient-6);}.cls-10{fill:url(#radial-gradient-3);}.cls-11,.cls-12{fill:url(#radial-gradient-4);}.cls-12{stroke-width:0.88px;}.cls-13{fill:url(#radial-gradient-6);}.cls-14,.cls-20,.cls-22{fill:none;}.cls-14{stroke-width:1.35px;opacity:0.4;stroke:url(#linear-gradient-7);}.cls-15,.cls-20,.cls-22{opacity:0.53;}.cls-15{fill:url(#linear-gradient-8);}.cls-16{fill:url(#linear-gradient-9);}.cls-17{fill:url(#linear-gradient-10);}.cls-18{fill:url(#linear-gradient-11);}.cls-19{fill:url(#linear-gradient-12);}.cls-20{stroke:url(#linear-gradient-13);}.cls-21{opacity:0.85;fill:url(#linear-gradient-14);}.cls-22{stroke:url(#linear-gradient-15);}.cls-23{fill:url(#radial-gradient-7);}.cls-24{fill:url(#radial-gradient-8);}.cls-25{fill:url(#radial-gradient-9);}.cls-26,.cls-27{fill:#fff;}.cls-27{font-size:12.58px;font-family:MyriadPro-Regular, Myriad Pro;}</style><linearGradient id="linear-gradient" x1="174.11" y1="110.59" x2="236.77" y2="110.59" gradientUnits="userSpaceOnUse"><stop offset="0" stop-color="#fff" stop-opacity="0.8"/><stop offset="0.5" stop-color="#fff" stop-opacity="0.2"/><stop offset="1" stop-color="#fff" stop-opacity="0.8"/></linearGradient><linearGradient id="linear-gradient-2" x1="174.03" y1="110.59" x2="236.69" y2="110.59" xlink:href="#linear-gradient"/><linearGradient id="linear-gradient-3" x1="184.07" y1="31.36" x2="228" y2="31.36" gradientUnits="userSpaceOnUse"><stop offset="0" stop-color="#fff" stop-opacity="0.5"/><stop offset="0.5" stop-color="#fff" stop-opacity="0.2"/><stop offset="1" stop-color="#fff" stop-opacity="0.4"/></linearGradient><linearGradient id="linear-gradient-4" x1="191.4" y1="58.46" x2="219.4" y2="58.46" xlink:href="#linear-gradient"/><linearGradient id="linear-gradient-5" x1="183.05" y1="69.74" x2="227.75" y2="69.74" xlink:href="#linear-gradient"/><radialGradient id="radial-gradient" cx="205.4" cy="58.46" r="10.71" gradientUnits="userSpaceOnUse"><stop offset="0" stop-color="#fff" stop-opacity="0.4"/><stop offset="0" stop-color="#fff" stop-opacity="0.6"/><stop offset="0.45" stop-color="#fff" stop-opacity="0.3"/><stop offset="0.95" stop-color="#fff" stop-opacity="0"/></radialGradient><radialGradient id="radial-gradient-2" cx="205.4" cy="69.74" r="16.28" xlink:href="#radial-gradient"/><linearGradient id="linear-gradient-6" x1="135.18" y1="80.77" x2="179.87" y2="80.77" gradientTransform="translate(-19.19) scale(1.43 1)" xlink:href="#linear-gradient"/><radialGradient id="radial-gradient-3" cx="157.53" cy="80.77" r="16.28" gradientTransform="translate(-19.19) scale(1.43 1)" xlink:href="#radial-gradient"/><radialGradient id="radial-gradient-4" cx="206.04" cy="31.36" r="21.96" xlink:href="#radial-gradient"/><radialGradient id="radial-gradient-6" cx="520.88" cy="-691.9" r="12.35" gradientTransform="matrix(0, 0.94, -0.48, 0, -123.93, -469.23)" gradientUnits="userSpaceOnUse"><stop offset="0" stop-color="#fff" stop-opacity="0.4"/><stop offset="0" stop-color="#fff" stop-opacity="0.6"/><stop offset="0.79" stop-color="#fff" stop-opacity="0"/></radialGradient><linearGradient id="linear-gradient-7" x1="204.72" y1="385.56" x2="204.72" y2="345.97" gradientUnits="userSpaceOnUse"><stop offset="0" stop-color="#fff" stop-opacity="0.1"/><stop offset="1" stop-color="#fff" stop-opacity="0.6"/></linearGradient><linearGradient id="linear-gradient-8" x1="118.98" y1="365.16" x2="290.46" y2="365.16" gradientUnits="userSpaceOnUse"><stop offset="0" stop-color="#fff" stop-opacity="0.4"/><stop offset="0.53" stop-color="#fff" stop-opacity="0.7"/><stop offset="1" stop-color="#fff" stop-opacity="0.4"/></linearGradient><linearGradient id="linear-gradient-9" x1="109.78" y1="238.3" x2="301.87" y2="238.3" xlink:href="#linear-gradient-3"/><linearGradient id="linear-gradient-10" x1="205.66" y1="362.78" x2="204.27" y2="86.02" gradientUnits="userSpaceOnUse"><stop offset="0.02" stop-color="#e9eb9e" stop-opacity="0.9"/><stop offset="0.44" stop-color="#e9eb9e" stop-opacity="0.6"/><stop offset="1" stop-color="#eff2c3" stop-opacity="0.4"/></linearGradient><linearGradient id="linear-gradient-11" x1="129.57" y1="226.3" x2="198.46" y2="244.03" gradientUnits="userSpaceOnUse"><stop offset="0.16" stop-color="#fff" stop-opacity="0.4"/><stop offset="0.42" stop-color="#fff" stop-opacity="0"/></linearGradient><linearGradient id="linear-gradient-12" x1="-3456.59" y1="280.31" x2="-3404.41" y2="293.74" gradientTransform="matrix(-1, 0, 0, 1, -3161.08, 0.33)" xlink:href="#linear-gradient-11"/><linearGradient id="linear-gradient-13" x1="109.28" y1="238.3" x2="302.37" y2="238.3" gradientUnits="userSpaceOnUse"><stop offset="0" stop-color="#fff" stop-opacity="0.4"/><stop offset="0.2" stop-color="#fff" stop-opacity="0.5"/><stop offset="0.44" stop-color="#fff" stop-opacity="0.62"/><stop offset="0.67" stop-color="#fff" stop-opacity="0.7"/><stop offset="0.92" stop-color="#fff" stop-opacity="0.4"/><stop offset="1" stop-color="#fff" stop-opacity="0.4"/></linearGradient><linearGradient id="linear-gradient-14" x1="168.76" y1="81.23" x2="242.89" y2="81.23" gradientUnits="userSpaceOnUse"><stop offset="0" stop-color="#fff" stop-opacity="0.8"/><stop offset="0.2" stop-color="#fff" stop-opacity="0.9"/><stop offset="0.44" stop-color="#fff" stop-opacity="0.62"/><stop offset="0.67" stop-color="#fff" stop-opacity="0.7"/><stop offset="0.92" stop-color="#fff" stop-opacity="0.4"/><stop offset="1" stop-color="#fff" stop-opacity="0.8"/></linearGradient><linearGradient id="linear-gradient-15" x1="168.26" y1="81.23" x2="243.39" y2="81.23" xlink:href="#linear-gradient-13"/><radialGradient id="radial-gradient-7" cx="-606.24" cy="-165.96" r="14.07" gradientTransform="translate(1355.45 141.68) scale(1.88 0.34)" xlink:href="#radial-gradient-6"/><radialGradient id="radial-gradient-8" cx="-820.13" cy="-787.77" r="15.45" gradientTransform="matrix(2.35, -0.07, 0.02, 0.65, 2146.44, 621.84)" gradientUnits="userSpaceOnUse"><stop offset="0.09" stop-color="#fff" stop-opacity="0.4"/><stop offset="0.79" stop-color="#fff" stop-opacity="0"/></radialGradient><radialGradient id="radial-gradient-9" cx="186.45" cy="7.3" r="64.92" gradientTransform="matrix(0.31, -1.11, 0.09, 0.04, 108.89, 459.44)" gradientUnits="userSpaceOnUse"><stop offset="0.06" stop-color="#fff" stop-opacity="0.4"/><stop offset="0.79" stop-color="#fff" stop-opacity="0"/></radialGradient></defs><title>Artboard 5 copy 4</title><rect class="cls-1" x="0.57" y="-1.98" width="404.72" height="403.2"/><path class="cls-2" d="M236.77,83.63A8.34,8.34,0,0,1,231,85.91H179.87a8.34,8.34,0,0,1-5.76-2.28l5.59,48.74a1.16,1.16,0,0,0-.08.32c0,2.68,11.52,4.86,25.74,4.86,13.61,0,24.72-2,25.65-4.52h.09Z"/><path class="cls-3" d="M231,125h-.09c-.93,2.52-12.05,4.52-25.65,4.52-14.22,0-25.74-2.18-25.74-4.86a1.25,1.25,0,0,1,.08-.32l-4.57-39.89a8,8,0,0,1-1-.8l5.59,48.74a1.16,1.16,0,0,0-.08.32c0,2.68,11.52,4.86,25.74,4.86,13.6,0,24.72-2,25.65-4.52H231l5.67-49.4a8.76,8.76,0,0,1-1,.8Z"/><circle class="cls-4" cx="206.04" cy="31.36" r="21.96"/><rect class="cls-5" x="191.4" y="52.7" width="28" height="11.53" rx="3.41"/><rect class="cls-6" x="183.05" y="64.23" width="44.69" height="11.03" rx="3.41"/><rect class="cls-7" x="191.4" y="52.7" width="28" height="11.53" rx="3.41"/><rect class="cls-8" x="183.05" y="64.23" width="44.69" height="11.03" rx="3.41"/><rect class="cls-9" x="173.54" y="75.26" width="63.72" height="11.03" rx="3.41"/><rect class="cls-10" x="173.54" y="75.26" width="63.72" height="11.03" rx="3.41"/><circle class="cls-11" cx="206.04" cy="31.36" r="21.96"/><circle class="cls-12" cx="206.04" cy="31.36" r="21.96"/><ellipse class="cls-13" cx="206.04" cy="19.94" rx="9.81" ry="11.73" transform="translate(158.05 221.3) rotate(-82.12)"/><ellipse class="cls-14" cx="204.72" cy="365.77" rx="85.74" ry="19.12"/><ellipse class="cls-15" cx="204.72" cy="365.16" rx="85.74" ry="19.72"/><path class="cls-16" d="M301.69,351.59a27.25,27.25,0,0,0-1.47-8.85L242.12,174.1a66.51,66.51,0,0,1-3.63-21.61V87H173.14v65.51a66.51,66.51,0,0,1-3.63,21.61L111.59,342.23A29.24,29.24,0,0,0,110,352a14.29,14.29,0,0,0-.18,1.73c-1,28.21,43,35.89,96,35.89s96-7.68,96-35.89A13.94,13.94,0,0,0,301.69,351.59Z"/><path class="cls-17" d="M296,347.51a26.85,26.85,0,0,0-1.38-8.62L239.82,174.51a66.54,66.54,0,0,1-3.42-21.06V89.59H174.79v63.86a66.55,66.55,0,0,1-3.43,21.06l-54.6,163.88a29.55,29.55,0,0,0-1.53,9.52,16,16,0,0,0-.16,1.7c-.92,27.49,22.19,34.36,90.54,35,57.81.52,90.54-7.48,90.54-35A13.43,13.43,0,0,0,296,347.51Z"/><path class="cls-18" d="M123.35,353.73a14.27,14.27,0,0,1,.17-1.73,29.24,29.24,0,0,1,1.62-9.77L183.06,174.1a66.24,66.24,0,0,0,3.63-21.61V87H173.14v65.51a66.51,66.51,0,0,1-3.63,21.61L111.59,342.23A29.24,29.24,0,0,0,110,352a14.29,14.29,0,0,0-.18,1.73c-1,28.21,43,35.89,96,35.89q3.42,0,6.78-.05C162.65,388.92,122.42,380.73,123.35,353.73Z"/><path class="cls-19" d="M301.21,352.27a29.24,29.24,0,0,0-1.62-9.77L253.83,209.68q-8.58-5.07-17.1-10.29L286,342.5a29.24,29.24,0,0,1,1.62,9.77,14.27,14.27,0,0,1,.17,1.73c.94,27-39.3,35.19-89.25,35.84q3.35,0,6.77,0c53,0,97-7.67,96-35.88A14.27,14.27,0,0,0,301.21,352.27Z"/><path class="cls-20" d="M301.69,351.59a27.25,27.25,0,0,0-1.47-8.85L242.12,174.1a66.51,66.51,0,0,1-3.63-21.61V87H173.14v65.51a66.51,66.51,0,0,1-3.63,21.61L111.59,342.23A29.24,29.24,0,0,0,110,352a14.29,14.29,0,0,0-.18,1.73c-1,28.21,43,35.89,96,35.89s96-7.68,96-35.89A13.94,13.94,0,0,0,301.69,351.59Z"/><rect class="cls-21" x="168.76" y="75.34" width="74.12" height="11.78" rx="4.89"/><rect class="cls-22" x="168.76" y="75.34" width="74.12" height="11.78" rx="4.89"/><ellipse class="cls-23" cx="208.94" cy="87.6" rx="26.73" ry="7.86"/><path class="cls-24" d="M233.31,156.21c.75,3.33-10.25,28.91-32.57,34.12-22.4,5.79-34.46-18.51-34.06-31.29-.76-13.37,10.25-2.61,32.57,1C221.65,164.31,233.7,152.27,233.31,156.21Z"/><path class="cls-25" d="M181,159,137.12,312.24s25.18,21.76,37.78,6S198.57,159,198.57,159Z"/><rect class="cls-26" x="183.8" y="317.51" width="18.69" height="0.66"/><rect class="cls-26" x="183.8" y="250.25" width="18.69" height="0.66"/><rect class="cls-26" x="183.8" y="339.21" width="18.69" height="0.66"/><rect class="cls-26" x="183.8" y="290.2" width="18.69" height="0.66"/><path class="cls-26" d="M209.51,260.36c0-.43,0-.79,0-1.14h.67l0,.68h0a1.43,1.43,0,0,1,1.32-.77,1.25,1.25,0,0,1,1.19.84h0a1.82,1.82,0,0,1,.47-.55,1.44,1.44,0,0,1,.93-.29c.56,0,1.38.36,1.38,1.83v2.48h-.75v-2.39c0-.81-.29-1.29-.91-1.29a1,1,0,0,0-.9.69,1.17,1.17,0,0,0-.07.38v2.61h-.74v-2.53c0-.67-.3-1.15-.88-1.15a1,1,0,0,0-1,.76.92.92,0,0,0-.06.38v2.54h-.75Z"/><path class="cls-26" d="M216.8,257.57h.75v5.23h2.51v.64H216.8Z"/><text class="cls-27" transform="translate(207.96 343.24)">100</text><text class="cls-27" transform="translate(207.96 321.54)">150</text><text class="cls-27" transform="translate(207.96 294.23)">200</text><text class="cls-27" transform="translate(207.96 254.27)">250</text></svg>