<svg id="Layer_1" data-name="Layer 1" xmlns="http://www.w3.org/2000/svg" xmlns:xlink="http://www.w3.org/1999/xlink" viewBox="0 0 400 400"><defs><style>.cls-1{fill:#343841;}.cls-10,.cls-2,.cls-8{fill:none;stroke-miterlimit:10;}.cls-2{stroke-width:1.35px;opacity:0.4;stroke:url(#linear-gradient);}.cls-10,.cls-3,.cls-8{opacity:0.53;}.cls-3{fill:url(#linear-gradient-2);}.cls-4{fill:url(#linear-gradient-3);}.cls-5{fill:url(#linear-gradient-4);}.cls-6{fill:url(#linear-gradient-5);}.cls-7{fill:url(#linear-gradient-6);}.cls-8{stroke:url(#linear-gradient-7);}.cls-9{opacity:0.85;fill:url(#linear-gradient-8);}.cls-10{stroke:url(#linear-gradient-9);}.cls-11{fill:url(#radial-gradient);}.cls-12{fill:url(#radial-gradient-2);}.cls-13{fill:url(#radial-gradient-3);}.cls-14,.cls-15{fill:#fff;}.cls-15{font-size:12.58px;font-family:MyriadPro-Regular, Myriad Pro;}</style><linearGradient id="linear-gradient" x1="198.81" y1="370.86" x2="198.81" y2="331.26" gradientUnits="userSpaceOnUse"><stop offset="0" stop-color="#fff" stop-opacity="0.1"/><stop offset="1" stop-color="#fff" stop-opacity="0.6"/></linearGradient><linearGradient id="linear-gradient-2" x1="113.07" y1="350.46" x2="284.54" y2="350.46" gradientUnits="userSpaceOnUse"><stop offset="0" stop-color="#fff" stop-opacity="0.4"/><stop offset="0.53" stop-color="#fff" stop-opacity="0.7"/><stop offset="1" stop-color="#fff" stop-opacity="0.4"/></linearGradient><linearGradient id="linear-gradient-3" x1="103.86" y1="223.59" x2="295.96" y2="223.59" gradientUnits="userSpaceOnUse"><stop offset="0" stop-color="#fff" stop-opacity="0.5"/><stop offset="0.5" stop-color="#fff" stop-opacity="0.2"/><stop offset="1" stop-color="#fff" stop-opacity="0.4"/></linearGradient><linearGradient id="linear-gradient-4" x1="199.74" y1="347.97" x2="198.35" y2="69.9" gradientUnits="userSpaceOnUse"><stop offset="0.02" stop-color="#e9eb9e" stop-opacity="0.9"/><stop offset="0.44" stop-color="#e9eb9e" stop-opacity="0.6"/><stop offset="1" stop-color="#eff2c3" stop-opacity="0.4"/></linearGradient><linearGradient id="linear-gradient-5" x1="123.65" y1="211.6" x2="192.54" y2="229.32" gradientUnits="userSpaceOnUse"><stop offset="0.16" stop-color="#fff" stop-opacity="0.4"/><stop offset="0.42" stop-color="#fff" stop-opacity="0"/></linearGradient><linearGradient id="linear-gradient-6" x1="-8269.57" y1="265.61" x2="-8217.38" y2="279.03" gradientTransform="matrix(-1, 0, 0, 1, -7979.96, 0.33)" xlink:href="#linear-gradient-5"/><linearGradient id="linear-gradient-7" x1="103.36" y1="223.59" x2="296.46" y2="223.59" gradientUnits="userSpaceOnUse"><stop offset="0" stop-color="#fff" stop-opacity="0.4"/><stop offset="0.2" stop-color="#fff" stop-opacity="0.5"/><stop offset="0.44" stop-color="#fff" stop-opacity="0.62"/><stop offset="0.67" stop-color="#fff" stop-opacity="0.7"/><stop offset="0.92" stop-color="#fff" stop-opacity="0.4"/><stop offset="1" stop-color="#fff" stop-opacity="0.4"/></linearGradient><linearGradient id="linear-gradient-8" x1="162.85" y1="66.52" x2="236.97" y2="66.52" gradientUnits="userSpaceOnUse"><stop offset="0" stop-color="#fff" stop-opacity="0.8"/><stop offset="0.2" stop-color="#fff" stop-opacity="0.9"/><stop offset="0.44" stop-color="#fff" stop-opacity="0.62"/><stop offset="0.67" stop-color="#fff" stop-opacity="0.7"/><stop offset="0.92" stop-color="#fff" stop-opacity="0.4"/><stop offset="1" stop-color="#fff" stop-opacity="0.8"/></linearGradient><linearGradient id="linear-gradient-9" x1="162.35" y1="66.52" x2="237.47" y2="66.52" xlink:href="#linear-gradient-7"/><radialGradient id="radial-gradient" cx="-1740.58" cy="-179.22" r="14.07" gradientTransform="translate(3487.74 131.46) scale(1.88 0.34)" gradientUnits="userSpaceOnUse"><stop offset="0" stop-color="#fff" stop-opacity="0.4"/><stop offset="0" stop-color="#fff" stop-opacity="0.6"/><stop offset="0.79" stop-color="#fff" stop-opacity="0"/></radialGradient><radialGradient id="radial-gradient-2" cx="-2208.19" cy="-746.83" r="15.45" gradientTransform="matrix(2.35, -0.07, 0.02, 0.65, 5402.65, 484.96)" gradientUnits="userSpaceOnUse"><stop offset="0.09" stop-color="#fff" stop-opacity="0.4"/><stop offset="0.79" stop-color="#fff" stop-opacity="0"/></radialGradient><radialGradient id="radial-gradient-3" cx="203.9" cy="-5.34" r="64.92" gradientTransform="matrix(0.31, -1.11, 0.09, 0.04, 98.78, 464.48)" gradientUnits="userSpaceOnUse"><stop offset="0.06" stop-color="#fff" stop-opacity="0.4"/><stop offset="0.79" stop-color="#fff" stop-opacity="0"/></radialGradient></defs><title>Artboard 5 copy 9</title><rect class="cls-1" x="-3.34" y="-1.98" width="404.72" height="403.2"/><ellipse class="cls-2" cx="198.81" cy="351.06" rx="85.74" ry="19.12"/><ellipse class="cls-3" cx="198.81" cy="350.46" rx="85.74" ry="19.72"/><path class="cls-4" d="M295.77,336.88A26.76,26.76,0,0,0,294.3,328L236.21,159.39a66.15,66.15,0,0,1-3.63-21.61V72.27H167.22v65.51a66.15,66.15,0,0,1-3.63,21.61L105.67,327.53a29.18,29.18,0,0,0-1.62,9.76,14.64,14.64,0,0,0-.17,1.74c-1,28.21,43,35.88,96,35.88s96-7.67,96-35.88A14.08,14.08,0,0,0,295.77,336.88Z"/><path class="cls-5" d="M290.06,332.63a27.71,27.71,0,0,0-1.38-8.66L233.91,158.81a67.21,67.21,0,0,1-3.43-21.16V73.49H168.87v64.16a67.2,67.2,0,0,1-3.42,21.16L110.84,323.47a29.78,29.78,0,0,0-1.52,9.56,14,14,0,0,0-.17,1.7c-.91,27.63,22.19,34.53,90.54,35.15,57.82.52,90.54-7.52,90.54-35.15A13.52,13.52,0,0,0,290.06,332.63Z"/><path class="cls-6" d="M117.43,339a17.1,17.1,0,0,1,.18-1.74,29.18,29.18,0,0,1,1.62-9.76l57.92-168.14a66.42,66.42,0,0,0,3.63-21.61V72.27H167.22v65.51a66.15,66.15,0,0,1-3.63,21.61L105.67,327.53a29.18,29.18,0,0,0-1.62,9.76,14.64,14.64,0,0,0-.17,1.74c-1,28.21,43,35.88,96,35.88,2.28,0,4.54,0,6.77,0C156.74,374.21,116.5,366,117.43,339Z"/><path class="cls-7" d="M295.29,337.56a29.18,29.18,0,0,0-1.62-9.76L247.92,195q-8.59-5.07-17.1-10.28l49.3,143.11a29.44,29.44,0,0,1,1.62,9.76,14.64,14.64,0,0,1,.17,1.74c.93,27-39.31,35.18-89.26,35.83q3.36,0,6.78.05c53,0,97-7.67,96-35.88A14.64,14.64,0,0,0,295.29,337.56Z"/><path class="cls-8" d="M295.77,336.88A26.76,26.76,0,0,0,294.3,328L236.21,159.39a66.15,66.15,0,0,1-3.63-21.61V72.27H167.22v65.51a66.15,66.15,0,0,1-3.63,21.61L105.67,327.53a29.18,29.18,0,0,0-1.62,9.76,14.64,14.64,0,0,0-.17,1.74c-1,28.21,43,35.88,96,35.88s96-7.67,96-35.88A14.08,14.08,0,0,0,295.77,336.88Z"/><rect class="cls-9" x="162.85" y="60.63" width="74.12" height="11.78" rx="4.89"/><rect class="cls-10" x="162.85" y="60.63" width="74.12" height="11.78" rx="4.89"/><ellipse class="cls-11" cx="203.03" cy="72.9" rx="26.73" ry="7.86"/><path class="cls-12" d="M227.4,141.51c.75,3.33-10.25,28.9-32.58,34.11-22.39,5.8-34.45-18.51-34.06-31.28-.75-13.38,10.25-2.62,32.58,1C215.74,149.6,227.79,137.57,227.4,141.51Z"/><path class="cls-13" d="M175,144.26,131.21,297.54s25.18,21.76,37.77,6,23.67-159.26,23.67-159.26Z"/><rect class="cls-14" x="177.89" y="302.81" width="18.69" height="0.66"/><rect class="cls-14" x="177.89" y="235.54" width="18.69" height="0.66"/><rect class="cls-14" x="177.89" y="324.51" width="18.69" height="0.66"/><rect class="cls-14" x="177.89" y="275.5" width="18.69" height="0.66"/><path class="cls-14" d="M203.59,245.66c0-.44,0-.79,0-1.14h.67l0,.68h0a1.46,1.46,0,0,1,1.32-.78,1.26,1.26,0,0,1,1.2.85h0a1.73,1.73,0,0,1,.47-.55,1.44,1.44,0,0,1,.93-.3c.56,0,1.39.37,1.39,1.83v2.48h-.75v-2.38c0-.81-.3-1.3-.91-1.3a1,1,0,0,0-.91.7,1.38,1.38,0,0,0-.06.38v2.6h-.75v-2.52c0-.67-.3-1.16-.88-1.16a1.05,1.05,0,0,0-.95.77,1.1,1.1,0,0,0-.06.37v2.54h-.75Z"/><path class="cls-14" d="M210.88,242.87h.76v5.23h2.51v.63h-3.27Z"/><text class="cls-15" transform="translate(202.05 328.53)">100</text><text class="cls-15" transform="translate(202.04 306.83)">150</text><text class="cls-15" transform="translate(202.04 279.52)">200</text><text class="cls-15" transform="translate(202.05 239.56)">250</text></svg>