<svg id="Layer_1" data-name="Layer 1" xmlns="http://www.w3.org/2000/svg" xmlns:xlink="http://www.w3.org/1999/xlink" viewBox="0 0 400 400"><defs><style>.cls-1{fill:#343841;}.cls-2{fill:url(#radial-gradient);}.cls-3{fill:url(#radial-gradient-2);}.cls-4,.cls-5,.cls-9{fill:none;stroke-miterlimit:10;stroke-width:1.09px;}.cls-4{stroke:url(#linear-gradient);}.cls-5{stroke:url(#linear-gradient-2);}.cls-6{fill:url(#linear-gradient-3);}.cls-7{fill:url(#linear-gradient-4);}.cls-8{fill:url(#linear-gradient-5);}.cls-9{stroke:url(#linear-gradient-6);}</style><radialGradient id="radial-gradient" cx="206" cy="167.1" r="35.78" gradientUnits="userSpaceOnUse"><stop offset="0" stop-color="#fff" stop-opacity="0.5"/><stop offset="0.5" stop-color="#fff" stop-opacity="0.2"/><stop offset="1" stop-color="#fff" stop-opacity="0.4"/></radialGradient><radialGradient id="radial-gradient-2" cx="206" cy="167.1" r="25.65" xlink:href="#radial-gradient"/><linearGradient id="linear-gradient" x1="169.68" y1="167.1" x2="242.33" y2="167.1" xlink:href="#radial-gradient"/><linearGradient id="linear-gradient-2" x1="179.81" y1="167.1" x2="232.19" y2="167.1" xlink:href="#radial-gradient"/><linearGradient id="linear-gradient-3" x1="177.5" y1="233.69" x2="234.87" y2="233.69" gradientUnits="userSpaceOnUse"><stop offset="0" stop-color="#fff" stop-opacity="0.8"/><stop offset="0.5" stop-color="#fff" stop-opacity="0.2"/><stop offset="1" stop-color="#fff" stop-opacity="0.8"/></linearGradient><linearGradient id="linear-gradient-4" x1="177.43" y1="233.69" x2="234.79" y2="233.69" xlink:href="#linear-gradient-3"/><linearGradient id="linear-gradient-5" x1="187.87" y1="2185.48" x2="223.89" y2="2185.48" gradientTransform="translate(0 -897.48) scale(1 0.5)" xlink:href="#linear-gradient-3"/><linearGradient id="linear-gradient-6" x1="174.31" y1="195.26" x2="237.69" y2="195.26" xlink:href="#radial-gradient"/></defs><title>Artboard 5 copy 17</title><rect class="cls-1" x="-0.66" y="-1.98" width="404.72" height="403.2"/><circle class="cls-2" cx="206" cy="167.1" r="35.78"/><circle class="cls-3" cx="206" cy="167.1" r="25.65"/><circle class="cls-4" cx="206" cy="167.1" r="35.78"/><circle class="cls-5" cx="206" cy="167.1" r="25.65"/><path class="cls-6" d="M234.87,209a7.67,7.67,0,0,1-5.28,2.09H182.78A7.67,7.67,0,0,1,177.5,209l5.12,44.62a1,1,0,0,0-.08.29c0,2.46,10.56,4.45,23.57,4.45,12.46,0,22.63-1.83,23.48-4.14h.09Z"/><path class="cls-7" d="M229.6,246.87h-.08c-.85,2.31-11,4.13-23.48,4.13-13,0-23.57-2-23.57-4.44a.84.84,0,0,1,.08-.3l-4.19-36.52a8.31,8.31,0,0,1-.93-.73l5.12,44.62a.79.79,0,0,0-.08.29c0,2.46,10.55,4.45,23.57,4.45,12.45,0,22.63-1.83,23.48-4.14h.08L234.79,209a8.31,8.31,0,0,1-.93.73Z"/><path class="cls-8" d="M236.76,205.4l-5.44-8.33c-.78-1.18-2.61-2.07-4.87-2.45v-3.74c0-1.81-2.95-3.28-6.57-3.28h-.52a1.19,1.19,0,0,0-.17-.41l-2.67-3.94c-1.3-1.91-4.89-3.2-8.93-3.2h-3.17c-4,0-7.63,1.29-8.93,3.2l-2.67,3.94a1.19,1.19,0,0,0-.17.41h-1c-3.63,0-6.58,1.47-6.58,3.28v3.84a6.93,6.93,0,0,0-4.38,2.35l-5.44,8.33c-1.64,2.5,2.09,5.07,7.35,5.07h46.81C234.67,210.47,238.4,207.9,236.76,205.4Z"/><path class="cls-9" d="M236.76,205.4l-5.44-8.33c-.78-1.18-2.61-2.07-4.87-2.45v-3.74c0-1.81-2.95-3.28-6.57-3.28h-.52a1.19,1.19,0,0,0-.17-.41l-2.67-3.94c-1.3-1.91-4.89-3.2-8.93-3.2h-3.17c-4,0-7.63,1.29-8.93,3.2l-2.67,3.94a1.19,1.19,0,0,0-.17.41h-1c-3.63,0-6.58,1.47-6.58,3.28v3.84a6.93,6.93,0,0,0-4.38,2.35l-5.44,8.33c-1.64,2.5,2.09,5.07,7.35,5.07h46.81C234.67,210.47,238.4,207.9,236.76,205.4Z"/></svg>