<svg id="Layer_1" data-name="Layer 1" xmlns="http://www.w3.org/2000/svg" xmlns:xlink="http://www.w3.org/1999/xlink" viewBox="0 0 400 400"><defs><style>.cls-1{fill:#343841;}.cls-17,.cls-18,.cls-2,.cls-22,.cls-7,.cls-9{fill:none;stroke-miterlimit:10;}.cls-2{stroke-width:1.35px;opacity:0.4;stroke:url(#linear-gradient);}.cls-3,.cls-7,.cls-9{opacity:0.53;}.cls-3{fill:url(#linear-gradient-2);}.cls-4{fill:url(#linear-gradient-3);}.cls-5{fill:url(#linear-gradient-4);}.cls-6{fill:url(#linear-gradient-5);}.cls-7{stroke:url(#linear-gradient-6);}.cls-8{opacity:0.85;fill:url(#linear-gradient-7);}.cls-9{stroke:url(#linear-gradient-8);}.cls-10{fill:url(#radial-gradient);}.cls-11{fill:url(#radial-gradient-2);}.cls-12{fill:url(#radial-gradient-3);}.cls-13,.cls-14{fill:#fff;}.cls-14{font-size:12.58px;font-family:MyriadPro-Regular, Myriad Pro;}.cls-15{fill:url(#radial-gradient-4);}.cls-16{fill:url(#radial-gradient-5);}.cls-17{stroke:url(#linear-gradient-9);}.cls-18{stroke:url(#linear-gradient-10);}.cls-19{fill:url(#linear-gradient-11);}.cls-20{fill:url(#linear-gradient-12);}.cls-21{fill:url(#linear-gradient-13);}.cls-22{stroke:url(#linear-gradient-14);}</style><linearGradient id="linear-gradient" x1="201.32" y1="383.41" x2="201.32" y2="343.82" gradientUnits="userSpaceOnUse"><stop offset="0" stop-color="#fff" stop-opacity="0.1"/><stop offset="1" stop-color="#fff" stop-opacity="0.6"/></linearGradient><linearGradient id="linear-gradient-2" x1="115.58" y1="363.01" x2="287.06" y2="363.01" gradientUnits="userSpaceOnUse"><stop offset="0" stop-color="#fff" stop-opacity="0.4"/><stop offset="0.53" stop-color="#fff" stop-opacity="0.7"/><stop offset="1" stop-color="#fff" stop-opacity="0.4"/></linearGradient><linearGradient id="linear-gradient-3" x1="106.38" y1="236.15" x2="298.47" y2="236.15" gradientUnits="userSpaceOnUse"><stop offset="0" stop-color="#fff" stop-opacity="0.5"/><stop offset="0.5" stop-color="#fff" stop-opacity="0.2"/><stop offset="1" stop-color="#fff" stop-opacity="0.4"/></linearGradient><linearGradient id="linear-gradient-4" x1="126.16" y1="224.15" x2="195.05" y2="241.88" gradientUnits="userSpaceOnUse"><stop offset="0.16" stop-color="#fff" stop-opacity="0.4"/><stop offset="0.42" stop-color="#fff" stop-opacity="0"/></linearGradient><linearGradient id="linear-gradient-5" x1="-2408.94" y1="278.16" x2="-2356.76" y2="291.59" gradientTransform="matrix(-1, 0, 0, 1, -2116.82, 0.33)" xlink:href="#linear-gradient-4"/><linearGradient id="linear-gradient-6" x1="105.88" y1="236.15" x2="298.97" y2="236.15" gradientUnits="userSpaceOnUse"><stop offset="0" stop-color="#fff" stop-opacity="0.4"/><stop offset="0.2" stop-color="#fff" stop-opacity="0.5"/><stop offset="0.44" stop-color="#fff" stop-opacity="0.62"/><stop offset="0.67" stop-color="#fff" stop-opacity="0.7"/><stop offset="0.92" stop-color="#fff" stop-opacity="0.4"/><stop offset="1" stop-color="#fff" stop-opacity="0.4"/></linearGradient><linearGradient id="linear-gradient-7" x1="165.36" y1="79.08" x2="239.48" y2="79.08" gradientUnits="userSpaceOnUse"><stop offset="0" stop-color="#fff" stop-opacity="0.8"/><stop offset="0.2" stop-color="#fff" stop-opacity="0.9"/><stop offset="0.44" stop-color="#fff" stop-opacity="0.62"/><stop offset="0.67" stop-color="#fff" stop-opacity="0.7"/><stop offset="0.92" stop-color="#fff" stop-opacity="0.4"/><stop offset="1" stop-color="#fff" stop-opacity="0.8"/></linearGradient><linearGradient id="linear-gradient-8" x1="164.86" y1="79.08" x2="239.98" y2="79.08" xlink:href="#linear-gradient-6"/><radialGradient id="radial-gradient" cx="-362.91" cy="-167.9" r="14.07" gradientTransform="translate(893.39 140.19) scale(1.88 0.34)" gradientUnits="userSpaceOnUse"><stop offset="0" stop-color="#fff" stop-opacity="0.4"/><stop offset="0" stop-color="#fff" stop-opacity="0.6"/><stop offset="0.79" stop-color="#fff" stop-opacity="0"/></radialGradient><radialGradient id="radial-gradient-2" cx="-521.24" cy="-799.23" r="15.45" gradientTransform="matrix(2.35, -0.07, 0.02, 0.65, 1440.63, 647.72)" gradientUnits="userSpaceOnUse"><stop offset="0.09" stop-color="#fff" stop-opacity="0.4"/><stop offset="0.79" stop-color="#fff" stop-opacity="0"/></radialGradient><radialGradient id="radial-gradient-3" cx="177.94" cy="5.45" r="64.92" gradientTransform="matrix(0.31, -1.11, 0.09, 0.04, 108.3, 447.95)" gradientUnits="userSpaceOnUse"><stop offset="0.06" stop-color="#fff" stop-opacity="0.4"/><stop offset="0.79" stop-color="#fff" stop-opacity="0"/></radialGradient><radialGradient id="radial-gradient-4" cx="202.42" cy="46.62" r="32.92" xlink:href="#linear-gradient-3"/><radialGradient id="radial-gradient-5" cx="202.42" cy="46.62" r="23.6" xlink:href="#linear-gradient-3"/><linearGradient id="linear-gradient-9" x1="169" y1="46.62" x2="235.85" y2="46.62" xlink:href="#linear-gradient-3"/><linearGradient id="linear-gradient-10" x1="178.32" y1="46.62" x2="226.52" y2="46.62" xlink:href="#linear-gradient-3"/><linearGradient id="linear-gradient-11" x1="176.2" y1="107.9" x2="228.98" y2="107.9" gradientUnits="userSpaceOnUse"><stop offset="0" stop-color="#fff" stop-opacity="0.8"/><stop offset="0.5" stop-color="#fff" stop-opacity="0.2"/><stop offset="1" stop-color="#fff" stop-opacity="0.8"/></linearGradient><linearGradient id="linear-gradient-12" x1="176.13" y1="107.9" x2="228.91" y2="107.9" xlink:href="#linear-gradient-11"/><linearGradient id="linear-gradient-13" x1="185.73" y1="1462.3" x2="218.88" y2="1462.3" gradientTransform="translate(0 -658.62) scale(1 0.5)" xlink:href="#linear-gradient-11"/><linearGradient id="linear-gradient-14" x1="173.26" y1="72.53" x2="231.58" y2="72.53" xlink:href="#linear-gradient-3"/></defs><title>Artboard 5 copy 3</title><rect class="cls-1" x="-0.25" y="-1.98" width="404.72" height="403.2"/><ellipse class="cls-2" cx="201.32" cy="363.62" rx="85.74" ry="19.12"/><ellipse class="cls-3" cx="201.32" cy="363.01" rx="85.74" ry="19.72"/><path class="cls-4" d="M298.28,349.44a27,27,0,0,0-1.46-8.85L238.72,172a66.24,66.24,0,0,1-3.63-21.61V84.83H169.74v65.51A66.25,66.25,0,0,1,166.1,172L108.18,340.08a29.23,29.23,0,0,0-1.61,9.77,12.53,12.53,0,0,0-.18,1.73c-1,28.21,43,35.89,96,35.89s96-7.68,96-35.89A12.8,12.8,0,0,0,298.28,349.44Z"/><path class="cls-5" d="M120,351.58a14.27,14.27,0,0,1,.17-1.73,29.24,29.24,0,0,1,1.62-9.77L179.66,172a66.24,66.24,0,0,0,3.63-21.61V84.83H169.74v65.51A66.25,66.25,0,0,1,166.1,172L108.18,340.08a29.23,29.23,0,0,0-1.61,9.77,12.53,12.53,0,0,0-.18,1.73c-1,28.21,43,35.89,96,35.89q3.42,0,6.78-.05C159.25,386.77,119,378.58,120,351.58Z"/><path class="cls-6" d="M297.8,350.12a29,29,0,0,0-1.62-9.77L250.43,207.53q-8.6-5.07-17.1-10.29l49.3,143.11a29.24,29.24,0,0,1,1.62,9.77,14.27,14.27,0,0,1,.17,1.73c.93,27-39.3,35.19-89.26,35.84q3.36,0,6.78,0c53,0,97-7.67,96-35.88A14.29,14.29,0,0,0,297.8,350.12Z"/><path class="cls-7" d="M298.28,349.44a27,27,0,0,0-1.46-8.85L238.72,172a66.24,66.24,0,0,1-3.63-21.61V84.83H169.74v65.51A66.25,66.25,0,0,1,166.1,172L108.18,340.08a29.23,29.23,0,0,0-1.61,9.77,12.53,12.53,0,0,0-.18,1.73c-1,28.21,43,35.89,96,35.89s96-7.68,96-35.89A12.8,12.8,0,0,0,298.28,349.44Z"/><rect class="cls-8" x="165.36" y="73.19" width="74.12" height="11.78" rx="4.89"/><rect class="cls-9" x="165.36" y="73.19" width="74.12" height="11.78" rx="4.89"/><ellipse class="cls-10" cx="205.54" cy="85.45" rx="26.73" ry="7.86"/><path class="cls-11" d="M229.91,154.06c.75,3.33-10.25,28.91-32.58,34.12-22.39,5.79-34.45-18.51-34.06-31.29-.75-13.37,10.25-2.61,32.58,1C218.25,162.16,230.3,150.12,229.91,154.06Z"/><path class="cls-12" d="M177.55,156.82,133.72,310.09s25.18,21.76,37.77,6,23.67-159.26,23.67-159.26Z"/><rect class="cls-13" x="191.43" y="314.28" width="18.69" height="0.66"/><rect class="cls-13" x="191.43" y="247.01" width="18.69" height="0.66"/><rect class="cls-13" x="191.43" y="335.98" width="18.69" height="0.66"/><rect class="cls-13" x="191.43" y="286.97" width="18.69" height="0.66"/><path class="cls-13" d="M217.14,257.13c0-.43,0-.79,0-1.14h.67l0,.68h0a1.46,1.46,0,0,1,1.33-.77,1.24,1.24,0,0,1,1.19.84h0a1.71,1.71,0,0,1,.47-.55,1.44,1.44,0,0,1,.93-.29c.56,0,1.38.36,1.38,1.82v2.48h-.75v-2.38c0-.81-.29-1.3-.91-1.3a1,1,0,0,0-.91.7,1.38,1.38,0,0,0-.06.38v2.6h-.74v-2.52c0-.67-.3-1.16-.88-1.16a1.05,1.05,0,0,0-1,.77.9.9,0,0,0-.06.37v2.54h-.75Z"/><path class="cls-13" d="M224.43,254.34h.75v5.23h2.51v.63h-3.26Z"/><text class="cls-14" transform="translate(215.59 340.01)">100</text><text class="cls-14" transform="translate(215.59 318.31)">150</text><text class="cls-14" transform="translate(215.59 290.99)">200</text><text class="cls-14" transform="translate(215.59 251.04)">250</text><circle class="cls-15" cx="202.42" cy="46.62" r="32.92"/><circle class="cls-16" cx="202.42" cy="46.62" r="23.6"/><circle class="cls-17" cx="202.42" cy="46.62" r="32.92"/><circle class="cls-18" cx="202.42" cy="46.62" r="23.6"/><path class="cls-19" d="M229,85.19a7.06,7.06,0,0,1-4.85,1.92H181.05a7.06,7.06,0,0,1-4.85-1.92l4.71,41.05a.92.92,0,0,0-.08.27c0,2.26,9.71,4.1,21.69,4.1,11.46,0,20.83-1.68,21.61-3.81h.08Z"/><path class="cls-20" d="M224.14,120h-.08c-.78,2.13-10.15,3.81-21.61,3.81-12,0-21.68-1.84-21.68-4.1a.9.9,0,0,1,.07-.27L177,85.86a8.09,8.09,0,0,1-.85-.67l4.71,41.05a.9.9,0,0,0-.07.27c0,2.26,9.7,4.1,21.68,4.1,11.46,0,20.83-1.68,21.61-3.81h.08l4.77-41.61a8.09,8.09,0,0,1-.85.67Z"/><path class="cls-21" d="M230.73,81.87l-5-7.67c-.71-1.08-2.39-1.91-4.48-2.26V68.5c0-1.67-2.7-3-6-3h-.48a1,1,0,0,0-.15-.37l-2.46-3.63c-1.2-1.76-4.5-2.94-8.22-2.94H201c-3.72,0-7,1.18-8.22,2.94l-2.46,3.63a1.19,1.19,0,0,0-.16.37h-.92c-3.34,0-6.05,1.35-6.05,3V72a6.4,6.4,0,0,0-4,2.17l-5,7.67c-1.5,2.3,1.92,4.66,6.76,4.66H224C228.8,86.53,232.23,84.17,230.73,81.87Z"/><path class="cls-22" d="M230.73,81.87l-5-7.67c-.71-1.08-2.39-1.91-4.48-2.26V68.5c0-1.67-2.7-3-6-3h-.48a1,1,0,0,0-.15-.37l-2.46-3.63c-1.2-1.76-4.5-2.94-8.22-2.94H201c-3.72,0-7,1.18-8.22,2.94l-2.46,3.63a1.19,1.19,0,0,0-.16.37h-.92c-3.34,0-6.05,1.35-6.05,3V72a6.4,6.4,0,0,0-4,2.17l-5,7.67c-1.5,2.3,1.92,4.66,6.76,4.66H224C228.8,86.53,232.23,84.17,230.73,81.87Z"/></svg>