<svg id="Layer_1" data-name="Layer 1" xmlns="http://www.w3.org/2000/svg" xmlns:xlink="http://www.w3.org/1999/xlink" viewBox="0 0 400 400"><defs><style>.cls-1{fill:#343841;}.cls-2{fill:url(#linear-gradient);}.cls-3{fill:url(#radial-gradient);}.cls-4,.cls-5{fill:#fff;}.cls-5{font-size:12.58px;font-family:MyriadPro-Regular, Myriad Pro;}.cls-11,.cls-13,.cls-6{fill:none;stroke-miterlimit:10;}.cls-6{stroke-width:1.35px;opacity:0.4;stroke:url(#linear-gradient-2);}.cls-11,.cls-13,.cls-7{opacity:0.53;}.cls-7{fill:url(#linear-gradient-3);}.cls-8{fill:url(#linear-gradient-4);}.cls-9{fill:url(#linear-gradient-5);}.cls-10{fill:url(#linear-gradient-6);}.cls-11{stroke:url(#linear-gradient-7);}.cls-12{opacity:0.85;fill:url(#linear-gradient-8);}.cls-13{stroke:url(#linear-gradient-9);}.cls-14{fill:url(#radial-gradient-2);}.cls-15{fill:url(#radial-gradient-3);}.cls-16{fill:url(#radial-gradient-4);}</style><linearGradient id="linear-gradient" x1="163" y1="59.78" x2="228.07" y2="59.78" gradientUnits="userSpaceOnUse"><stop offset="0" stop-color="#593021"/><stop offset="0.3" stop-color="#7a4a3d"/><stop offset="0.49" stop-color="#562e24"/><stop offset="0.75" stop-color="#35190f"/><stop offset="0.89" stop-color="#764b3d"/><stop offset="1" stop-color="#613121"/></linearGradient><radialGradient id="radial-gradient" cx="582.89" cy="1806.46" r="30.73" gradientTransform="translate(-624.72 -379.02) scale(1.41 0.23)" gradientUnits="userSpaceOnUse"><stop offset="0" stop-color="#593021"/><stop offset="0" stop-color="#7a4a3d"/><stop offset="0" stop-color="#562e24"/><stop offset="0" stop-color="#68382a"/><stop offset="1" stop-color="#35190f"/></radialGradient><linearGradient id="linear-gradient-2" x1="194.73" y1="365.59" x2="194.73" y2="326" gradientUnits="userSpaceOnUse"><stop offset="0" stop-color="#fff" stop-opacity="0.1"/><stop offset="1" stop-color="#fff" stop-opacity="0.6"/></linearGradient><linearGradient id="linear-gradient-3" x1="109" y1="345.19" x2="280.47" y2="345.19" gradientUnits="userSpaceOnUse"><stop offset="0" stop-color="#fff" stop-opacity="0.4"/><stop offset="0.53" stop-color="#fff" stop-opacity="0.7"/><stop offset="1" stop-color="#fff" stop-opacity="0.4"/></linearGradient><linearGradient id="linear-gradient-4" x1="99.79" y1="218.32" x2="291.89" y2="218.32" gradientUnits="userSpaceOnUse"><stop offset="0" stop-color="#fff" stop-opacity="0.5"/><stop offset="0.5" stop-color="#fff" stop-opacity="0.2"/><stop offset="1" stop-color="#fff" stop-opacity="0.4"/></linearGradient><linearGradient id="linear-gradient-5" x1="119.58" y1="206.33" x2="188.47" y2="224.05" gradientUnits="userSpaceOnUse"><stop offset="0.16" stop-color="#fff" stop-opacity="0.4"/><stop offset="0.42" stop-color="#fff" stop-opacity="0"/></linearGradient><linearGradient id="linear-gradient-6" x1="-1396.42" y1="260.34" x2="-1344.24" y2="273.76" gradientTransform="matrix(-1, 0, 0, 1, -1110.89, 0.33)" xlink:href="#linear-gradient-5"/><linearGradient id="linear-gradient-7" x1="99.29" y1="218.32" x2="292.39" y2="218.32" gradientUnits="userSpaceOnUse"><stop offset="0" stop-color="#fff" stop-opacity="0.4"/><stop offset="0.2" stop-color="#fff" stop-opacity="0.5"/><stop offset="0.44" stop-color="#fff" stop-opacity="0.62"/><stop offset="0.67" stop-color="#fff" stop-opacity="0.7"/><stop offset="0.92" stop-color="#fff" stop-opacity="0.4"/><stop offset="1" stop-color="#fff" stop-opacity="0.4"/></linearGradient><linearGradient id="linear-gradient-8" x1="158.78" y1="61.25" x2="232.9" y2="61.25" gradientUnits="userSpaceOnUse"><stop offset="0" stop-color="#fff" stop-opacity="0.8"/><stop offset="0.2" stop-color="#fff" stop-opacity="0.9"/><stop offset="0.44" stop-color="#fff" stop-opacity="0.62"/><stop offset="0.67" stop-color="#fff" stop-opacity="0.7"/><stop offset="0.92" stop-color="#fff" stop-opacity="0.4"/><stop offset="1" stop-color="#fff" stop-opacity="0.8"/></linearGradient><linearGradient id="linear-gradient-9" x1="158.28" y1="61.25" x2="233.4" y2="61.25" xlink:href="#linear-gradient-7"/><radialGradient id="radial-gradient-2" cx="-130.27" cy="-183.97" r="14.07" gradientTransform="translate(448.28 127.79) scale(1.88 0.34)" gradientUnits="userSpaceOnUse"><stop offset="0" stop-color="#fff" stop-opacity="0.4"/><stop offset="0" stop-color="#fff" stop-opacity="0.6"/><stop offset="0.79" stop-color="#fff" stop-opacity="0"/></radialGradient><radialGradient id="radial-gradient-3" cx="-234.43" cy="-817.71" r="15.45" gradientTransform="matrix(2.35, -0.07, 0.02, 0.65, 760.18, 661.66)" gradientUnits="userSpaceOnUse"><stop offset="0.09" stop-color="#fff" stop-opacity="0.4"/><stop offset="0.79" stop-color="#fff" stop-opacity="0"/></radialGradient><radialGradient id="radial-gradient-4" cx="166.41" cy="-9.87" r="64.92" gradientTransform="matrix(0.31, -1.11, 0.09, 0.04, 106.74, 417.94)" gradientUnits="userSpaceOnUse"><stop offset="0.06" stop-color="#fff" stop-opacity="0.4"/><stop offset="0.79" stop-color="#fff" stop-opacity="0"/></radialGradient></defs><title>Artboard 5 copy 2</title><rect class="cls-1" x="-4.74" y="-1.98" width="411.95" height="403.2"/><path class="cls-2" d="M228.07,36.41H163l3.21,41.86a.8.8,0,0,0-.12.38c0,2.48,13.15,4.5,29.37,4.5s29.37-2,29.37-4.5h0Z"/><ellipse class="cls-3" cx="195.53" cy="36.49" rx="32.53" ry="2.08"/><rect class="cls-4" x="184.85" y="288.51" width="18.69" height="0.66"/><rect class="cls-4" x="184.85" y="221.24" width="18.69" height="0.66"/><rect class="cls-4" x="184.85" y="310.21" width="18.69" height="0.66"/><rect class="cls-4" x="184.85" y="261.2" width="18.69" height="0.66"/><path class="cls-4" d="M210.55,231.36c0-.43,0-.79,0-1.14h.67l0,.68h0a1.46,1.46,0,0,1,1.32-.77,1.26,1.26,0,0,1,1.2.84h0a1.84,1.84,0,0,1,.47-.55,1.44,1.44,0,0,1,.93-.29c.56,0,1.39.36,1.39,1.83v2.48h-.75v-2.39c0-.81-.3-1.3-.91-1.3a1,1,0,0,0-.91.7,1.44,1.44,0,0,0-.06.38v2.61h-.75v-2.53c0-.67-.3-1.16-.88-1.16a1.06,1.06,0,0,0-.95.77,1.1,1.1,0,0,0-.06.37v2.55h-.75Z"/><path class="cls-4" d="M217.84,228.57h.76v5.23h2.51v.64h-3.27Z"/><text class="cls-5" transform="translate(209 314.24)">100</text><text class="cls-5" transform="translate(209 292.54)">150</text><text class="cls-5" transform="translate(209 265.23)">200</text><text class="cls-5" transform="translate(209 225.27)">250</text><ellipse class="cls-6" cx="194.73" cy="345.79" rx="85.74" ry="19.12"/><ellipse class="cls-7" cx="194.73" cy="345.19" rx="85.74" ry="19.72"/><path class="cls-8" d="M291.7,331.61a27,27,0,0,0-1.47-8.85L232.14,154.13a66.25,66.25,0,0,1-3.64-21.61V67H163.15v65.52a66.24,66.24,0,0,1-3.63,21.61L101.6,322.26A29.18,29.18,0,0,0,100,332a14.64,14.64,0,0,0-.17,1.74c-1,28.21,43,35.88,96,35.88s96-7.67,96-35.88A14.08,14.08,0,0,0,291.7,331.61Z"/><path class="cls-9" d="M113.36,333.76a14.66,14.66,0,0,1,.18-1.74,28.93,28.93,0,0,1,1.62-9.76l57.91-168.13a66.25,66.25,0,0,0,3.64-21.61V67H163.15v65.52a66.24,66.24,0,0,1-3.63,21.61L101.6,322.26A29.18,29.18,0,0,0,100,332a14.64,14.64,0,0,0-.17,1.74c-1,28.21,43,35.88,96,35.88q3.41,0,6.77,0C152.67,368.94,112.43,360.76,113.36,333.76Z"/><path class="cls-10" d="M291.22,332.29a29.18,29.18,0,0,0-1.62-9.76L243.84,189.7q-8.58-5.07-17.1-10.28L276,322.53a29.18,29.18,0,0,1,1.62,9.76,14.66,14.66,0,0,1,.18,1.74c.93,27-39.31,35.18-89.26,35.84,2.24,0,4.49,0,6.77,0,53,0,97-7.67,96-35.88A14.64,14.64,0,0,0,291.22,332.29Z"/><path class="cls-11" d="M291.7,331.61a27,27,0,0,0-1.47-8.85L232.14,154.13a66.25,66.25,0,0,1-3.64-21.61V67H163.15v65.52a66.24,66.24,0,0,1-3.63,21.61L101.6,322.26A29.18,29.18,0,0,0,100,332a14.64,14.64,0,0,0-.17,1.74c-1,28.21,43,35.88,96,35.88s96-7.67,96-35.88A14.08,14.08,0,0,0,291.7,331.61Z"/><rect class="cls-12" x="158.78" y="55.37" width="74.12" height="11.78" rx="4.89"/><rect class="cls-13" x="158.78" y="55.37" width="74.12" height="11.78" rx="4.89"/><ellipse class="cls-14" cx="198.96" cy="67.63" rx="26.73" ry="7.86"/><path class="cls-15" d="M223.33,136.24c.75,3.33-10.25,28.9-32.58,34.11-22.4,5.8-34.45-18.51-34.06-31.28-.75-13.38,10.25-2.61,32.58,1C211.66,144.33,223.72,132.3,223.33,136.24Z"/><path class="cls-16" d="M171,139,127.14,292.27s25.18,21.76,37.77,6S188.58,139,188.58,139Z"/></svg>