<svg id="Layer_1" data-name="Layer 1" xmlns="http://www.w3.org/2000/svg" xmlns:xlink="http://www.w3.org/1999/xlink" viewBox="0 0 400 499.37"><defs><style>.cls-1,.cls-15,.cls-17,.cls-3{fill:none;}.cls-2{fill:#343841;}.cls-10,.cls-15,.cls-17,.cls-3{stroke-miterlimit:10;}.cls-3{stroke-width:1.35px;opacity:0.4;stroke:url(#linear-gradient);}.cls-15,.cls-17,.cls-4{opacity:0.53;}.cls-4{fill:url(#linear-gradient-2);}.cls-5{fill:url(#linear-gradient-3);}.cls-6{fill:url(#linear-gradient-4);}.cls-7{fill:url(#radial-gradient);}.cls-8{clip-path:url(#clip-path);}.cls-9{fill:url(#linear-gradient-5);}.cls-10{fill:url(#linear-gradient-6);stroke:url(#linear-gradient-7);}.cls-11{fill:url(#linear-gradient-8);}.cls-12{fill:url(#linear-gradient-9);}.cls-13{fill:url(#linear-gradient-10);}.cls-14{fill:url(#linear-gradient-11);}.cls-15{stroke:url(#linear-gradient-12);}.cls-16{opacity:0.85;fill:url(#linear-gradient-13);}.cls-17{stroke:url(#linear-gradient-14);}.cls-18{fill:url(#radial-gradient-2);}.cls-19{fill:url(#radial-gradient-3);}.cls-20{fill:url(#radial-gradient-4);}.cls-21,.cls-22{fill:#fff;}.cls-22{font-size:12.58px;font-family:MyriadPro-Regular, Myriad Pro;}</style><linearGradient id="linear-gradient" x1="197.79" y1="487.04" x2="197.79" y2="447.45" gradientUnits="userSpaceOnUse"><stop offset="0" stop-color="#fff" stop-opacity="0.1"/><stop offset="1" stop-color="#fff" stop-opacity="0.6"/></linearGradient><linearGradient id="linear-gradient-2" x1="112.05" y1="466.65" x2="283.53" y2="466.65" gradientUnits="userSpaceOnUse"><stop offset="0" stop-color="#fff" stop-opacity="0.4"/><stop offset="0.53" stop-color="#fff" stop-opacity="0.7"/><stop offset="1" stop-color="#fff" stop-opacity="0.4"/></linearGradient><linearGradient id="linear-gradient-3" x1="193.46" y1="220.22" x2="201.6" y2="220.22" gradientUnits="userSpaceOnUse"><stop offset="0" stop-color="#593021"/><stop offset="0" stop-color="#7a4a3d"/><stop offset="0" stop-color="#231f20"/><stop offset="0.67" stop-color="#6d6e71"/><stop offset="1" stop-color="#6d6e71"/></linearGradient><linearGradient id="linear-gradient-4" x1="166.92" y1="188.99" x2="229.42" y2="188.99" gradientUnits="userSpaceOnUse"><stop offset="0" stop-color="#593021"/><stop offset="0.3" stop-color="#7a4a3d"/><stop offset="0.49" stop-color="#562e24"/><stop offset="0.75" stop-color="#35190f"/><stop offset="0.89" stop-color="#764b3d"/><stop offset="1" stop-color="#613121"/></linearGradient><radialGradient id="radial-gradient" cx="-1190.41" cy="167.89" r="29.98" gradientTransform="translate(1847.55 76.01) scale(1.39 0.55)" gradientUnits="userSpaceOnUse"><stop offset="0" stop-color="#593021"/><stop offset="0" stop-color="#7a4a3d"/><stop offset="0" stop-color="#562e24"/><stop offset="0" stop-color="#68382a"/><stop offset="1" stop-color="#35190f"/></radialGradient><clipPath id="clip-path"><rect class="cls-1" x="183.69" y="50.2" width="27.68" height="117.92"/></clipPath><linearGradient id="linear-gradient-5" x1="193.57" y1="255.64" x2="201.7" y2="255.64" xlink:href="#linear-gradient-3"/><linearGradient id="linear-gradient-6" x1="187.21" y1="410.92" x2="207.85" y2="410.92" gradientUnits="userSpaceOnUse"><stop offset="0" stop-color="#593021"/><stop offset="0" stop-color="#7a4a3d"/><stop offset="0" stop-color="#231f20"/><stop offset="0.6" stop-color="#58595b"/><stop offset="1" stop-color="#6d6e71"/></linearGradient><linearGradient id="linear-gradient-7" x1="186.71" y1="410.92" x2="208.35" y2="410.92" xlink:href="#linear-gradient-3"/><linearGradient id="linear-gradient-8" x1="102.77" y1="339.54" x2="294.86" y2="339.54" gradientUnits="userSpaceOnUse"><stop offset="0" stop-color="#fff" stop-opacity="0.5"/><stop offset="0.5" stop-color="#fff" stop-opacity="0.2"/><stop offset="1" stop-color="#fff" stop-opacity="0.4"/></linearGradient><linearGradient id="linear-gradient-9" x1="198.65" y1="463.92" x2="197.26" y2="185.84" gradientUnits="userSpaceOnUse"><stop offset="0.02" stop-color="#e9eb9e" stop-opacity="0.9"/><stop offset="0.44" stop-color="#e9eb9e" stop-opacity="0.6"/><stop offset="1" stop-color="#eff2c3" stop-opacity="0.4"/></linearGradient><linearGradient id="linear-gradient-10" x1="122.55" y1="327.54" x2="191.45" y2="345.27" gradientUnits="userSpaceOnUse"><stop offset="0.16" stop-color="#fff" stop-opacity="0.4"/><stop offset="0.42" stop-color="#fff" stop-opacity="0"/></linearGradient><linearGradient id="linear-gradient-11" x1="-14113.99" y1="381.55" x2="-14061.8" y2="394.98" gradientTransform="matrix(-1, 0, 0, 1, -13825.48, 0.33)" xlink:href="#linear-gradient-10"/><linearGradient id="linear-gradient-12" x1="102.27" y1="339.54" x2="295.36" y2="339.54" gradientUnits="userSpaceOnUse"><stop offset="0" stop-color="#fff" stop-opacity="0.4"/><stop offset="0.2" stop-color="#fff" stop-opacity="0.5"/><stop offset="0.44" stop-color="#fff" stop-opacity="0.62"/><stop offset="0.67" stop-color="#fff" stop-opacity="0.7"/><stop offset="0.92" stop-color="#fff" stop-opacity="0.4"/><stop offset="1" stop-color="#fff" stop-opacity="0.4"/></linearGradient><linearGradient id="linear-gradient-13" x1="161.75" y1="182.47" x2="235.88" y2="182.47" gradientUnits="userSpaceOnUse"><stop offset="0" stop-color="#fff" stop-opacity="0.8"/><stop offset="0.2" stop-color="#fff" stop-opacity="0.9"/><stop offset="0.44" stop-color="#fff" stop-opacity="0.62"/><stop offset="0.67" stop-color="#fff" stop-opacity="0.7"/><stop offset="0.92" stop-color="#fff" stop-opacity="0.4"/><stop offset="1" stop-color="#fff" stop-opacity="0.8"/></linearGradient><linearGradient id="linear-gradient-14" x1="161.25" y1="182.47" x2="236.38" y2="182.47" xlink:href="#linear-gradient-12"/><radialGradient id="radial-gradient-2" cx="-3113.36" cy="-64.71" r="14.07" gradientTransform="translate(6074.29 208.7) scale(1.88 0.34)" gradientUnits="userSpaceOnUse"><stop offset="0" stop-color="#fff" stop-opacity="0.4"/><stop offset="0" stop-color="#fff" stop-opacity="0.6"/><stop offset="0.79" stop-color="#fff" stop-opacity="0"/></radialGradient><radialGradient id="radial-gradient-3" cx="-3889.97" cy="-580.49" r="15.45" gradientTransform="matrix(2.35, -0.07, 0.02, 0.65, 9351.95, 376.95)" gradientUnits="userSpaceOnUse"><stop offset="0.09" stop-color="#fff" stop-opacity="0.4"/><stop offset="0.79" stop-color="#fff" stop-opacity="0"/></radialGradient><radialGradient id="radial-gradient-4" cx="231.2" cy="108.56" r="64.92" gradientTransform="matrix(0.31, -1.11, 0.09, 0.04, 78.42, 606.41)" gradientUnits="userSpaceOnUse"><stop offset="0.06" stop-color="#fff" stop-opacity="0.4"/><stop offset="0.79" stop-color="#fff" stop-opacity="0"/></radialGradient></defs><title>Artboard 5 copy 15</title><rect class="cls-2" x="-0.8" y="1.67" width="404.72" height="498.92"/><ellipse class="cls-3" cx="197.79" cy="467.25" rx="85.74" ry="19.12"/><ellipse class="cls-4" cx="197.79" cy="466.65" rx="85.74" ry="19.72"/><rect class="cls-5" x="193.46" y="60.62" width="8.13" height="319.2" rx="3.53"/><path class="cls-6" d="M229.42,167.37h-62.5L170,206.09a.79.79,0,0,0-.11.35c0,2.3,12.63,4.16,28.21,4.16s28.21-1.86,28.21-4.16h0Z"/><ellipse class="cls-7" cx="198.17" cy="167.89" rx="31.25" ry="4.84"/><g class="cls-8"><rect class="cls-9" x="193.57" y="60.62" width="8.13" height="390.03" rx="3.53"/></g><path class="cls-10" d="M207.85,402.35a6.46,6.46,0,0,0-1.67-4.27,6.29,6.29,0,0,0,0-8.57,6.69,6.69,0,0,0,1.58-4.29c0-4-3.6-7.33-8-7.35.05.22.09.43.14.65,4.09.1,7.38,3.06,7.38,6.7a6.13,6.13,0,0,1-1.44,3.9q-.32-.3-.66-.57c-1.28-1.34-5.09-2.06-8.72-2.06-4.45,0-9.18,1.07-9.18,3.07s4.73,3.07,9.18,3.07c3.62,0,7.43-.72,8.72-2.06a8,8,0,0,0,.67-.63,5.87,5.87,0,0,1,1.55,3.88,5.79,5.79,0,0,1-1.54,3.86,8,8,0,0,0-.93-.8v0c-1.48-1.2-5.05-1.84-8.47-1.84-4.45,0-9.18,1.07-9.18,3.07s4.73,3.06,9.18,3.06c3.73,0,7.65-.76,8.81-2.18a7.45,7.45,0,0,0,.6-.52,5.87,5.87,0,0,1,1.53,3.86,5.78,5.78,0,0,1-1.55,3.88,7.32,7.32,0,0,0-.67-.58c-1.29-1.35-5.1-2.06-8.72-2.06-4.45,0-9.18,1.07-9.18,3.07s4.73,3.06,9.18,3.06c3.73,0,7.65-.76,8.81-2.18a5.71,5.71,0,0,0,.58-.51,5.89,5.89,0,0,1,1.55,3.88,5.79,5.79,0,0,1-1.54,3.87,7.13,7.13,0,0,0-.93-.8h0c-1.48-1.2-5.05-1.83-8.47-1.83-4.45,0-9.18,1.07-9.18,3.06s4.73,3.07,9.18,3.07c3.73,0,7.65-.76,8.81-2.18a7.57,7.57,0,0,0,.6-.53,5.89,5.89,0,0,1,1.53,3.87,5.79,5.79,0,0,1-1.58,3.91c-.17-.16-.34-.32-.53-.47-1.14-1.44-5.08-2.2-8.83-2.2-4.45,0-9.18,1.07-9.18,3.06s4.73,3.07,9.18,3.07c3.73,0,7.65-.76,8.81-2.18a5.11,5.11,0,0,0,.55-.48,5.86,5.86,0,0,1,1.58,3.91,5.79,5.79,0,0,1-1.54,3.86,8,8,0,0,0-.93-.8v0c-1.48-1.2-5.05-1.84-8.47-1.84-4.45,0-9.18,1.07-9.18,3.06s4.73,3.07,9.18,3.07c3.73,0,7.65-.76,8.81-2.18a7.45,7.45,0,0,0,.6-.52,5.64,5.64,0,0,1-.27,8c-.26-1.88-4.83-2.89-9.14-2.89s-9.18,1.07-9.18,3.07,4.73,3.06,9.18,3.06c3.73,0,7.65-.76,8.81-2.18a6.62,6.62,0,0,0,2.65-5.19,6.46,6.46,0,0,0-1.67-4.27,6.29,6.29,0,0,0,0-8.58,6.28,6.28,0,0,0,0-8.57,6.29,6.29,0,0,0,0-8.55A6.44,6.44,0,0,0,207.85,402.35Zm-20.11-12.79c0-1,3.29-2.42,8.65-2.42s8.65,1.41,8.65,2.42-3.29,2.41-8.65,2.41S187.74,390.57,187.74,389.56Zm0,8.57c0-1,3.29-2.42,8.65-2.42s8.65,1.41,8.65,2.42a.69.69,0,0,1-.18.42,8,8,0,0,1-1.9,1.08,20.74,20.74,0,0,1-6.57.91C191,400.54,187.74,399.13,187.74,398.13Zm0,42.78c0-1,3.29-2.42,8.65-2.42s8.65,1.41,8.65,2.42a.69.69,0,0,1-.18.42,8,8,0,0,1-1.9,1.08,20.74,20.74,0,0,1-6.57.91C191,443.32,187.74,441.91,187.74,440.91Zm0-8.54c0-1,3.29-2.41,8.65-2.41s8.65,1.41,8.65,2.41a.69.69,0,0,1-.18.43,8,8,0,0,1-1.9,1.08,20.74,20.74,0,0,1-6.57.91C191,434.79,187.74,433.38,187.74,432.37Zm0-8.62c0-1,3.29-2.41,8.65-2.41,4.46,0,7.48,1,8.37,1.88h0l.08.07a.76.76,0,0,1,.21.45.65.65,0,0,1-.18.42,7.71,7.71,0,0,1-1.9,1.09,20.74,20.74,0,0,1-6.57.91C191,426.17,187.74,424.76,187.74,423.75Zm0-8.53c0-1,3.29-2.41,8.65-2.41s8.65,1.4,8.65,2.41a.65.65,0,0,1-.18.42,7.71,7.71,0,0,1-1.9,1.09,20.74,20.74,0,0,1-6.57.91C191,417.64,187.74,416.23,187.74,415.22Zm0-8.56c0-1,3.29-2.42,8.65-2.42s8.65,1.41,8.65,2.42a.69.69,0,0,1-.18.42,8,8,0,0,1-1.9,1.08,20.74,20.74,0,0,1-6.57.91C191,409.07,187.74,407.66,187.74,406.66Z"/><path class="cls-11" d="M294.67,452.83a27,27,0,0,0-1.46-8.85l-58.1-168.64a66.51,66.51,0,0,1-3.63-21.61V188.22H166.13v65.51a66.25,66.25,0,0,1-3.64,21.61L104.58,443.47a29,29,0,0,0-1.62,9.77,14.29,14.29,0,0,0-.18,1.73c-1,28.21,43,35.89,96,35.89s96-7.68,96-35.89A12.8,12.8,0,0,0,294.67,452.83Z"/><path class="cls-12" d="M289,448.57a27.14,27.14,0,0,0-1.38-8.66L232.81,274.75a67.22,67.22,0,0,1-3.42-21.17V189.42H167.78v64.16a67.23,67.23,0,0,1-3.43,21.17l-54.6,164.66a29.54,29.54,0,0,0-1.53,9.57,16,16,0,0,0-.16,1.7c-.92,27.63,22.19,34.52,90.54,35.14,57.81.52,90.54-7.51,90.54-35.14A13.55,13.55,0,0,0,289,448.57Z"/><path class="cls-13" d="M116.34,455a14.27,14.27,0,0,1,.17-1.73,29.24,29.24,0,0,1,1.62-9.77l57.92-168.13a66.24,66.24,0,0,0,3.63-21.61V188.22H166.13v65.51a66.25,66.25,0,0,1-3.64,21.61L104.58,443.47a29,29,0,0,0-1.62,9.77,14.29,14.29,0,0,0-.18,1.73c-1,28.21,43,35.89,96,35.89q3.42,0,6.78-.05C155.64,490.16,115.41,482,116.34,455Z"/><path class="cls-14" d="M294.19,453.51a29.23,29.23,0,0,0-1.61-9.77L246.82,310.92q-8.58-5.07-17.1-10.29L279,443.74a29.24,29.24,0,0,1,1.62,9.77,14.27,14.27,0,0,1,.17,1.73c.93,27-39.3,35.19-89.26,35.84q3.36,0,6.78.05c53,0,97-7.68,96-35.89A12.53,12.53,0,0,0,294.19,453.51Z"/><path class="cls-15" d="M294.67,452.83a27,27,0,0,0-1.46-8.85l-58.1-168.64a66.51,66.51,0,0,1-3.63-21.61V188.22H166.13v65.51a66.25,66.25,0,0,1-3.64,21.61L104.58,443.47a29,29,0,0,0-1.62,9.77,14.29,14.29,0,0,0-.18,1.73c-1,28.21,43,35.89,96,35.89s96-7.68,96-35.89A12.8,12.8,0,0,0,294.67,452.83Z"/><rect class="cls-16" x="161.75" y="176.58" width="74.12" height="11.78" rx="4.89"/><rect class="cls-17" x="161.75" y="176.58" width="74.12" height="11.78" rx="4.89"/><ellipse class="cls-18" cx="201.93" cy="188.84" rx="26.73" ry="7.86"/><path class="cls-19" d="M226.3,257.45c.75,3.33-10.25,28.91-32.58,34.12-22.39,5.79-34.45-18.51-34.06-31.28-.75-13.38,10.25-2.62,32.58,1C214.64,265.55,226.69,253.52,226.3,257.45Z"/><path class="cls-20" d="M174,260.21,130.11,413.48s25.18,21.76,37.77,6,23.67-159.26,23.67-159.26Z"/><rect class="cls-21" x="187.8" y="418.29" width="18.69" height="0.66"/><rect class="cls-21" x="187.8" y="351.02" width="18.69" height="0.66"/><rect class="cls-21" x="187.8" y="439.99" width="18.69" height="0.66"/><rect class="cls-21" x="187.8" y="390.98" width="18.69" height="0.66"/><path class="cls-21" d="M213.51,361.14c0-.43,0-.79,0-1.14h.67l0,.68h0a1.43,1.43,0,0,1,1.32-.77,1.24,1.24,0,0,1,1.19.84h0a1.71,1.71,0,0,1,.47-.55,1.44,1.44,0,0,1,.93-.29c.56,0,1.38.36,1.38,1.82v2.48h-.74v-2.38c0-.81-.3-1.3-.92-1.3a1,1,0,0,0-.9.7,1.08,1.08,0,0,0-.06.38v2.6h-.75v-2.52c0-.67-.3-1.16-.88-1.16a1.05,1.05,0,0,0-1,.77,1.1,1.1,0,0,0-.06.37v2.54h-.75Z"/><path class="cls-21" d="M220.8,358.35h.76v5.23h2.5v.63H220.8Z"/><text class="cls-22" transform="translate(211.96 444.02)">100</text><text class="cls-22" transform="translate(211.96 422.32)">150</text><text class="cls-22" transform="translate(211.96 395)">200</text><text class="cls-22" transform="translate(211.96 355.05)">250</text></svg>