<svg id="Layer_1" data-name="Layer 1" xmlns="http://www.w3.org/2000/svg" xmlns:xlink="http://www.w3.org/1999/xlink" viewBox="0 0 400 499.37"><defs><style>.cls-1,.cls-14,.cls-16,.cls-3{fill:none;}.cls-2{fill:#343841;}.cls-10,.cls-14,.cls-16,.cls-3{stroke-miterlimit:10;}.cls-3{stroke-width:1.35px;opacity:0.4;stroke:url(#linear-gradient);}.cls-14,.cls-16,.cls-4{opacity:0.53;}.cls-4{fill:url(#linear-gradient-2);}.cls-5{fill:url(#linear-gradient-3);}.cls-6{fill:url(#linear-gradient-4);}.cls-7{fill:url(#radial-gradient);}.cls-8{clip-path:url(#clip-path);}.cls-9{fill:url(#linear-gradient-5);}.cls-10{fill:url(#linear-gradient-6);stroke:url(#linear-gradient-7);}.cls-11{fill:url(#linear-gradient-8);}.cls-12{fill:url(#linear-gradient-9);}.cls-13{fill:url(#linear-gradient-10);}.cls-14{stroke:url(#linear-gradient-11);}.cls-15{opacity:0.85;fill:url(#linear-gradient-12);}.cls-16{stroke:url(#linear-gradient-13);}.cls-17{fill:url(#radial-gradient-2);}.cls-18{fill:url(#radial-gradient-3);}.cls-19{fill:url(#radial-gradient-4);}.cls-20,.cls-21{fill:#fff;}.cls-21{font-size:12.58px;font-family:MyriadPro-Regular, Myriad Pro;}</style><linearGradient id="linear-gradient" x1="209.52" y1="485.01" x2="209.52" y2="445.42" gradientUnits="userSpaceOnUse"><stop offset="0" stop-color="#fff" stop-opacity="0.1"/><stop offset="1" stop-color="#fff" stop-opacity="0.6"/></linearGradient><linearGradient id="linear-gradient-2" x1="123.78" y1="464.62" x2="295.26" y2="464.62" gradientUnits="userSpaceOnUse"><stop offset="0" stop-color="#fff" stop-opacity="0.4"/><stop offset="0.53" stop-color="#fff" stop-opacity="0.7"/><stop offset="1" stop-color="#fff" stop-opacity="0.4"/></linearGradient><linearGradient id="linear-gradient-3" x1="204.81" y1="218.2" x2="212.95" y2="218.2" gradientUnits="userSpaceOnUse"><stop offset="0" stop-color="#593021"/><stop offset="0" stop-color="#7a4a3d"/><stop offset="0" stop-color="#231f20"/><stop offset="0.67" stop-color="#6d6e71"/><stop offset="1" stop-color="#6d6e71"/></linearGradient><linearGradient id="linear-gradient-4" x1="178.27" y1="186.96" x2="240.77" y2="186.96" gradientUnits="userSpaceOnUse"><stop offset="0" stop-color="#593021"/><stop offset="0.3" stop-color="#7a4a3d"/><stop offset="0.49" stop-color="#562e24"/><stop offset="0.75" stop-color="#35190f"/><stop offset="0.89" stop-color="#764b3d"/><stop offset="1" stop-color="#613121"/></linearGradient><radialGradient id="radial-gradient" cx="-1045.72" cy="165.87" r="29.98" gradientTransform="translate(1658.42 75.09) scale(1.39 0.55)" gradientUnits="userSpaceOnUse"><stop offset="0" stop-color="#593021"/><stop offset="0" stop-color="#7a4a3d"/><stop offset="0" stop-color="#562e24"/><stop offset="0" stop-color="#68382a"/><stop offset="1" stop-color="#35190f"/></radialGradient><clipPath id="clip-path"><rect class="cls-1" x="195.04" y="48.17" width="27.68" height="117.92"/></clipPath><linearGradient id="linear-gradient-5" x1="204.91" y1="253.61" x2="213.05" y2="253.61" xlink:href="#linear-gradient-3"/><linearGradient id="linear-gradient-6" x1="198.56" y1="408.89" x2="219.2" y2="408.89" gradientUnits="userSpaceOnUse"><stop offset="0" stop-color="#593021"/><stop offset="0" stop-color="#7a4a3d"/><stop offset="0" stop-color="#231f20"/><stop offset="0.6" stop-color="#58595b"/><stop offset="1" stop-color="#6d6e71"/></linearGradient><linearGradient id="linear-gradient-7" x1="198.06" y1="408.89" x2="219.7" y2="408.89" xlink:href="#linear-gradient-3"/><linearGradient id="linear-gradient-8" x1="114.58" y1="337.75" x2="306.67" y2="337.75" gradientUnits="userSpaceOnUse"><stop offset="0" stop-color="#fff" stop-opacity="0.5"/><stop offset="0.5" stop-color="#fff" stop-opacity="0.2"/><stop offset="1" stop-color="#fff" stop-opacity="0.4"/></linearGradient><linearGradient id="linear-gradient-9" x1="134.36" y1="325.75" x2="203.25" y2="343.48" gradientUnits="userSpaceOnUse"><stop offset="0.16" stop-color="#fff" stop-opacity="0.4"/><stop offset="0.42" stop-color="#fff" stop-opacity="0"/></linearGradient><linearGradient id="linear-gradient-10" x1="-13144.7" y1="379.76" x2="-13092.51" y2="393.19" gradientTransform="matrix(-1, 0, 0, 1, -12844.38, 0.33)" xlink:href="#linear-gradient-9"/><linearGradient id="linear-gradient-11" x1="114.08" y1="337.75" x2="307.17" y2="337.75" gradientUnits="userSpaceOnUse"><stop offset="0" stop-color="#fff" stop-opacity="0.4"/><stop offset="0.2" stop-color="#fff" stop-opacity="0.5"/><stop offset="0.44" stop-color="#fff" stop-opacity="0.62"/><stop offset="0.67" stop-color="#fff" stop-opacity="0.7"/><stop offset="0.92" stop-color="#fff" stop-opacity="0.4"/><stop offset="1" stop-color="#fff" stop-opacity="0.4"/></linearGradient><linearGradient id="linear-gradient-12" x1="173.56" y1="180.68" x2="247.68" y2="180.68" gradientUnits="userSpaceOnUse"><stop offset="0" stop-color="#fff" stop-opacity="0.8"/><stop offset="0.2" stop-color="#fff" stop-opacity="0.9"/><stop offset="0.44" stop-color="#fff" stop-opacity="0.62"/><stop offset="0.67" stop-color="#fff" stop-opacity="0.7"/><stop offset="0.92" stop-color="#fff" stop-opacity="0.4"/><stop offset="1" stop-color="#fff" stop-opacity="0.8"/></linearGradient><linearGradient id="linear-gradient-13" x1="173.06" y1="180.68" x2="248.18" y2="180.68" xlink:href="#linear-gradient-11"/><radialGradient id="radial-gradient-2" cx="-2876.79" cy="-66.52" r="14.07" gradientTransform="translate(5640.17 207.52) scale(1.88 0.34)" gradientUnits="userSpaceOnUse"><stop offset="0" stop-color="#fff" stop-opacity="0.4"/><stop offset="0" stop-color="#fff" stop-opacity="0.6"/><stop offset="0.79" stop-color="#fff" stop-opacity="0"/></radialGradient><radialGradient id="radial-gradient-3" cx="-3602.81" cy="-591.93" r="15.45" gradientTransform="matrix(2.35, -0.07, 0.02, 0.65, 8688.95, 402.37)" gradientUnits="userSpaceOnUse"><stop offset="0.09" stop-color="#fff" stop-opacity="0.4"/><stop offset="0.79" stop-color="#fff" stop-opacity="0"/></radialGradient><radialGradient id="radial-gradient-4" cx="238.35" cy="106.74" r="64.92" gradientTransform="matrix(0.31, -1.11, 0.09, 0.04, 88.19, 612.6)" gradientUnits="userSpaceOnUse"><stop offset="0.06" stop-color="#fff" stop-opacity="0.4"/><stop offset="0.79" stop-color="#fff" stop-opacity="0"/></radialGradient></defs><title>Artboard 5 copy 14</title><rect class="cls-2" x="-0.8" y="-4.41" width="404.72" height="505"/><ellipse class="cls-3" cx="209.52" cy="465.22" rx="85.74" ry="19.12"/><ellipse class="cls-4" cx="209.52" cy="464.62" rx="85.74" ry="19.72"/><rect class="cls-5" x="204.81" y="58.6" width="8.13" height="319.2" rx="3.53"/><path class="cls-6" d="M240.77,165.35h-62.5l3.08,38.71a.81.81,0,0,0-.12.35c0,2.3,12.63,4.16,28.21,4.16s28.22-1.86,28.22-4.16h0Z"/><ellipse class="cls-7" cx="209.52" cy="165.87" rx="31.25" ry="4.84"/><g class="cls-8"><rect class="cls-9" x="204.91" y="58.6" width="8.13" height="390.03" rx="3.53"/></g><path class="cls-10" d="M219.2,400.32a6.48,6.48,0,0,0-1.67-4.27,6.28,6.28,0,0,0,0-8.56,6.71,6.71,0,0,0,1.58-4.3c0-4-3.6-7.33-8-7.35,0,.22.09.44.14.66,4.09.09,7.38,3.05,7.38,6.69a6.08,6.08,0,0,1-1.45,3.9,7.16,7.16,0,0,0-.65-.57c-1.28-1.34-5.1-2.06-8.72-2.06-4.45,0-9.18,1.08-9.18,3.07s4.73,3.07,9.18,3.07c3.62,0,7.43-.72,8.71-2.06a8.18,8.18,0,0,0,.68-.63,5.86,5.86,0,0,1,1.54,3.88,5.76,5.76,0,0,1-1.53,3.86,7.91,7.91,0,0,0-.93-.79h0c-1.47-1.2-5-1.84-8.46-1.84-4.45,0-9.18,1.07-9.18,3.07s4.73,3.06,9.18,3.06c3.73,0,7.65-.76,8.81-2.18a7.45,7.45,0,0,0,.6-.52,5.91,5.91,0,0,1,1.52,3.86,5.77,5.77,0,0,1-1.54,3.88,7.68,7.68,0,0,0-.68-.58c-1.28-1.34-5.09-2.06-8.71-2.06-4.45,0-9.18,1.08-9.18,3.07s4.73,3.07,9.18,3.07c3.73,0,7.65-.76,8.81-2.19.2-.16.4-.33.58-.5a5.86,5.86,0,0,1,1.54,3.88,5.78,5.78,0,0,1-1.53,3.86,8,8,0,0,0-.93-.8v0c-1.47-1.2-5-1.84-8.46-1.84-4.45,0-9.18,1.07-9.18,3.06s4.73,3.07,9.18,3.07c3.73,0,7.65-.76,8.81-2.18a7.45,7.45,0,0,0,.6-.52,5.91,5.91,0,0,1,1.52,3.86,5.76,5.76,0,0,1-1.57,3.91c-.17-.16-.34-.32-.53-.47-1.14-1.43-5.08-2.2-8.83-2.2-4.45,0-9.18,1.07-9.18,3.07s4.73,3.06,9.18,3.06c3.73,0,7.65-.76,8.81-2.18a6.3,6.3,0,0,0,.55-.48,5.92,5.92,0,0,1,1.57,3.91,5.76,5.76,0,0,1-1.53,3.86,7.91,7.91,0,0,0-.93-.79h0c-1.47-1.2-5-1.84-8.46-1.84-4.45,0-9.18,1.07-9.18,3.07s4.73,3.06,9.18,3.06c3.73,0,7.65-.76,8.81-2.18a7.45,7.45,0,0,0,.6-.52,5.91,5.91,0,0,1,1.52,3.86,5.83,5.83,0,0,1-1.79,4.14c-.27-1.89-4.83-2.9-9.14-2.9s-9.18,1.08-9.18,3.07,4.73,3.07,9.18,3.07c3.73,0,7.65-.76,8.81-2.19a6.63,6.63,0,0,0,2.65-5.19,6.48,6.48,0,0,0-1.67-4.27,6.28,6.28,0,0,0,0-8.57,6.29,6.29,0,0,0,0-8.58,6.28,6.28,0,0,0,0-8.55A6.4,6.4,0,0,0,219.2,400.32Zm-20.12-12.79c0-1,3.29-2.42,8.66-2.42s8.65,1.41,8.65,2.42S213.1,390,207.74,390,199.08,388.54,199.08,387.53Zm0,8.57c0-1,3.29-2.42,8.66-2.42s8.65,1.41,8.65,2.42a.76.76,0,0,1-.18.42,7.68,7.68,0,0,1-1.9,1.08,20.74,20.74,0,0,1-6.57.91C202.37,398.51,199.08,397.11,199.08,396.1Zm0,42.78c0-1,3.29-2.42,8.66-2.42s8.65,1.41,8.65,2.42a.76.76,0,0,1-.18.42,7.68,7.68,0,0,1-1.9,1.08,20.74,20.74,0,0,1-6.57.91C202.37,441.29,199.08,439.89,199.08,438.88Zm0-8.53c0-1,3.29-2.42,8.66-2.42s8.65,1.41,8.65,2.42a.76.76,0,0,1-.18.42,7.68,7.68,0,0,1-1.9,1.08,20.74,20.74,0,0,1-6.57.91C202.37,432.76,199.08,431.36,199.08,430.35Zm0-8.62c0-1,3.29-2.42,8.66-2.42,4.45,0,7.47,1,8.37,1.88v0l.08.06a.59.59,0,0,1,0,.88,8,8,0,0,1-1.9,1.08,20.74,20.74,0,0,1-6.57.91C202.37,424.14,199.08,422.73,199.08,421.73Zm0-8.54c0-1,3.29-2.41,8.66-2.41s8.65,1.41,8.65,2.41a.76.76,0,0,1-.18.43,8,8,0,0,1-1.9,1.08,20.74,20.74,0,0,1-6.57.91C202.37,415.61,199.08,414.2,199.08,413.19Zm0-8.56c0-1,3.29-2.42,8.66-2.42s8.65,1.41,8.65,2.42a.76.76,0,0,1-.18.42,7.68,7.68,0,0,1-1.9,1.08,20.74,20.74,0,0,1-6.57.91C202.37,407,199.08,405.64,199.08,404.63Z"/><path class="cls-11" d="M306.48,451a27,27,0,0,0-1.46-8.85l-58.1-168.64a66.24,66.24,0,0,1-3.63-21.61V186.43H177.94v65.51a66.25,66.25,0,0,1-3.64,21.61L116.38,441.68a29.23,29.23,0,0,0-1.61,9.77,12.67,12.67,0,0,0-.18,1.74c-1,28.2,43,35.88,96,35.88s96-7.68,96-35.88A12.83,12.83,0,0,0,306.48,451Z"/><path class="cls-12" d="M128.15,453.19a14.44,14.44,0,0,1,.17-1.74,29.24,29.24,0,0,1,1.62-9.77l57.92-168.13a66.24,66.24,0,0,0,3.63-21.61V186.43H177.94v65.51a66.25,66.25,0,0,1-3.64,21.61L116.38,441.68a29.23,29.23,0,0,0-1.61,9.77,12.67,12.67,0,0,0-.18,1.74c-1,28.2,43,35.88,96,35.88q3.42,0,6.78-.05C167.45,488.37,127.22,480.18,128.15,453.19Z"/><path class="cls-13" d="M306,451.72a29,29,0,0,0-1.62-9.77L258.63,309.13q-8.59-5.07-17.1-10.29L290.83,442a29.24,29.24,0,0,1,1.62,9.77,14.44,14.44,0,0,1,.17,1.74c.93,27-39.3,35.18-89.26,35.83q3.36,0,6.78,0c53,0,97-7.68,96-35.88A14.45,14.45,0,0,0,306,451.72Z"/><path class="cls-14" d="M306.48,451a27,27,0,0,0-1.46-8.85l-58.1-168.64a66.24,66.24,0,0,1-3.63-21.61V186.43H177.94v65.51a66.25,66.25,0,0,1-3.64,21.61L116.38,441.68a29.23,29.23,0,0,0-1.61,9.77,12.67,12.67,0,0,0-.18,1.74c-1,28.2,43,35.88,96,35.88s96-7.68,96-35.88A12.83,12.83,0,0,0,306.48,451Z"/><rect class="cls-15" x="173.56" y="174.79" width="74.12" height="11.78" rx="4.89"/><rect class="cls-16" x="173.56" y="174.79" width="74.12" height="11.78" rx="4.89"/><ellipse class="cls-17" cx="213.74" cy="187.05" rx="26.73" ry="7.86"/><path class="cls-18" d="M238.11,255.66c.75,3.33-10.25,28.91-32.58,34.12-22.39,5.8-34.45-18.51-34.06-31.28-.75-13.38,10.25-2.62,32.58,1C226.45,263.76,238.5,251.73,238.11,255.66Z"/><path class="cls-19" d="M185.75,258.42,141.92,411.69s25.18,21.77,37.77,6,23.67-159.26,23.67-159.26Z"/><rect class="cls-20" x="198.26" y="416.97" width="18.69" height="0.66"/><rect class="cls-20" x="198.26" y="349.7" width="18.69" height="0.66"/><rect class="cls-20" x="198.26" y="438.66" width="18.69" height="0.66"/><rect class="cls-20" x="198.26" y="389.65" width="18.69" height="0.66"/><path class="cls-20" d="M224,359.82c0-.44,0-.79,0-1.14h.67l0,.68h0a1.46,1.46,0,0,1,1.32-.78,1.26,1.26,0,0,1,1.2.85h0a1.73,1.73,0,0,1,.47-.55,1.46,1.46,0,0,1,.93-.3c.56,0,1.39.37,1.39,1.83v2.48h-.75V360.5c0-.8-.3-1.29-.91-1.29a1,1,0,0,0-.91.69,1.52,1.52,0,0,0-.06.39v2.6h-.75v-2.52c0-.67-.29-1.16-.88-1.16a1.05,1.05,0,0,0-.95.76,1.21,1.21,0,0,0-.06.38v2.54H224Z"/><path class="cls-20" d="M231.25,357H232v5.23h2.51v.64h-3.27Z"/><text class="cls-21" transform="translate(222.42 442.69)">100</text><text class="cls-21" transform="translate(222.42 420.99)">150</text><text class="cls-21" transform="translate(222.42 393.68)">200</text><text class="cls-21" transform="translate(222.42 353.72)">250</text></svg>