<svg id="Layer_1" data-name="Layer 1" xmlns="http://www.w3.org/2000/svg" xmlns:xlink="http://www.w3.org/1999/xlink" viewBox="0 0 400 509.51"><defs><style>.cls-1,.cls-15,.cls-21,.cls-23,.cls-8{fill:none;}.cls-2{fill:#343841;}.cls-3{fill:url(#linear-gradient);}.cls-4{fill:url(#linear-gradient-2);}.cls-5{fill:url(#radial-gradient);}.cls-6{fill:url(#radial-gradient-2);}.cls-7{fill:url(#linear-gradient-3);}.cls-15,.cls-21,.cls-23,.cls-8{stroke-miterlimit:10;}.cls-8{stroke-width:0.5px;stroke:url(#linear-gradient-4);}.cls-9{opacity:0.25;fill:url(#radial-gradient-3);}.cls-10{clip-path:url(#clip-path);}.cls-11{fill:url(#linear-gradient-5);}.cls-12{fill:#dcddda;}.cls-13{fill:#fdfffd;}.cls-14{fill:#bebfbe;}.cls-15{stroke-width:1.35px;opacity:0.4;stroke:url(#linear-gradient-6);}.cls-16,.cls-21,.cls-23{opacity:0.53;}.cls-16{fill:url(#linear-gradient-7);}.cls-17{fill:url(#linear-gradient-8);}.cls-18{fill:url(#linear-gradient-9);}.cls-19{fill:url(#linear-gradient-10);}.cls-20{fill:url(#linear-gradient-11);}.cls-21{stroke:url(#linear-gradient-12);}.cls-22{opacity:0.85;fill:url(#linear-gradient-13);}.cls-23{stroke:url(#linear-gradient-14);}.cls-24{fill:url(#radial-gradient-4);}.cls-25{fill:url(#radial-gradient-5);}.cls-26{fill:url(#radial-gradient-6);}.cls-27,.cls-28{fill:#fff;}.cls-28{font-size:12.58px;font-family:MyriadPro-Regular, Myriad Pro;}</style><linearGradient id="linear-gradient" x1="193.46" y1="258.48" x2="201.36" y2="258.48" gradientUnits="userSpaceOnUse"><stop offset="0" stop-color="#593021"/><stop offset="0" stop-color="#7a4a3d"/><stop offset="0" stop-color="#231f20"/><stop offset="0.67" stop-color="#6d6e71"/><stop offset="1" stop-color="#6d6e71"/></linearGradient><linearGradient id="linear-gradient-2" x1="167.67" y1="193.72" x2="228.4" y2="193.72" gradientUnits="userSpaceOnUse"><stop offset="0" stop-color="#593021"/><stop offset="0.3" stop-color="#7a4a3d"/><stop offset="0.49" stop-color="#562e24"/><stop offset="0.75" stop-color="#35190f"/><stop offset="0.89" stop-color="#764b3d"/><stop offset="1" stop-color="#613121"/></linearGradient><radialGradient id="radial-gradient" cx="-770.98" cy="173.22" r="29.13" gradientTransform="translate(1266.27 78.42) scale(1.39 0.55)" gradientUnits="userSpaceOnUse"><stop offset="0" stop-color="#593021"/><stop offset="0" stop-color="#7a4a3d"/><stop offset="0" stop-color="#562e24"/><stop offset="0" stop-color="#68382a"/><stop offset="1" stop-color="#35190f"/></radialGradient><radialGradient id="radial-gradient-2" cx="223.26" cy="451.04" r="24.01" gradientUnits="userSpaceOnUse"><stop offset="0" stop-color="#593021"/><stop offset="0" stop-color="#7a4a3d"/><stop offset="0" stop-color="#231f20"/><stop offset="0.32" stop-color="#414042"/><stop offset="0.76" stop-color="#666668"/></radialGradient><linearGradient id="linear-gradient-3" x1="191" y1="440.43" x2="255.53" y2="440.43" xlink:href="#linear-gradient"/><linearGradient id="linear-gradient-4" x1="190.75" y1="440.43" x2="255.78" y2="440.43" gradientUnits="userSpaceOnUse"><stop offset="0" stop-color="#593021"/><stop offset="0" stop-color="#7a4a3d"/><stop offset="0" stop-color="#939598"/><stop offset="0.67" stop-color="#58595b"/><stop offset="1" stop-color="#6d6e71"/></linearGradient><radialGradient id="radial-gradient-3" cx="-983.72" cy="-100.39" r="10.64" gradientTransform="translate(1581.55 516.45) scale(1.39 0.76)" gradientUnits="userSpaceOnUse"><stop offset="0" stop-color="#fff" stop-opacity="0.4"/><stop offset="0" stop-color="#fff" stop-opacity="0.6"/><stop offset="0.71" stop-color="#fff" stop-opacity="0"/></radialGradient><clipPath id="clip-path"><rect class="cls-1" x="183.96" y="58.85" width="26.9" height="114.58"/></clipPath><linearGradient id="linear-gradient-5" x1="193.56" y1="258.48" x2="201.46" y2="258.48" xlink:href="#linear-gradient"/><linearGradient id="linear-gradient-6" x1="197.32" y1="495.69" x2="197.32" y2="456.1" gradientUnits="userSpaceOnUse"><stop offset="0" stop-color="#fff" stop-opacity="0.1"/><stop offset="1" stop-color="#fff" stop-opacity="0.6"/></linearGradient><linearGradient id="linear-gradient-7" x1="111.58" y1="475.29" x2="283.05" y2="475.29" gradientUnits="userSpaceOnUse"><stop offset="0" stop-color="#fff" stop-opacity="0.4"/><stop offset="0.53" stop-color="#fff" stop-opacity="0.7"/><stop offset="1" stop-color="#fff" stop-opacity="0.4"/></linearGradient><linearGradient id="linear-gradient-8" x1="102.37" y1="347.71" x2="294.47" y2="347.71" gradientUnits="userSpaceOnUse"><stop offset="0" stop-color="#fff" stop-opacity="0.5"/><stop offset="0.5" stop-color="#fff" stop-opacity="0.2"/><stop offset="1" stop-color="#fff" stop-opacity="0.4"/></linearGradient><linearGradient id="linear-gradient-9" x1="198.25" y1="472.1" x2="196.86" y2="194.02" gradientUnits="userSpaceOnUse"><stop offset="0.02" stop-color="#e9eb9e" stop-opacity="0.9"/><stop offset="0.44" stop-color="#e9eb9e" stop-opacity="0.6"/><stop offset="1" stop-color="#eff2c3" stop-opacity="0.4"/></linearGradient><linearGradient id="linear-gradient-10" x1="122.16" y1="335.72" x2="191.05" y2="353.44" gradientUnits="userSpaceOnUse"><stop offset="0.16" stop-color="#fff" stop-opacity="0.4"/><stop offset="0.42" stop-color="#fff" stop-opacity="0"/></linearGradient><linearGradient id="linear-gradient-11" x1="-11098.29" y1="389.73" x2="-11046.11" y2="403.15" gradientTransform="matrix(-1, 0, 0, 1, -10810.18, 0.33)" xlink:href="#linear-gradient-10"/><linearGradient id="linear-gradient-12" x1="101.87" y1="347.71" x2="294.97" y2="347.71" gradientUnits="userSpaceOnUse"><stop offset="0" stop-color="#fff" stop-opacity="0.4"/><stop offset="0.2" stop-color="#fff" stop-opacity="0.5"/><stop offset="0.44" stop-color="#fff" stop-opacity="0.62"/><stop offset="0.67" stop-color="#fff" stop-opacity="0.7"/><stop offset="0.92" stop-color="#fff" stop-opacity="0.4"/><stop offset="1" stop-color="#fff" stop-opacity="0.4"/></linearGradient><linearGradient id="linear-gradient-13" x1="161.36" y1="190.64" x2="235.48" y2="190.64" gradientUnits="userSpaceOnUse"><stop offset="0" stop-color="#fff" stop-opacity="0.8"/><stop offset="0.2" stop-color="#fff" stop-opacity="0.9"/><stop offset="0.44" stop-color="#fff" stop-opacity="0.62"/><stop offset="0.67" stop-color="#fff" stop-opacity="0.7"/><stop offset="0.92" stop-color="#fff" stop-opacity="0.4"/><stop offset="1" stop-color="#fff" stop-opacity="0.8"/></linearGradient><linearGradient id="linear-gradient-14" x1="160.86" y1="190.64" x2="235.98" y2="190.64" xlink:href="#linear-gradient-12"/><radialGradient id="radial-gradient-4" cx="-2405.75" cy="-56.54" r="14.07" gradientTransform="translate(4740.06 214.11) scale(1.88 0.34)" gradientUnits="userSpaceOnUse"><stop offset="0" stop-color="#fff" stop-opacity="0.4"/><stop offset="0" stop-color="#fff" stop-opacity="0.6"/><stop offset="0.79" stop-color="#fff" stop-opacity="0"/></radialGradient><radialGradient id="radial-gradient-5" cx="-3023" cy="-602.35" r="15.45" gradientTransform="matrix(2.35, -0.07, 0.02, 0.65, 7313.99, 459.02)" gradientUnits="userSpaceOnUse"><stop offset="0.09" stop-color="#fff" stop-opacity="0.4"/><stop offset="0.79" stop-color="#fff" stop-opacity="0"/></radialGradient><radialGradient id="radial-gradient-6" cx="216.15" cy="116.73" r="64.92" gradientTransform="matrix(0.31, -1.11, 0.09, 0.04, 81.91, 597.66)" gradientUnits="userSpaceOnUse"><stop offset="0.06" stop-color="#fff" stop-opacity="0.4"/><stop offset="0.79" stop-color="#fff" stop-opacity="0"/></radialGradient></defs><title>Artboard 5 copy 12</title><rect class="cls-2" x="-5.3" y="-4.41" width="404.72" height="515.14"/><rect class="cls-3" x="193.46" y="68.99" width="7.9" height="378.99" rx="3.53"/><path class="cls-4" d="M228.4,172.71H167.67l3,37.63a.72.72,0,0,0-.11.34c0,2.23,12.27,4,27.41,4s27.41-1.81,27.41-4h0Z"/><ellipse class="cls-5" cx="198.03" cy="173.22" rx="30.36" ry="4.7"/><path class="cls-6" d="M191.06,440.43c0,.24-.06.48-.06.72,0,11.32,14.44,20.49,32.26,20.49s32.27-9.17,32.27-20.49c0-.24-.05-.48-.06-.72Z"/><ellipse class="cls-7" cx="223.26" cy="440.43" rx="32.26" ry="11.91"/><ellipse class="cls-8" cx="223.26" cy="440.43" rx="32.26" ry="11.91"/><ellipse class="cls-9" cx="210.81" cy="443.59" rx="15.66" ry="14.07" transform="translate(-66.59 38.3) rotate(-8.97)"/><g class="cls-10"><rect class="cls-11" x="193.56" y="68.99" width="7.9" height="378.99" rx="3.53"/></g><path class="cls-12" d="M212,451.23s11.14,2.31,27.22-1c0,0,10.41-1.26,11.56-3.89s-7.88-5.88-9.88-4.2-10.4-1.58-13.87-1.37-13.77-.42-14.51,1.79-8.09.94-8.09,3.47S202.35,450.28,212,451.23Z"/><path class="cls-13" d="M228.63,442.29s1.26-3.47,4.73-1.05,3.57,1.37,7.46,2.1,6.62,2.21,3.05,3.26,3.47,3.37-5.57,1.47-6.31-2.83-9.57-2.31-2.42,1.37-4.31,1.16-3.26-.84-3.15-2.1S224.21,442,228.63,442.29Z"/><path class="cls-14" d="M213,446.39c1.58.42,3.37,3.16,7.26,2.84s5-1.05,7.25-.42,7-.11,6,1.05-1.26,1.26-4.41,1.05.42-.52-6-.31-5.46,1.57-8.62.21-5.15-.95-5.57-2.84S213,446.39,213,446.39Z"/><ellipse class="cls-15" cx="197.32" cy="475.89" rx="85.74" ry="19.12"/><ellipse class="cls-16" cx="197.32" cy="475.29" rx="85.74" ry="19.72"/><path class="cls-17" d="M294.28,461a26.92,26.92,0,0,0-1.47-8.84L234.72,283.52a66.24,66.24,0,0,1-3.63-21.61V196.39H165.73v65.52a66.24,66.24,0,0,1-3.63,21.61L104.18,451.65a29.18,29.18,0,0,0-1.62,9.76,14.64,14.64,0,0,0-.17,1.74c-1,28.21,43,35.88,96,35.88s96-7.67,96-35.88A14.08,14.08,0,0,0,294.28,461Z"/><path class="cls-18" d="M288.57,456.75a27.43,27.43,0,0,0-1.39-8.66L232.42,282.93A67.17,67.17,0,0,1,229,261.77V197.61H167.38v64.16A67.16,67.16,0,0,1,164,282.93L109.35,447.59a29.8,29.8,0,0,0-1.52,9.57,13.79,13.79,0,0,0-.17,1.7c-.91,27.62,22.19,34.52,90.54,35.14,57.82.52,90.54-7.52,90.54-35.14A14.88,14.88,0,0,0,288.57,456.75Z"/><path class="cls-19" d="M115.94,463.15a14.66,14.66,0,0,1,.18-1.74,29.18,29.18,0,0,1,1.62-9.76l57.92-168.13a66.51,66.51,0,0,0,3.63-21.61V196.39H165.73v65.52a66.24,66.24,0,0,1-3.63,21.61L104.18,451.65a29.18,29.18,0,0,0-1.62,9.76,14.64,14.64,0,0,0-.17,1.74c-1,28.21,43,35.88,96,35.88,2.28,0,4.53,0,6.77,0C155.25,498.33,115,490.15,115.94,463.15Z"/><path class="cls-20" d="M293.8,461.68a29.18,29.18,0,0,0-1.62-9.76L246.43,319.09q-8.6-5.07-17.1-10.28l49.3,143.11a29.17,29.17,0,0,1,1.61,9.76,12.83,12.83,0,0,1,.18,1.74c.93,27-39.31,35.18-89.26,35.84q3.36,0,6.77,0c53,0,97-7.67,96-35.88A14.64,14.64,0,0,0,293.8,461.68Z"/><path class="cls-21" d="M294.28,461a26.92,26.92,0,0,0-1.47-8.84L234.72,283.52a66.24,66.24,0,0,1-3.63-21.61V196.39H165.73v65.52a66.24,66.24,0,0,1-3.63,21.61L104.18,451.65a29.18,29.18,0,0,0-1.62,9.76,14.64,14.64,0,0,0-.17,1.74c-1,28.21,43,35.88,96,35.88s96-7.67,96-35.88A14.08,14.08,0,0,0,294.28,461Z"/><rect class="cls-22" x="161.36" y="184.76" width="74.12" height="11.78" rx="4.89"/><rect class="cls-23" x="161.36" y="184.76" width="74.12" height="11.78" rx="4.89"/><ellipse class="cls-24" cx="201.54" cy="197.02" rx="26.73" ry="7.86"/><path class="cls-25" d="M225.91,265.63c.75,3.33-10.25,28.91-32.58,34.11-22.39,5.8-34.45-18.51-34.06-31.28-.75-13.38,10.25-2.61,32.58,1C214.24,273.72,226.3,261.69,225.91,265.63Z"/><path class="cls-26" d="M173.55,268.38,129.72,421.66s25.18,21.76,37.77,6,23.67-159.26,23.67-159.26Z"/><rect class="cls-27" x="176.4" y="427.64" width="18.69" height="0.66"/><rect class="cls-27" x="176.4" y="360.37" width="18.69" height="0.66"/><rect class="cls-27" x="176.4" y="449.34" width="18.69" height="0.66"/><rect class="cls-27" x="176.4" y="400.33" width="18.69" height="0.66"/><path class="cls-27" d="M202.1,370.49c0-.43,0-.79,0-1.14h.67l0,.68h0a1.45,1.45,0,0,1,1.32-.77,1.24,1.24,0,0,1,1.19.84h0a1.84,1.84,0,0,1,.47-.55,1.44,1.44,0,0,1,.93-.29c.56,0,1.39.36,1.39,1.83v2.48h-.75v-2.39c0-.81-.3-1.3-.92-1.3a1,1,0,0,0-.9.7,1.08,1.08,0,0,0-.06.38v2.61h-.75V371c0-.67-.3-1.16-.88-1.16a1.05,1.05,0,0,0-1,.77,1.1,1.1,0,0,0-.06.37v2.55h-.75Z"/><path class="cls-27" d="M209.39,367.7h.76v5.23h2.5v.64h-3.26Z"/><text class="cls-28" transform="translate(200.55 453.37)">100</text><text class="cls-28" transform="translate(200.55 431.67)">150</text><text class="cls-28" transform="translate(200.55 404.35)">200</text><text class="cls-28" transform="translate(200.55 364.4)">250</text></svg>