<svg id="Layer_1" data-name="Layer 1" xmlns="http://www.w3.org/2000/svg" xmlns:xlink="http://www.w3.org/1999/xlink" viewBox="0 0 400 501.4"><defs><style>.cls-1,.cls-15,.cls-17,.cls-3{fill:none;}.cls-2{fill:#343841;}.cls-10,.cls-15,.cls-17,.cls-3{stroke-miterlimit:10;}.cls-3{stroke-width:1.35px;opacity:0.4;stroke:url(#linear-gradient);}.cls-15,.cls-17,.cls-21,.cls-4{opacity:0.53;}.cls-4{fill:url(#linear-gradient-2);}.cls-5{fill:url(#linear-gradient-3);}.cls-6{fill:url(#linear-gradient-4);}.cls-7{fill:url(#radial-gradient);}.cls-8{clip-path:url(#clip-path);}.cls-9{fill:url(#linear-gradient-5);}.cls-10{fill:url(#linear-gradient-6);stroke:url(#linear-gradient-7);}.cls-11,.cls-12{opacity:0.96;}.cls-11{fill:url(#linear-gradient-8);}.cls-12{fill:url(#linear-gradient-9);}.cls-13{opacity:0.44;fill:url(#linear-gradient-10);}.cls-14{fill:url(#linear-gradient-11);}.cls-15{stroke:url(#linear-gradient-12);}.cls-16{opacity:0.51;fill:url(#linear-gradient-13);}.cls-17{stroke:url(#linear-gradient-14);}.cls-18{fill:url(#radial-gradient-2);}.cls-19{opacity:0.61;}.cls-20{fill:url(#radial-gradient-3);}.cls-21{fill:url(#radial-gradient-4);}.cls-22,.cls-23{fill:#fff;}.cls-23{font-size:12.58px;font-family:MyriadPro-Regular, Myriad Pro;}</style><linearGradient id="linear-gradient" x1="196.13" y1="476.9" x2="196.13" y2="437.31" gradientUnits="userSpaceOnUse"><stop offset="0" stop-color="#fff" stop-opacity="0.1"/><stop offset="1" stop-color="#fff" stop-opacity="0.6"/></linearGradient><linearGradient id="linear-gradient-2" x1="110.39" y1="456.51" x2="281.87" y2="456.51" gradientUnits="userSpaceOnUse"><stop offset="0" stop-color="#fff" stop-opacity="0.4"/><stop offset="0.53" stop-color="#fff" stop-opacity="0.7"/><stop offset="1" stop-color="#fff" stop-opacity="0.4"/></linearGradient><linearGradient id="linear-gradient-3" x1="191.8" y1="210.08" x2="199.94" y2="210.08" gradientUnits="userSpaceOnUse"><stop offset="0" stop-color="#593021"/><stop offset="0" stop-color="#7a4a3d"/><stop offset="0" stop-color="#231f20"/><stop offset="0.67" stop-color="#6d6e71"/><stop offset="1" stop-color="#6d6e71"/></linearGradient><linearGradient id="linear-gradient-4" x1="165.26" y1="178.85" x2="227.76" y2="178.85" gradientUnits="userSpaceOnUse"><stop offset="0" stop-color="#593021"/><stop offset="0.3" stop-color="#7a4a3d"/><stop offset="0.49" stop-color="#562e24"/><stop offset="0.75" stop-color="#35190f"/><stop offset="0.89" stop-color="#764b3d"/><stop offset="1" stop-color="#613121"/></linearGradient><radialGradient id="radial-gradient" cx="-1321.85" cy="157.75" r="29.98" gradientTransform="translate(2028.01 71.42) scale(1.39 0.55)" gradientUnits="userSpaceOnUse"><stop offset="0" stop-color="#593021"/><stop offset="0" stop-color="#7a4a3d"/><stop offset="0" stop-color="#562e24"/><stop offset="0" stop-color="#68382a"/><stop offset="1" stop-color="#35190f"/></radialGradient><clipPath id="clip-path"><rect class="cls-1" x="182.03" y="40.06" width="27.68" height="117.92"/></clipPath><linearGradient id="linear-gradient-5" x1="191.9" y1="245.5" x2="200.04" y2="245.5" xlink:href="#linear-gradient-3"/><linearGradient id="linear-gradient-6" x1="185.55" y1="400.78" x2="206.19" y2="400.78" gradientUnits="userSpaceOnUse"><stop offset="0" stop-color="#593021"/><stop offset="0" stop-color="#7a4a3d"/><stop offset="0" stop-color="#231f20"/><stop offset="0.6" stop-color="#58595b"/><stop offset="1" stop-color="#6d6e71"/></linearGradient><linearGradient id="linear-gradient-7" x1="185.05" y1="400.78" x2="206.69" y2="400.78" xlink:href="#linear-gradient-3"/><linearGradient id="linear-gradient-8" x1="196.91" y1="469.36" x2="195.15" y2="180.35" gradientUnits="userSpaceOnUse"><stop offset="0" stop-color="#c88259"/><stop offset="0.1" stop-color="#c37d58"/><stop offset="0.22" stop-color="#b87055"/><stop offset="0.26" stop-color="#b36b51"/><stop offset="0.31" stop-color="#a65c46"/><stop offset="0.32" stop-color="#a25843"/><stop offset="0.47" stop-color="#843c34"/><stop offset="0.64" stop-color="#632220"/><stop offset="1" stop-color="#70312d" stop-opacity="0.8"/></linearGradient><linearGradient id="linear-gradient-9" x1="266.56" y1="437.73" x2="102.85" y2="238.32" gradientUnits="userSpaceOnUse"><stop offset="0" stop-color="#d2945b"/><stop offset="0.05" stop-color="#d1935a" stop-opacity="0.98"/><stop offset="0.12" stop-color="#cd8e59" stop-opacity="0.91"/><stop offset="0.19" stop-color="#c88756" stop-opacity="0.79"/><stop offset="0.26" stop-color="#c07e52" stop-opacity="0.63"/><stop offset="0.34" stop-color="#b6714d" stop-opacity="0.42"/><stop offset="0.42" stop-color="#aa6247" stop-opacity="0.17"/><stop offset="0.46" stop-color="#a25843" stop-opacity="0"/><stop offset="0.85" stop-color="#843c34" stop-opacity="0"/></linearGradient><linearGradient id="linear-gradient-10" x1="119.11" y1="317.64" x2="188" y2="335.37" gradientUnits="userSpaceOnUse"><stop offset="0.16" stop-color="#fff" stop-opacity="0.4"/><stop offset="0.42" stop-color="#fff" stop-opacity="0"/></linearGradient><linearGradient id="linear-gradient-11" x1="-15046.64" y1="371.65" x2="-14994.45" y2="385.08" gradientTransform="matrix(-1, 0, 0, 1, -14761.57, 0.33)" xlink:href="#linear-gradient-10"/><linearGradient id="linear-gradient-12" x1="98.82" y1="329.64" x2="291.92" y2="329.64" gradientUnits="userSpaceOnUse"><stop offset="0" stop-color="#fff" stop-opacity="0.4"/><stop offset="0.2" stop-color="#fff" stop-opacity="0.5"/><stop offset="0.44" stop-color="#fff" stop-opacity="0.62"/><stop offset="0.67" stop-color="#fff" stop-opacity="0.7"/><stop offset="0.92" stop-color="#fff" stop-opacity="0.4"/><stop offset="1" stop-color="#fff" stop-opacity="0.4"/></linearGradient><linearGradient id="linear-gradient-13" x1="158.31" y1="172.57" x2="232.43" y2="172.57" gradientUnits="userSpaceOnUse"><stop offset="0" stop-color="#fff" stop-opacity="0.8"/><stop offset="0.2" stop-color="#fff" stop-opacity="0.9"/><stop offset="0.44" stop-color="#fff" stop-opacity="0.62"/><stop offset="0.67" stop-color="#fff" stop-opacity="0.7"/><stop offset="0.92" stop-color="#fff" stop-opacity="0.4"/><stop offset="1" stop-color="#fff" stop-opacity="0.8"/></linearGradient><linearGradient id="linear-gradient-14" x1="157.81" y1="172.57" x2="232.93" y2="172.57" xlink:href="#linear-gradient-12"/><radialGradient id="radial-gradient-2" cx="-3334.93" cy="-73.63" r="14.07" gradientTransform="translate(6488.49 201.81) scale(1.88 0.34)" gradientUnits="userSpaceOnUse"><stop offset="0" stop-color="#fff" stop-opacity="0.4"/><stop offset="0" stop-color="#fff" stop-opacity="0.6"/><stop offset="0.79" stop-color="#fff" stop-opacity="0"/></radialGradient><radialGradient id="radial-gradient-3" cx="-4160.46" cy="-575.88" r="15.45" gradientTransform="matrix(2.35, -0.07, 0.02, 0.65, 9984.24, 345.43)" gradientUnits="userSpaceOnUse"><stop offset="0.09" stop-color="#fff" stop-opacity="0.4"/><stop offset="0.79" stop-color="#fff" stop-opacity="0"/></radialGradient><radialGradient id="radial-gradient-4" cx="232.27" cy="100.05" r="64.92" gradientTransform="matrix(0.31, -1.11, 0.09, 0.04, 75.46, 598.01)" gradientUnits="userSpaceOnUse"><stop offset="0.06" stop-color="#fff" stop-opacity="0.4"/><stop offset="0.79" stop-color="#fff" stop-opacity="0"/></radialGradient></defs><title>Artboard 5 copy 16</title><rect class="cls-2" x="-0.8" y="-2.38" width="404.72" height="505"/><ellipse class="cls-3" cx="196.13" cy="457.11" rx="85.74" ry="19.12"/><ellipse class="cls-4" cx="196.13" cy="456.51" rx="85.74" ry="19.72"/><rect class="cls-5" x="191.8" y="50.48" width="8.13" height="319.2" rx="3.53"/><path class="cls-6" d="M227.76,157.23h-62.5L168.34,196a.81.81,0,0,0-.12.35c0,2.3,12.63,4.16,28.22,4.16s28.21-1.86,28.21-4.16h0Z"/><ellipse class="cls-7" cx="196.51" cy="157.75" rx="31.25" ry="4.84"/><g class="cls-8"><rect class="cls-9" x="191.9" y="50.48" width="8.13" height="390.03" rx="3.53"/></g><path class="cls-10" d="M206.19,392.21a6.46,6.46,0,0,0-1.67-4.27,6.29,6.29,0,0,0,0-8.57,6.69,6.69,0,0,0,1.58-4.3c0-4-3.6-7.32-8-7.34,0,.22.09.43.14.65,4.09.1,7.38,3.06,7.38,6.69a6.13,6.13,0,0,1-1.44,3.91q-.31-.3-.66-.57c-1.28-1.34-5.1-2.06-8.72-2.06-4.45,0-9.18,1.07-9.18,3.07s4.73,3.07,9.18,3.07c3.62,0,7.43-.72,8.72-2.06.23-.2.46-.41.67-.63a5.87,5.87,0,0,1,1.55,3.88,5.79,5.79,0,0,1-1.54,3.86,8,8,0,0,0-.93-.8v0c-1.48-1.2-5-1.84-8.47-1.84-4.45,0-9.18,1.07-9.18,3.07s4.73,3.06,9.18,3.06c3.73,0,7.65-.76,8.81-2.18a7.45,7.45,0,0,0,.6-.52,5.87,5.87,0,0,1,1.53,3.86,5.78,5.78,0,0,1-1.55,3.88,7.32,7.32,0,0,0-.67-.58c-1.29-1.35-5.1-2.06-8.72-2.06-4.45,0-9.18,1.07-9.18,3.07s4.73,3.06,9.18,3.06c3.73,0,7.65-.76,8.81-2.18a7,7,0,0,0,.58-.51,5.89,5.89,0,0,1,1.55,3.88,5.79,5.79,0,0,1-1.54,3.87,7.13,7.13,0,0,0-.93-.8h0c-1.48-1.2-5-1.83-8.47-1.83-4.45,0-9.18,1.07-9.18,3.06s4.73,3.07,9.18,3.07c3.73,0,7.65-.76,8.81-2.18a7.57,7.57,0,0,0,.6-.53,5.89,5.89,0,0,1,1.53,3.87,5.79,5.79,0,0,1-1.58,3.91c-.17-.16-.34-.32-.53-.47-1.14-1.44-5.08-2.2-8.83-2.2-4.45,0-9.18,1.07-9.18,3.06s4.73,3.07,9.18,3.07c3.73,0,7.65-.76,8.81-2.18a6.3,6.3,0,0,0,.55-.48,5.86,5.86,0,0,1,1.58,3.91,5.79,5.79,0,0,1-1.54,3.86,8,8,0,0,0-.93-.8v0c-1.48-1.2-5-1.84-8.47-1.84-4.45,0-9.18,1.07-9.18,3.06s4.73,3.07,9.18,3.07c3.73,0,7.65-.76,8.81-2.18a7.45,7.45,0,0,0,.6-.52,5.64,5.64,0,0,1-.27,8c-.26-1.88-4.83-2.89-9.14-2.89s-9.18,1.07-9.18,3.07,4.73,3.06,9.18,3.06c3.73,0,7.65-.76,8.81-2.18a6.65,6.65,0,0,0,2.65-5.19,6.46,6.46,0,0,0-1.67-4.27,6.29,6.29,0,0,0,0-8.58,6.28,6.28,0,0,0,0-8.57,6.29,6.29,0,0,0,0-8.55A6.44,6.44,0,0,0,206.19,392.21Zm-20.12-12.79c0-1,3.3-2.42,8.66-2.42s8.65,1.41,8.65,2.42-3.29,2.41-8.65,2.41S186.07,380.43,186.07,379.42Zm0,8.57c0-1,3.3-2.42,8.66-2.42s8.65,1.41,8.65,2.42a.69.69,0,0,1-.18.42,8,8,0,0,1-1.9,1.08,20.74,20.74,0,0,1-6.57.91C189.37,390.4,186.07,389,186.07,388Zm0,42.78c0-1,3.3-2.42,8.66-2.42s8.65,1.41,8.65,2.42a.69.69,0,0,1-.18.42,8,8,0,0,1-1.9,1.08,20.74,20.74,0,0,1-6.57.91C189.37,433.18,186.07,431.77,186.07,430.77Zm0-8.54c0-1,3.3-2.41,8.66-2.41s8.65,1.41,8.65,2.41a.69.69,0,0,1-.18.43,8,8,0,0,1-1.9,1.08,20.74,20.74,0,0,1-6.57.91C189.37,424.65,186.07,423.24,186.07,422.23Zm0-8.62c0-1,3.3-2.41,8.66-2.41,4.45,0,7.47,1,8.37,1.88h0l.08.07a.76.76,0,0,1,.21.45.65.65,0,0,1-.18.42,7.71,7.71,0,0,1-1.9,1.09,20.74,20.74,0,0,1-6.57.91C189.37,416,186.07,414.62,186.07,413.61Zm0-8.53c0-1,3.3-2.41,8.66-2.41s8.65,1.4,8.65,2.41a.65.65,0,0,1-.18.42,7.71,7.71,0,0,1-1.9,1.09,20.74,20.74,0,0,1-6.57.91C189.37,407.5,186.07,406.09,186.07,405.08Zm0-8.56c0-1,3.3-2.42,8.66-2.42s8.65,1.41,8.65,2.42a.69.69,0,0,1-.18.42,8,8,0,0,1-1.9,1.08,20.74,20.74,0,0,1-6.57.91C189.37,398.93,186.07,397.52,186.07,396.52Z"/><path class="cls-11" d="M287.74,440.23a25.84,25.84,0,0,0-1.4-8.43L231.2,271.23a63.41,63.41,0,0,1-3.45-20.58V179.32h-62v71.33a63.14,63.14,0,0,1-3.45,20.58l-55,160.09a27.75,27.75,0,0,0-1.54,9.3,11.52,11.52,0,0,0-.16,1.65c-.93,26.86,40.81,34.17,91.16,34.17s91.16-7.31,91.16-34.17A12.78,12.78,0,0,0,287.74,440.23Z"/><path class="cls-12" d="M286.06,439.11a25.79,25.79,0,0,0-1.4-8.43L229.52,270.11a63.5,63.5,0,0,1-3.45-20.58V178.2H164v71.33a63.23,63.23,0,0,1-3.45,20.58l-55,160.09a27.75,27.75,0,0,0-1.54,9.3,13.18,13.18,0,0,0-.17,1.65c-.92,26.86,40.82,34.17,91.16,34.17s91.16-7.31,91.16-34.17A13.92,13.92,0,0,0,286.06,439.11Z"/><path class="cls-13" d="M112.89,445.07a14.29,14.29,0,0,1,.18-1.73,29.24,29.24,0,0,1,1.62-9.77l57.92-168.13a66.51,66.51,0,0,0,3.63-21.61V178.32H162.68v65.51a66.24,66.24,0,0,1-3.63,21.61L101.13,433.57a29.24,29.24,0,0,0-1.62,9.77,14.27,14.27,0,0,0-.17,1.73c-1,28.21,43,35.89,96,35.89,2.28,0,4.53,0,6.77,0C152.2,480.26,112,472.07,112.89,445.07Z"/><path class="cls-14" d="M290.75,443.61a29.24,29.24,0,0,0-1.62-9.77L243.38,301q-8.59-5.07-17.1-10.29l49.3,143.11a29.23,29.23,0,0,1,1.61,9.77,12.53,12.53,0,0,1,.18,1.73c.93,27-39.31,35.19-89.26,35.84q3.36,0,6.78.05c53,0,97-7.68,96-35.89A14.27,14.27,0,0,0,290.75,443.61Z"/><path class="cls-15" d="M291.23,442.93a27,27,0,0,0-1.47-8.85L231.67,265.44A66.24,66.24,0,0,1,228,243.83V178.32H162.68v65.51a66.24,66.24,0,0,1-3.63,21.61L101.13,433.57a29.24,29.24,0,0,0-1.62,9.77,14.27,14.27,0,0,0-.17,1.73c-1,28.21,43,35.89,96,35.89s96-7.68,96-35.89A14,14,0,0,0,291.23,442.93Z"/><rect class="cls-16" x="158.31" y="166.68" width="74.12" height="11.78" rx="4.89"/><rect class="cls-17" x="158.31" y="166.68" width="74.12" height="11.78" rx="4.89"/><ellipse class="cls-18" cx="198.49" cy="178.94" rx="26.73" ry="7.86"/><g class="cls-19"><path class="cls-20" d="M222.86,247.55c.75,3.33-10.25,28.91-32.58,34.12-22.4,5.79-34.45-18.51-34.06-31.28-.75-13.38,10.25-2.62,32.58,1C211.19,255.65,223.25,243.62,222.86,247.55Z"/></g><path class="cls-21" d="M170.5,250.31,126.67,403.58s25.18,21.76,37.77,6,23.67-159.26,23.67-159.26Z"/><rect class="cls-22" x="186.03" y="409.85" width="18.69" height="0.66"/><rect class="cls-22" x="186.03" y="342.59" width="18.69" height="0.66"/><rect class="cls-22" x="186.03" y="431.55" width="18.69" height="0.66"/><rect class="cls-22" x="186.03" y="382.54" width="18.69" height="0.66"/><path class="cls-22" d="M211.73,352.7c0-.43,0-.79,0-1.13h.67l0,.67h0a1.45,1.45,0,0,1,1.32-.77,1.24,1.24,0,0,1,1.19.84h0a1.8,1.8,0,0,1,.47-.54,1.39,1.39,0,0,1,.93-.3c.56,0,1.39.36,1.39,1.83v2.48H217v-2.39c0-.81-.3-1.29-.92-1.29a1,1,0,0,0-.9.69,1.18,1.18,0,0,0-.06.39v2.6h-.75v-2.53c0-.67-.3-1.15-.88-1.15a1,1,0,0,0-1,.76,1.16,1.16,0,0,0-.06.38v2.54h-.75Z"/><path class="cls-22" d="M219,349.91h.76v5.23h2.5v.64H219Z"/><text class="cls-23" transform="translate(210.18 435.58)">100</text><text class="cls-23" transform="translate(210.18 413.88)">150</text><text class="cls-23" transform="translate(210.18 386.57)">200</text><text class="cls-23" transform="translate(210.18 346.61)">250</text></svg>