<svg id="Layer_1" data-name="Layer 1" xmlns="http://www.w3.org/2000/svg" xmlns:xlink="http://www.w3.org/1999/xlink" viewBox="0 0 400 505.46"><defs><style>.cls-1,.cls-11,.cls-18,.cls-20,.cls-4{fill:none;}.cls-2{fill:#343841;}.cls-3{opacity:0.32;fill:url(#linear-gradient);}.cls-11,.cls-18,.cls-20,.cls-4{stroke-miterlimit:10;}.cls-4{stroke-width:1.35px;opacity:0.4;stroke:url(#linear-gradient-2);}.cls-18,.cls-20,.cls-24,.cls-5{opacity:0.53;}.cls-5{fill:url(#linear-gradient-3);}.cls-6{fill:url(#linear-gradient-4);}.cls-7{fill:url(#linear-gradient-5);}.cls-8{fill:url(#radial-gradient);}.cls-9{fill:url(#radial-gradient-2);}.cls-10{fill:url(#linear-gradient-6);}.cls-11{stroke-width:0.5px;stroke:url(#linear-gradient-7);}.cls-12{opacity:0.25;fill:url(#radial-gradient-3);}.cls-13{clip-path:url(#clip-path);}.cls-14{fill:url(#linear-gradient-8);}.cls-15{opacity:0.96;fill:url(#linear-gradient-9);}.cls-16{opacity:0.44;fill:url(#linear-gradient-10);}.cls-17{fill:url(#linear-gradient-11);}.cls-18{stroke:url(#linear-gradient-12);}.cls-19{opacity:0.51;fill:url(#linear-gradient-13);}.cls-20{stroke:url(#linear-gradient-14);}.cls-21{fill:url(#radial-gradient-4);}.cls-22,.cls-30{opacity:0.61;}.cls-23{fill:url(#radial-gradient-5);}.cls-24{fill:url(#radial-gradient-6);}.cls-25{fill:url(#radial-gradient-7);}.cls-26,.cls-27{fill:#fff;}.cls-27{font-size:12.58px;font-family:MyriadPro-Regular, Myriad Pro;}.cls-28{opacity:0.31;fill:url(#radial-gradient-8);}.cls-29{opacity:0.28;fill:url(#radial-gradient-9);}.cls-30{fill:url(#radial-gradient-10);}.cls-31{opacity:0.26;fill:url(#radial-gradient-11);}</style><linearGradient id="linear-gradient" x1="105.01" y1="344.79" x2="297.9" y2="344.79" gradientUnits="userSpaceOnUse"><stop offset="0" stop-color="#fff" stop-opacity="0.5"/><stop offset="0.5" stop-color="#fff" stop-opacity="0.2"/><stop offset="1" stop-color="#fff" stop-opacity="0.4"/></linearGradient><linearGradient id="linear-gradient-2" x1="199.77" y1="492.11" x2="199.77" y2="452.51" gradientUnits="userSpaceOnUse"><stop offset="0" stop-color="#fff" stop-opacity="0.1"/><stop offset="1" stop-color="#fff" stop-opacity="0.6"/></linearGradient><linearGradient id="linear-gradient-3" x1="114.03" y1="471.71" x2="285.51" y2="471.71" gradientUnits="userSpaceOnUse"><stop offset="0" stop-color="#fff" stop-opacity="0.4"/><stop offset="0.53" stop-color="#fff" stop-opacity="0.7"/><stop offset="1" stop-color="#fff" stop-opacity="0.4"/></linearGradient><linearGradient id="linear-gradient-4" x1="196.23" y1="257.49" x2="204.36" y2="257.49" gradientUnits="userSpaceOnUse"><stop offset="0" stop-color="#593021"/><stop offset="0" stop-color="#7a4a3d"/><stop offset="0" stop-color="#231f20"/><stop offset="0.67" stop-color="#6d6e71"/><stop offset="1" stop-color="#6d6e71"/></linearGradient><linearGradient id="linear-gradient-5" x1="169.69" y1="190.84" x2="232.18" y2="190.84" gradientUnits="userSpaceOnUse"><stop offset="0" stop-color="#593021"/><stop offset="0.3" stop-color="#7a4a3d"/><stop offset="0.49" stop-color="#562e24"/><stop offset="0.75" stop-color="#35190f"/><stop offset="0.89" stop-color="#764b3d"/><stop offset="1" stop-color="#613121"/></linearGradient><radialGradient id="radial-gradient" cx="-912.9" cy="169.75" r="29.98" gradientTransform="translate(1465.81 76.85) scale(1.39 0.55)" gradientUnits="userSpaceOnUse"><stop offset="0" stop-color="#593021"/><stop offset="0" stop-color="#7a4a3d"/><stop offset="0" stop-color="#562e24"/><stop offset="0" stop-color="#68382a"/><stop offset="1" stop-color="#35190f"/></radialGradient><radialGradient id="radial-gradient-2" cx="226.9" cy="455.65" r="24.71" gradientUnits="userSpaceOnUse"><stop offset="0" stop-color="#593021"/><stop offset="0" stop-color="#7a4a3d"/><stop offset="0" stop-color="#231f20"/><stop offset="0.32" stop-color="#414042"/><stop offset="0.76" stop-color="#666668"/></radialGradient><linearGradient id="linear-gradient-6" x1="193.7" y1="444.74" x2="260.1" y2="444.74" xlink:href="#linear-gradient-4"/><linearGradient id="linear-gradient-7" x1="193.45" y1="444.74" x2="260.35" y2="444.74" gradientUnits="userSpaceOnUse"><stop offset="0" stop-color="#593021"/><stop offset="0" stop-color="#7a4a3d"/><stop offset="0" stop-color="#939598"/><stop offset="0.67" stop-color="#58595b"/><stop offset="1" stop-color="#6d6e71"/></linearGradient><radialGradient id="radial-gradient-3" cx="-1132.37" cy="-68.66" r="10.95" gradientTransform="translate(1791.7 496.57) scale(1.39 0.76)" gradientUnits="userSpaceOnUse"><stop offset="0" stop-color="#fff" stop-opacity="0.4"/><stop offset="0" stop-color="#fff" stop-opacity="0.6"/><stop offset="0.71" stop-color="#fff" stop-opacity="0"/></radialGradient><clipPath id="clip-path"><rect class="cls-1" x="186.45" y="52.05" width="27.68" height="117.92"/></clipPath><linearGradient id="linear-gradient-8" x1="196.33" y1="257.49" x2="204.46" y2="257.49" xlink:href="#linear-gradient-4"/><linearGradient id="linear-gradient-9" x1="200.66" y1="483.03" x2="206.59" y2="197.04" gradientUnits="userSpaceOnUse"><stop offset="0.17" stop-color="#f2a93b" stop-opacity="0.5"/><stop offset="0.42" stop-color="#f3a73b" stop-opacity="0.96"/><stop offset="0.72" stop-color="#f3a63c" stop-opacity="0.3"/><stop offset="1" stop-color="#f3a63c" stop-opacity="0"/></linearGradient><linearGradient id="linear-gradient-10" x1="124.68" y1="332.31" x2="193.57" y2="350.04" gradientUnits="userSpaceOnUse"><stop offset="0.16" stop-color="#fff" stop-opacity="0.4"/><stop offset="0.42" stop-color="#fff" stop-opacity="0"/></linearGradient><linearGradient id="linear-gradient-11" x1="-12135.91" y1="386.32" x2="-12083.72" y2="399.75" gradientTransform="matrix(-1, 0, 0, 1, -11845.28, 0.33)" xlink:href="#linear-gradient-10"/><linearGradient id="linear-gradient-12" x1="104.39" y1="344.31" x2="297.48" y2="344.31" gradientUnits="userSpaceOnUse"><stop offset="0" stop-color="#fff" stop-opacity="0.4"/><stop offset="0.2" stop-color="#fff" stop-opacity="0.5"/><stop offset="0.44" stop-color="#fff" stop-opacity="0.62"/><stop offset="0.67" stop-color="#fff" stop-opacity="0.7"/><stop offset="0.92" stop-color="#fff" stop-opacity="0.4"/><stop offset="1" stop-color="#fff" stop-opacity="0.4"/></linearGradient><linearGradient id="linear-gradient-13" x1="163.87" y1="187.24" x2="238" y2="187.24" gradientUnits="userSpaceOnUse"><stop offset="0" stop-color="#fff" stop-opacity="0.8"/><stop offset="0.2" stop-color="#fff" stop-opacity="0.9"/><stop offset="0.44" stop-color="#fff" stop-opacity="0.62"/><stop offset="0.67" stop-color="#fff" stop-opacity="0.7"/><stop offset="0.92" stop-color="#fff" stop-opacity="0.4"/><stop offset="1" stop-color="#fff" stop-opacity="0.8"/></linearGradient><linearGradient id="linear-gradient-14" x1="163.37" y1="187.24" x2="238.5" y2="187.24" xlink:href="#linear-gradient-12"/><radialGradient id="radial-gradient-4" cx="-2647.4" cy="-60.01" r="14.07" gradientTransform="translate(5198.08 211.88) scale(1.88 0.34)" gradientUnits="userSpaceOnUse"><stop offset="0" stop-color="#fff" stop-opacity="0.4"/><stop offset="0" stop-color="#fff" stop-opacity="0.6"/><stop offset="0.79" stop-color="#fff" stop-opacity="0"/></radialGradient><radialGradient id="radial-gradient-5" cx="-3319.62" cy="-595.76" r="15.45" gradientTransform="matrix(2.35, -0.07, 0.02, 0.65, 8013.64, 430.91)" gradientUnits="userSpaceOnUse"><stop offset="0.09" stop-color="#fff" stop-opacity="0.4"/><stop offset="0.79" stop-color="#fff" stop-opacity="0"/></radialGradient><radialGradient id="radial-gradient-6" cx="223.71" cy="113.24" r="64.92" gradientTransform="matrix(0.31, -1.11, 0.09, 0.04, 82.42, 602.74)" gradientUnits="userSpaceOnUse"><stop offset="0.06" stop-color="#fff" stop-opacity="0.4"/><stop offset="0.79" stop-color="#fff" stop-opacity="0"/></radialGradient><radialGradient id="radial-gradient-7" cx="-124.93" cy="347.86" fy="387.1811200232375" r="59.74" gradientTransform="translate(352.25 -31.75) scale(1.18 1.24)" gradientUnits="userSpaceOnUse"><stop offset="0.04" stop-color="#fff"/><stop offset="0.35" stop-color="#ffff40"/><stop offset="0.75" stop-color="#ffb32d" stop-opacity="0.8"/><stop offset="1" stop-color="#ffb32d" stop-opacity="0"/></radialGradient><radialGradient id="radial-gradient-8" cx="-76.15" cy="89.01" fy="104.9326606340262" r="15.93" gradientTransform="translate(235.91 196.71) scale(0.91 1.55)" gradientUnits="userSpaceOnUse"><stop offset="0" stop-color="#fff"/><stop offset="0.29" stop-color="#ffff40"/><stop offset="0.55" stop-color="#ffb32d" stop-opacity="0.8"/><stop offset="1" stop-color="#ffb32d" stop-opacity="0"/></radialGradient><radialGradient id="radial-gradient-9" cx="-1179.44" cy="621.77" fy="637.6906739771674" r="15.93" gradientTransform="translate(520.72 -277.58) scale(0.29 0.97)" xlink:href="#radial-gradient-8"/><radialGradient id="radial-gradient-10" cx="1415.07" cy="54.64" fy="70.56184708667016" r="15.93" gradientTransform="translate(-128.91 204.41) scale(0.23 1.58)" xlink:href="#radial-gradient-8"/><radialGradient id="radial-gradient-11" cx="873.91" cy="533.83" fy="549.7483411703377" r="15.93" gradientTransform="translate(-85.57 -157.1) scale(0.27 1.01)" xlink:href="#radial-gradient-8"/></defs><title>Artboard 5 copy 13</title><rect class="cls-2" x="-0.8" y="-0.35" width="404.72" height="507.03"/><path class="cls-3" d="M297.71,458.08a27,27,0,0,0-1.48-8.84L237.9,280.6A66.25,66.25,0,0,1,234.26,259V193.48H168.63V259A66.25,66.25,0,0,1,165,280.6L106.83,448.73a29.24,29.24,0,0,0-1.62,9.77,12.53,12.53,0,0,0-.18,1.73c-1,28.21,43.18,35.88,96.43,35.88s96.44-7.67,96.44-35.88A14.19,14.19,0,0,0,297.71,458.08Z"/><ellipse class="cls-4" cx="199.77" cy="472.31" rx="85.74" ry="19.12"/><ellipse class="cls-5" cx="199.77" cy="471.71" rx="85.74" ry="19.72"/><rect class="cls-6" x="196.23" y="62.48" width="8.13" height="390.03" rx="3.53"/><path class="cls-7" d="M232.18,169.23H169.69L172.77,208a.67.67,0,0,0-.12.35c0,2.29,12.63,4.15,28.21,4.15s28.21-1.86,28.21-4.15h0Z"/><ellipse class="cls-8" cx="200.93" cy="169.75" rx="31.25" ry="4.84"/><path class="cls-9" d="M193.76,444.74c0,.25-.06.49-.06.74,0,11.65,14.86,21.09,33.2,21.09s33.2-9.44,33.2-21.09c0-.25,0-.49-.06-.74Z"/><ellipse class="cls-10" cx="226.9" cy="444.74" rx="33.2" ry="12.25"/><ellipse class="cls-11" cx="226.9" cy="444.74" rx="33.2" ry="12.25"/><ellipse class="cls-12" cx="214.09" cy="447.99" rx="16.12" ry="14.48" transform="translate(-67.23 38.86) rotate(-8.97)"/><g class="cls-13"><rect class="cls-14" x="196.33" y="62.48" width="8.13" height="390.03" rx="3.53"/></g><path class="cls-15" d="M292.16,455.66a25.71,25.71,0,0,0-1.39-8.47L235.63,285.65a63.94,63.94,0,0,1-3.45-20.7V193.18h-62V265a64.21,64.21,0,0,1-3.45,20.7l-55,161.05a28.3,28.3,0,0,0-1.53,9.36,13.15,13.15,0,0,0-.17,1.66c-.92,27,40.81,34.37,91.16,34.37s91.16-7.35,91.16-34.37A12.93,12.93,0,0,0,292.16,455.66Z"/><path class="cls-16" d="M118.46,459.75a14.44,14.44,0,0,1,.17-1.74,29.24,29.24,0,0,1,1.62-9.77l57.92-168.13a66.24,66.24,0,0,0,3.63-21.61V193H168.25V258.5a66.25,66.25,0,0,1-3.64,21.61L106.7,448.24a29.24,29.24,0,0,0-1.62,9.77,14.45,14.45,0,0,0-.18,1.74c-1,28.2,43,35.88,96,35.88q3.42,0,6.78-.05C157.76,494.93,117.53,486.74,118.46,459.75Z"/><path class="cls-17" d="M296.31,458.28a29.23,29.23,0,0,0-1.61-9.77L248.94,315.69q-8.58-5.07-17.1-10.29l49.3,143.11a29.24,29.24,0,0,1,1.62,9.77,14.24,14.24,0,0,1,.17,1.74c.93,27-39.3,35.18-89.26,35.83q3.36,0,6.78,0c53,0,97-7.68,96-35.88A12.51,12.51,0,0,0,296.31,458.28Z"/><path class="cls-18" d="M296.8,457.6a27.25,27.25,0,0,0-1.47-8.85l-58.1-168.64a66.51,66.51,0,0,1-3.63-21.61V193H168.25V258.5a66.25,66.25,0,0,1-3.64,21.61L106.7,448.24a29.24,29.24,0,0,0-1.62,9.77,14.45,14.45,0,0,0-.18,1.74c-1,28.2,43,35.88,96,35.88s96-7.68,96-35.88A14,14,0,0,0,296.8,457.6Z"/><rect class="cls-19" x="163.87" y="181.35" width="74.12" height="11.78" rx="4.89"/><rect class="cls-20" x="163.87" y="181.35" width="74.12" height="11.78" rx="4.89"/><ellipse class="cls-21" cx="204.05" cy="193.61" rx="26.73" ry="7.86"/><g class="cls-22"><path class="cls-23" d="M228.42,262.22c.75,3.33-10.25,28.91-32.58,34.12-22.39,5.8-34.45-18.51-34.05-31.28-.75-13.38,10.24-2.62,32.57,1C216.75,270.32,228.81,258.29,228.42,262.22Z"/></g><path class="cls-24" d="M176.07,265,132.23,418.25s25.18,21.77,37.77,6S193.67,265,193.67,265Z"/><ellipse class="cls-25" cx="202.76" cy="391.33" rx="67.06" ry="84.24" transform="translate(-83.78 56.45) rotate(-13.16)"/><rect class="cls-26" x="190.74" y="424.52" width="18.69" height="0.66"/><rect class="cls-26" x="190.74" y="357.26" width="18.69" height="0.66"/><rect class="cls-26" x="190.74" y="446.22" width="18.69" height="0.66"/><rect class="cls-26" x="190.74" y="397.21" width="18.69" height="0.66"/><path class="cls-26" d="M216.44,367.38c0-.44,0-.8,0-1.14h.67l0,.68h0a1.46,1.46,0,0,1,1.32-.78,1.23,1.23,0,0,1,1.19.85h0a1.73,1.73,0,0,1,.47-.55,1.44,1.44,0,0,1,.93-.3c.56,0,1.39.37,1.39,1.83v2.48h-.75v-2.39c0-.8-.3-1.29-.92-1.29a1,1,0,0,0-.9.69,1.52,1.52,0,0,0-.06.39v2.6h-.75v-2.52c0-.67-.3-1.16-.88-1.16a1.05,1.05,0,0,0-.95.76,1.21,1.21,0,0,0-.06.38v2.54h-.75Z"/><path class="cls-26" d="M223.73,364.58h.76v5.23H227v.64h-3.26Z"/><text class="cls-27" transform="translate(214.89 450.25)">100</text><text class="cls-27" transform="translate(214.89 428.55)">150</text><text class="cls-27" transform="translate(214.89 401.24)">200</text><text class="cls-27" transform="translate(214.89 361.28)">250</text><ellipse class="cls-28" cx="166.41" cy="332.26" rx="13.72" ry="28.14" transform="matrix(0.96, -0.27, 0.27, 0.96, -84.86, 58.48)"/><ellipse class="cls-29" cx="175.97" cy="322.93" rx="4.42" ry="17.58" transform="translate(-176.8 219.02) rotate(-45)"/><ellipse class="cls-30" cx="195.81" cy="288.08" rx="3.47" ry="28.61" transform="matrix(0.96, -0.27, 0.27, 0.96, -71.59, 64.86)"/><ellipse class="cls-31" cx="153.89" cy="379.72" rx="4.14" ry="18.32" transform="translate(-98.37 56.87) rotate(-15.94)"/></svg>