<svg id="Layer_1" data-name="Layer 1" xmlns="http://www.w3.org/2000/svg" xmlns:xlink="http://www.w3.org/1999/xlink" viewBox="0 0 400 582.52"><defs><style>.cls-1,.cls-8{fill:none;}.cls-2{fill:#343841;}.cls-3{fill:url(#linear-gradient);}.cls-4{fill:url(#linear-gradient-2);}.cls-5{fill:url(#radial-gradient);}.cls-6{fill:url(#radial-gradient-2);}.cls-7{fill:url(#linear-gradient-3);}.cls-8{stroke-miterlimit:10;stroke-width:0.5px;stroke:url(#linear-gradient-4);}.cls-9{opacity:0.25;fill:url(#radial-gradient-3);}.cls-10{clip-path:url(#clip-path);}.cls-11{fill:url(#linear-gradient-5);}.cls-12{fill:#dcddda;}.cls-13{fill:#e2e8e2;}.cls-14{fill:#bebfbe;}.cls-15{fill:#fdfffd;}</style><linearGradient id="linear-gradient" x1="179.58" y1="281.03" x2="187.49" y2="281.03" gradientUnits="userSpaceOnUse"><stop offset="0" stop-color="#593021"/><stop offset="0" stop-color="#7a4a3d"/><stop offset="0" stop-color="#231f20"/><stop offset="0.67" stop-color="#6d6e71"/><stop offset="1" stop-color="#6d6e71"/></linearGradient><linearGradient id="linear-gradient-2" x1="153.79" y1="216.27" x2="214.52" y2="216.27" gradientUnits="userSpaceOnUse"><stop offset="0" stop-color="#593021"/><stop offset="0.3" stop-color="#7a4a3d"/><stop offset="0.49" stop-color="#562e24"/><stop offset="0.75" stop-color="#35190f"/><stop offset="0.89" stop-color="#764b3d"/><stop offset="1" stop-color="#613121"/></linearGradient><radialGradient id="radial-gradient" cx="-520.51" cy="195.77" r="29.13" gradientTransform="translate(905.35 88.63) scale(1.39 0.55)" gradientUnits="userSpaceOnUse"><stop offset="0" stop-color="#593021"/><stop offset="0" stop-color="#7a4a3d"/><stop offset="0" stop-color="#562e24"/><stop offset="0" stop-color="#68382a"/><stop offset="1" stop-color="#35190f"/></radialGradient><radialGradient id="radial-gradient-2" cx="209.39" cy="473.59" r="24.01" gradientUnits="userSpaceOnUse"><stop offset="0" stop-color="#593021"/><stop offset="0" stop-color="#7a4a3d"/><stop offset="0" stop-color="#231f20"/><stop offset="0.32" stop-color="#414042"/><stop offset="0.76" stop-color="#666668"/></radialGradient><linearGradient id="linear-gradient-3" x1="177.12" y1="462.98" x2="241.65" y2="462.98" xlink:href="#linear-gradient"/><linearGradient id="linear-gradient-4" x1="176.87" y1="462.98" x2="241.9" y2="462.98" gradientUnits="userSpaceOnUse"><stop offset="0" stop-color="#593021"/><stop offset="0" stop-color="#7a4a3d"/><stop offset="0" stop-color="#939598"/><stop offset="0.67" stop-color="#58595b"/><stop offset="1" stop-color="#6d6e71"/></linearGradient><radialGradient id="radial-gradient-3" cx="-716.46" cy="-106.57" r="10.64" gradientTransform="translate(1195.88 543.71) scale(1.39 0.76)" gradientUnits="userSpaceOnUse"><stop offset="0" stop-color="#fff" stop-opacity="0.4"/><stop offset="0" stop-color="#fff" stop-opacity="0.6"/><stop offset="0.71" stop-color="#fff" stop-opacity="0"/></radialGradient><clipPath id="clip-path"><rect class="cls-1" x="170.08" y="81.4" width="26.9" height="114.58"/></clipPath><linearGradient id="linear-gradient-5" x1="179.68" y1="281.03" x2="187.58" y2="281.03" xlink:href="#linear-gradient"/></defs><title>Artboard 5 copy 10</title><rect class="cls-2" x="-5.3" y="-6.44" width="404.72" height="590.18"/><rect class="cls-3" x="179.58" y="91.54" width="7.9" height="378.99" rx="3.53"/><path class="cls-4" d="M214.52,195.26H153.79l3,37.63a.64.64,0,0,0-.12.34c0,2.23,12.27,4,27.41,4s27.42-1.81,27.42-4h0Z"/><ellipse class="cls-5" cx="184.16" cy="195.77" rx="30.36" ry="4.7"/><path class="cls-6" d="M177.18,463c0,.24-.06.48-.06.72,0,11.32,14.45,20.49,32.27,20.49s32.26-9.17,32.26-20.49c0-.24,0-.48-.06-.72Z"/><ellipse class="cls-7" cx="209.39" cy="462.98" rx="32.26" ry="11.91"/><ellipse class="cls-8" cx="209.39" cy="462.98" rx="32.26" ry="11.91"/><ellipse class="cls-9" cx="196.93" cy="466.13" rx="15.66" ry="14.07" transform="translate(-70.27 36.41) rotate(-8.97)"/><g class="cls-10"><rect class="cls-11" x="179.68" y="91.54" width="7.9" height="378.99" rx="3.53"/></g><path class="cls-12" d="M199,469l12.37,4.12,7.16-3.4s4.81-1.44,5.65-2.55,7.07-8.22,7.1-9.39,2.79-6.35,2.79-6.35l-1.79-2.95a12,12,0,0,0-7.2-1.09,16.32,16.32,0,0,1-8.54-1.59s-6.4,2.52-6.87,4.22-4,3.87-4,5.34-5.43,7.19-5.43,7.19S197.09,468.33,199,469Z"/><path class="cls-13" d="M201.15,467s8.78-6.31,9.46-6.3,3.36,1.89,3,2.14-.09,1.33,1.45,2.05a1.59,1.59,0,0,1-1,3c-2.07-.26-4.35-1.84-6.85-1.3A30.83,30.83,0,0,1,201.15,467Z"/><path class="cls-14" d="M200,466.23l10.39-6.38s3.83-4.84,3.14-5.31-.74-1.55.33-3l2.58-3.42-.82-1.45-2.34.49-3.41,2a4.68,4.68,0,0,1-1,3c-1.15,1.52-2.35,2.31-3.74,4.26s-1.82,4.47-2.75,5.71-3.82,4.29-3.82,4.29Z"/><path class="cls-14" d="M212.78,460.16s3.51-3,5.7-2.47,2.59,1.18,2.87.81-1.63,1.7,2-2.6,3.81-2.51,4.92-3a14.65,14.65,0,0,0,3-2.78s1.61-.05,1.12.84-1.83,3.1-2.55,4.29a17.35,17.35,0,0,0-2.12,4.42,22.81,22.81,0,0,1-4.18,6.68c-1,.83-2.43,1-2.81,1.88s-6.52,2.63-6.52,2.63,1.72-2,2.65-3.27l.92-1.22-.74-3.16-3.34-2.88Z"/><path class="cls-13" d="M215.7,456.3l6.13-3.27s.53.91.89.43a4.16,4.16,0,0,1,1.48-2,17.94,17.94,0,0,1,4.6-2.32s.13-.49-1.16-.62-1.08.4-3.75.76a5,5,0,0,1-4.52-1.32c-.76-.62-2.43-1.86-2.43-1.86s-.7-.22-.89,2.56.42,4.73.75,5,1.1-1.75.33.25a5.28,5.28,0,0,1-2.45,2.78l1.69-.78"/><path class="cls-15" d="M200.06,467.87s7-4.3,7.76-4.58.16.55,1.88-2.11,2.42-3,2.42-3l-.7.31a3.74,3.74,0,0,1-1.63,1.72,14.12,14.12,0,0,0-2.83,1.65c-1.25.86-2.64,1.71-3.64,2.32A23.35,23.35,0,0,0,200.06,467.87Z"/><path class="cls-15" d="M215.63,455a14.73,14.73,0,0,0,.56-3.14c-.1-.73-1.27-.51,0-2.23s1.64-2.16,1.64-2.16l-.91-1.34a2.06,2.06,0,0,0-1.4,1.85,3.32,3.32,0,0,1-.94,2.63c-.72,1-1.5,1.54-.87,2.3a7.11,7.11,0,0,1,1,1.79l-1.55,3.5,1.89-2.5Z"/></svg>