<svg id="Layer_1" data-name="Layer 1" xmlns="http://www.w3.org/2000/svg" xmlns:xlink="http://www.w3.org/1999/xlink" viewBox="0 0 400 578.47"><defs><style>.cls-1,.cls-8{fill:none;}.cls-2{fill:#343841;}.cls-3{fill:url(#linear-gradient);}.cls-4{fill:url(#linear-gradient-2);}.cls-5{fill:url(#radial-gradient);}.cls-6{fill:url(#radial-gradient-2);}.cls-7{fill:url(#linear-gradient-3);}.cls-8{stroke-miterlimit:10;stroke-width:0.5px;stroke:url(#linear-gradient-4);}.cls-9{opacity:0.25;fill:url(#radial-gradient-3);}.cls-10{clip-path:url(#clip-path);}.cls-11{fill:url(#linear-gradient-5);}.cls-12{fill:#dcddda;}.cls-13{fill:#fdfffd;}.cls-14{fill:#bebfbe;}.cls-15{fill:#e2e8e2;}</style><linearGradient id="linear-gradient" x1="175.34" y1="275.89" x2="183.25" y2="275.89" gradientUnits="userSpaceOnUse"><stop offset="0" stop-color="#593021"/><stop offset="0" stop-color="#7a4a3d"/><stop offset="0" stop-color="#231f20"/><stop offset="0.67" stop-color="#6d6e71"/><stop offset="1" stop-color="#6d6e71"/></linearGradient><linearGradient id="linear-gradient-2" x1="149.55" y1="211.12" x2="210.28" y2="211.12" gradientUnits="userSpaceOnUse"><stop offset="0" stop-color="#593021"/><stop offset="0.3" stop-color="#7a4a3d"/><stop offset="0.49" stop-color="#562e24"/><stop offset="0.75" stop-color="#35190f"/><stop offset="0.89" stop-color="#764b3d"/><stop offset="1" stop-color="#613121"/></linearGradient><radialGradient id="radial-gradient" cx="-658.82" cy="190.63" r="29.13" gradientTransform="translate(1092.75 86.3) scale(1.39 0.55)" gradientUnits="userSpaceOnUse"><stop offset="0" stop-color="#593021"/><stop offset="0" stop-color="#7a4a3d"/><stop offset="0" stop-color="#562e24"/><stop offset="0" stop-color="#68382a"/><stop offset="1" stop-color="#35190f"/></radialGradient><radialGradient id="radial-gradient-2" cx="205.15" cy="468.45" r="24.01" gradientUnits="userSpaceOnUse"><stop offset="0" stop-color="#593021"/><stop offset="0" stop-color="#7a4a3d"/><stop offset="0" stop-color="#231f20"/><stop offset="0.32" stop-color="#414042"/><stop offset="0.76" stop-color="#666668"/></radialGradient><linearGradient id="linear-gradient-3" x1="172.88" y1="457.84" x2="237.41" y2="457.84" xlink:href="#linear-gradient"/><linearGradient id="linear-gradient-4" x1="172.63" y1="457.84" x2="237.66" y2="457.84" gradientUnits="userSpaceOnUse"><stop offset="0" stop-color="#593021"/><stop offset="0" stop-color="#7a4a3d"/><stop offset="0" stop-color="#939598"/><stop offset="0.67" stop-color="#58595b"/><stop offset="1" stop-color="#6d6e71"/></linearGradient><radialGradient id="radial-gradient-3" cx="-860.07" cy="-79.77" r="10.64" gradientTransform="translate(1391.42 518.15) scale(1.39 0.76)" gradientUnits="userSpaceOnUse"><stop offset="0" stop-color="#fff" stop-opacity="0.4"/><stop offset="0" stop-color="#fff" stop-opacity="0.6"/><stop offset="0.71" stop-color="#fff" stop-opacity="0"/></radialGradient><clipPath id="clip-path"><rect class="cls-1" x="165.84" y="76.26" width="26.9" height="114.58"/></clipPath><linearGradient id="linear-gradient-5" x1="175.44" y1="275.89" x2="183.34" y2="275.89" xlink:href="#linear-gradient"/></defs><title>Artboard 5 copy 11</title><rect class="cls-2" x="-9.8" y="-6.44" width="409.89" height="586.12"/><rect class="cls-3" x="175.34" y="86.39" width="7.9" height="378.99" rx="3.53"/><path class="cls-4" d="M210.28,190.12H149.55l3,37.63a.64.64,0,0,0-.12.34c0,2.23,12.27,4,27.41,4s27.42-1.8,27.42-4h0Z"/><ellipse class="cls-5" cx="179.92" cy="190.63" rx="30.36" ry="4.7"/><path class="cls-6" d="M172.94,457.84c0,.24-.06.48-.06.72,0,11.32,14.45,20.49,32.27,20.49s32.26-9.17,32.26-20.49c0-.24,0-.48-.06-.72Z"/><ellipse class="cls-7" cx="205.15" cy="457.84" rx="32.26" ry="11.91"/><ellipse class="cls-8" cx="205.15" cy="457.84" rx="32.26" ry="11.91"/><ellipse class="cls-9" cx="192.69" cy="460.99" rx="15.66" ry="14.07" transform="translate(-69.52 35.68) rotate(-8.97)"/><g class="cls-10"><rect class="cls-11" x="175.44" y="86.39" width="7.9" height="378.99" rx="3.53"/></g><path class="cls-12" d="M193.9,468.64s11.14,2.31,27.23-.95c0,0,10.4-1.26,11.56-3.89s-7.88-5.89-9.88-4.2-10.41-1.58-13.88-1.37-13.77-.42-14.5,1.79-8.1.94-8.1,3.47S184.23,467.69,193.9,468.64Z"/><path class="cls-13" d="M210.51,459.7s1.26-3.47,4.73-1.05,3.57,1.37,7.46,2.1,6.63,2.21,3.05,3.26,3.47,3.36-5.57,1.47-6.31-2.84-9.57-2.31-2.41,1.37-4.31,1.16-3.25-.84-3.15-2.11S206.09,459.39,210.51,459.7Z"/><path class="cls-14" d="M194.85,463.8c1.57.42,3.36,3.15,7.25,2.84s5.05-1.05,7.25-.42,7.05-.11,6,1-1.26,1.26-4.41,1.05.42-.53-6-.31-5.47,1.57-8.62.21-5.15-1-5.57-2.84S194.85,463.8,194.85,463.8Z"/><path class="cls-15" d="M209.77,466.55a21.81,21.81,0,0,1,5,.34c2.17.47,2.25.2,3.77-.41s.32.75-.72,1.09a13.21,13.21,0,0,1-4.25.82c-1.76,0-6.26.47-5.77-.48A3.58,3.58,0,0,1,209.77,466.55Z"/></svg>