<svg id="Layer_1" data-name="Layer 1" xmlns="http://www.w3.org/2000/svg" xmlns:xlink="http://www.w3.org/1999/xlink" viewBox="0 0 400 400"><defs><style>.cls-1{fill:#343841;}.cls-2{fill:url(#linear-gradient);}.cls-3{fill:url(#linear-gradient-2);}.cls-4{fill:url(#linear-gradient-3);}.cls-5{fill:url(#linear-gradient-4);}.cls-6{fill:url(#linear-gradient-5);}.cls-10,.cls-12,.cls-7,.cls-8{stroke:#fff;stroke-miterlimit:10;stroke-width:1.09px;opacity:0.33;}.cls-7{fill:url(#radial-gradient);}.cls-8{fill:url(#radial-gradient-2);}.cls-9{fill:url(#linear-gradient-6);}.cls-10{fill:url(#radial-gradient-3);}.cls-11,.cls-12{fill:url(#radial-gradient-4);}.cls-13{fill:url(#radial-gradient-6);}</style><linearGradient id="linear-gradient" x1="178.47" y1="229.19" x2="235.83" y2="229.19" gradientUnits="userSpaceOnUse"><stop offset="0" stop-color="#fff" stop-opacity="0.8"/><stop offset="0.5" stop-color="#fff" stop-opacity="0.2"/><stop offset="1" stop-color="#fff" stop-opacity="0.8"/></linearGradient><linearGradient id="linear-gradient-2" x1="178.4" y1="229.19" x2="235.76" y2="229.19" xlink:href="#linear-gradient"/><linearGradient id="linear-gradient-3" x1="179.92" y1="151.88" x2="234.31" y2="151.88" gradientUnits="userSpaceOnUse"><stop offset="0" stop-color="#fff" stop-opacity="0.5"/><stop offset="0.5" stop-color="#fff" stop-opacity="0.2"/><stop offset="1" stop-color="#fff" stop-opacity="0.4"/></linearGradient><linearGradient id="linear-gradient-4" x1="194.3" y1="181.46" x2="219.93" y2="181.46" xlink:href="#linear-gradient"/><linearGradient id="linear-gradient-5" x1="186.65" y1="191.79" x2="227.57" y2="191.79" xlink:href="#linear-gradient"/><radialGradient id="radial-gradient" cx="207.11" cy="181.46" r="9.8" gradientUnits="userSpaceOnUse"><stop offset="0" stop-color="#fff" stop-opacity="0.4"/><stop offset="0" stop-color="#fff" stop-opacity="0.6"/><stop offset="0.45" stop-color="#fff" stop-opacity="0.3"/><stop offset="0.95" stop-color="#fff" stop-opacity="0"/></radialGradient><radialGradient id="radial-gradient-2" cx="207.11" cy="191.79" r="14.9" xlink:href="#radial-gradient"/><linearGradient id="linear-gradient-6" x1="601.63" y1="201.89" x2="642.55" y2="201.89" gradientTransform="translate(-679.81) scale(1.43 1)" xlink:href="#linear-gradient"/><radialGradient id="radial-gradient-3" cx="622.09" cy="201.89" r="14.9" gradientTransform="translate(-679.81) scale(1.43 1)" xlink:href="#radial-gradient"/><radialGradient id="radial-gradient-4" cx="207.11" cy="151.88" r="27.19" xlink:href="#radial-gradient"/><radialGradient id="radial-gradient-6" cx="529.57" cy="-661.15" r="15.29" gradientTransform="matrix(0, 0.94, -0.48, 0, -107.48, -359.23)" gradientUnits="userSpaceOnUse"><stop offset="0" stop-color="#fff" stop-opacity="0.4"/><stop offset="0" stop-color="#fff" stop-opacity="0.6"/><stop offset="0.79" stop-color="#fff" stop-opacity="0"/></radialGradient></defs><title>Artboard 5 copy 18</title><rect class="cls-1" x="-0.66" y="-1.98" width="404.72" height="403.2"/><path class="cls-2" d="M235.83,204.51a7.63,7.63,0,0,1-5.27,2.09H183.74a7.63,7.63,0,0,1-5.27-2.09l5.12,44.61a1.11,1.11,0,0,0-.08.3c0,2.45,10.55,4.44,23.57,4.44,12.45,0,22.63-1.82,23.48-4.13h.08Z"/><path class="cls-3" d="M230.57,242.36h-.09c-.85,2.31-11,4.14-23.48,4.14-13,0-23.56-2-23.56-4.45a1,1,0,0,1,.07-.29l-4.19-36.53a7.12,7.12,0,0,1-.92-.72l5.11,44.61a1.09,1.09,0,0,0-.07.3c0,2.45,10.55,4.44,23.56,4.44,12.46,0,22.63-1.82,23.48-4.13h.09l5.19-45.22a8,8,0,0,1-.93.72Z"/><circle class="cls-4" cx="207.11" cy="151.88" r="27.19"/><rect class="cls-5" x="194.3" y="176.18" width="25.63" height="10.56" rx="3.12"/><rect class="cls-6" x="186.65" y="186.74" width="40.92" height="10.1" rx="3.12"/><rect class="cls-7" x="194.3" y="176.18" width="25.63" height="10.56" rx="3.12"/><rect class="cls-8" x="186.65" y="186.74" width="40.92" height="10.1" rx="3.12"/><rect class="cls-9" x="177.95" y="196.84" width="58.34" height="10.1" rx="3.12"/><rect class="cls-10" x="177.95" y="196.84" width="58.34" height="10.1" rx="3.12"/><circle class="cls-11" cx="207.11" cy="151.88" r="27.19"/><circle class="cls-12" cx="207.11" cy="151.88" r="27.19"/><ellipse class="cls-13" cx="207.11" cy="137.74" rx="12.15" ry="14.52" transform="translate(42.29 324.02) rotate(-82.12)"/></svg>