<svg id="Layer_1" data-name="Layer 1" xmlns="http://www.w3.org/2000/svg" xmlns:xlink="http://www.w3.org/1999/xlink" viewBox="0 0 1024 1024"><defs><style>.cls-1,.cls-10,.cls-128,.cls-136,.cls-142,.cls-144,.cls-153,.cls-162,.cls-166,.cls-172,.cls-174,.cls-179,.cls-186,.cls-193,.cls-195,.cls-23,.cls-25,.cls-45,.cls-5,.cls-57,.cls-59,.cls-6,.cls-69,.cls-71,.cls-79,.cls-81,.cls-88,.cls-95{fill:none;}.cls-2{fill:#343841;}.cls-3{fill:url(#radial-gradient);}.cls-4{fill:url(#radial-gradient-2);}.cls-10,.cls-128,.cls-136,.cls-142,.cls-144,.cls-153,.cls-16,.cls-162,.cls-166,.cls-17,.cls-172,.cls-174,.cls-179,.cls-186,.cls-19,.cls-193,.cls-195,.cls-21,.cls-23,.cls-25,.cls-32,.cls-38,.cls-44,.cls-45,.cls-5,.cls-52,.cls-57,.cls-59,.cls-6,.cls-69,.cls-71,.cls-79,.cls-81,.cls-88{stroke-miterlimit:10;}.cls-5{stroke:url(#linear-gradient);}.cls-6{stroke:url(#linear-gradient-2);}.cls-7{fill:url(#linear-gradient-3);}.cls-8{fill:url(#linear-gradient-4);}.cls-9{fill:url(#linear-gradient-5);}.cls-10{stroke:url(#linear-gradient-6);}.cls-11{fill:url(#linear-gradient-7);}.cls-12{fill:url(#linear-gradient-8);}.cls-13{fill:url(#linear-gradient-9);}.cls-14{fill:url(#linear-gradient-10);}.cls-15{fill:url(#linear-gradient-11);}.cls-16,.cls-17,.cls-19,.cls-21,.cls-88,.cls-95{stroke:#fff;opacity:0.33;}.cls-16{fill:url(#radial-gradient-3);}.cls-17{fill:url(#radial-gradient-4);}.cls-18{fill:url(#linear-gradient-12);}.cls-19{fill:url(#radial-gradient-5);}.cls-20,.cls-21{fill:url(#radial-gradient-6);}.cls-22{fill:url(#radial-gradient-8);}.cls-136,.cls-166,.cls-179,.cls-23,.cls-25,.cls-45{stroke-width:1.35px;opacity:0.4;}.cls-23{stroke:url(#linear-gradient-13);}.cls-137,.cls-142,.cls-144,.cls-167,.cls-172,.cls-174,.cls-180,.cls-193,.cls-195,.cls-198,.cls-24,.cls-26,.cls-46,.cls-57,.cls-59,.cls-63,.cls-69,.cls-71,.cls-79,.cls-81{opacity:0.53;}.cls-24{fill:url(#linear-gradient-14);}.cls-25{stroke:url(#linear-gradient-15);}.cls-26{fill:url(#linear-gradient-16);}.cls-27{fill:url(#linear-gradient-17);}.cls-28{fill:url(#linear-gradient-18);}.cls-29{fill:url(#radial-gradient-9);}.cls-30{clip-path:url(#clip-path);}.cls-31{fill:url(#linear-gradient-19);}.cls-32{fill:url(#linear-gradient-20);stroke:url(#linear-gradient-21);}.cls-33{fill:url(#linear-gradient-22);}.cls-34{fill:url(#linear-gradient-23);}.cls-35{fill:url(#radial-gradient-10);}.cls-36{clip-path:url(#clip-path-2);}.cls-37{fill:url(#linear-gradient-24);}.cls-38{fill:url(#linear-gradient-25);stroke:url(#linear-gradient-26);}.cls-39{fill:url(#linear-gradient-27);}.cls-40{fill:url(#linear-gradient-28);}.cls-41{fill:url(#radial-gradient-11);}.cls-42{clip-path:url(#clip-path-3);}.cls-43{fill:url(#linear-gradient-29);}.cls-44{fill:url(#linear-gradient-30);stroke:url(#linear-gradient-31);}.cls-45{stroke:url(#linear-gradient-32);}.cls-46{fill:url(#linear-gradient-33);}.cls-47{fill:url(#linear-gradient-34);}.cls-48{fill:url(#linear-gradient-35);}.cls-49{fill:url(#radial-gradient-12);}.cls-50{clip-path:url(#clip-path-4);}.cls-51{fill:url(#linear-gradient-36);}.cls-52{fill:url(#linear-gradient-37);stroke:url(#linear-gradient-38);}.cls-190,.cls-53,.cls-54{opacity:0.96;}.cls-53{fill:url(#linear-gradient-39);}.cls-54{fill:url(#linear-gradient-40);}.cls-191,.cls-55{opacity:0.44;}.cls-55{fill:url(#linear-gradient-41);}.cls-56{fill:url(#linear-gradient-42);}.cls-57{stroke:url(#linear-gradient-43);}.cls-194,.cls-58{opacity:0.51;}.cls-58{fill:url(#linear-gradient-44);}.cls-59{stroke:url(#linear-gradient-45);}.cls-60{fill:url(#radial-gradient-13);}.cls-202,.cls-61{opacity:0.61;}.cls-62{fill:url(#radial-gradient-14);}.cls-63{fill:url(#radial-gradient-15);}.cls-64,.cls-65{fill:#fff;}.cls-65{font-size:12.58px;font-family:MyriadPro-Regular, Myriad Pro;}.cls-66{fill:url(#linear-gradient-46);}.cls-67{fill:url(#linear-gradient-47);}.cls-68{fill:url(#linear-gradient-48);}.cls-69{stroke:url(#linear-gradient-49);}.cls-143,.cls-173,.cls-70,.cls-80{opacity:0.85;}.cls-70{fill:url(#linear-gradient-50);}.cls-71{stroke:url(#linear-gradient-51);}.cls-72{fill:url(#radial-gradient-16);}.cls-73{fill:url(#radial-gradient-17);}.cls-74{fill:url(#radial-gradient-18);}.cls-75{fill:url(#linear-gradient-52);}.cls-76{fill:url(#linear-gradient-53);}.cls-77{fill:url(#linear-gradient-54);}.cls-78{fill:url(#linear-gradient-55);}.cls-79{stroke:url(#linear-gradient-56);}.cls-80{fill:url(#linear-gradient-57);}.cls-81{stroke:url(#linear-gradient-58);}.cls-82{fill:url(#radial-gradient-19);}.cls-83{fill:url(#radial-gradient-20);}.cls-84{fill:url(#radial-gradient-21);}.cls-85{fill:url(#radial-gradient-22);}.cls-86{fill:url(#radial-gradient-23);}.cls-87{fill:url(#radial-gradient-24);}.cls-108,.cls-109,.cls-89,.cls-90{opacity:0.07;}.cls-89{fill:url(#linear-gradient-59);}.cls-90{fill:url(#linear-gradient-60);}.cls-91{fill:url(#radial-gradient-25);}.cls-92{fill:url(#radial-gradient-26);}.cls-93{fill:url(#linear-gradient-61);}.cls-94{fill:url(#linear-gradient-62);}.cls-95{stroke-linecap:round;stroke-linejoin:round;}.cls-96{fill:url(#radial-gradient-27);}.cls-97{fill:url(#linear-gradient-63);}.cls-98{fill:url(#linear-gradient-64);}.cls-99{fill:url(#linear-gradient-65);}.cls-100{fill:url(#linear-gradient-66);}.cls-101{fill:url(#radial-gradient-28);}.cls-102{fill:url(#radial-gradient-29);}.cls-103{fill:url(#radial-gradient-30);}.cls-104{fill:url(#radial-gradient-31);}.cls-105{fill:url(#radial-gradient-32);}.cls-106{fill:url(#radial-gradient-33);}.cls-107{fill:url(#radial-gradient-34);}.cls-108{fill:url(#linear-gradient-67);}.cls-109{fill:url(#linear-gradient-68);}.cls-110{fill:url(#radial-gradient-35);}.cls-111{fill:url(#radial-gradient-36);}.cls-112{fill:url(#linear-gradient-69);}.cls-113{fill:url(#linear-gradient-70);}.cls-114{fill:url(#radial-gradient-37);}.cls-115{fill:url(#linear-gradient-71);}.cls-116{fill:url(#linear-gradient-72);}.cls-117{fill:url(#linear-gradient-73);}.cls-118{fill:url(#linear-gradient-74);}.cls-119{fill:url(#radial-gradient-38);}.cls-120{fill:url(#radial-gradient-39);}.cls-121{fill:url(#radial-gradient-40);}.cls-122{fill:url(#radial-gradient-41);}.cls-123{fill:url(#linear-gradient-75);}.cls-124{fill:url(#linear-gradient-76);}.cls-125{fill:url(#radial-gradient-42);}.cls-126{fill:url(#radial-gradient-43);}.cls-127{fill:url(#linear-gradient-77);}.cls-128,.cls-153,.cls-162,.cls-186{stroke-width:0.5px;}.cls-128{stroke:url(#linear-gradient-78);}.cls-129,.cls-154,.cls-163,.cls-187{opacity:0.25;}.cls-129{fill:url(#radial-gradient-44);}.cls-130{clip-path:url(#clip-path-5);}.cls-131{fill:url(#linear-gradient-79);}.cls-132{fill:#dcddda;}.cls-133{fill:#e2e8e2;}.cls-134{fill:#bebfbe;}.cls-135{fill:#fdfffd;}.cls-136{stroke:url(#linear-gradient-80);}.cls-137{fill:url(#linear-gradient-81);}.cls-138{fill:url(#linear-gradient-82);}.cls-139{fill:url(#linear-gradient-83);}.cls-140{fill:url(#linear-gradient-84);}.cls-141{fill:url(#linear-gradient-85);}.cls-142{stroke:url(#linear-gradient-86);}.cls-143{fill:url(#linear-gradient-87);}.cls-144{stroke:url(#linear-gradient-88);}.cls-145{fill:url(#radial-gradient-45);}.cls-146{fill:url(#radial-gradient-46);}.cls-147{fill:url(#radial-gradient-47);}.cls-148{fill:url(#linear-gradient-89);}.cls-149{fill:url(#linear-gradient-90);}.cls-150{fill:url(#radial-gradient-48);}.cls-151{fill:url(#radial-gradient-49);}.cls-152{fill:url(#linear-gradient-91);}.cls-153{stroke:url(#linear-gradient-92);}.cls-154{fill:url(#radial-gradient-50);}.cls-155{clip-path:url(#clip-path-6);}.cls-156{fill:url(#linear-gradient-93);}.cls-157{fill:url(#linear-gradient-94);}.cls-158{fill:url(#linear-gradient-95);}.cls-159{fill:url(#radial-gradient-51);}.cls-160{fill:url(#radial-gradient-52);}.cls-161{fill:url(#linear-gradient-96);}.cls-162{stroke:url(#linear-gradient-97);}.cls-163{fill:url(#radial-gradient-53);}.cls-164{clip-path:url(#clip-path-7);}.cls-165{fill:url(#linear-gradient-98);}.cls-166{stroke:url(#linear-gradient-99);}.cls-167{fill:url(#linear-gradient-100);}.cls-168{fill:url(#linear-gradient-101);}.cls-169{fill:url(#linear-gradient-102);}.cls-170{fill:url(#linear-gradient-103);}.cls-171{fill:url(#linear-gradient-104);}.cls-172{stroke:url(#linear-gradient-105);}.cls-173{fill:url(#linear-gradient-106);}.cls-174{stroke:url(#linear-gradient-107);}.cls-175{fill:url(#radial-gradient-54);}.cls-176{fill:url(#radial-gradient-55);}.cls-177{fill:url(#radial-gradient-56);}.cls-178{opacity:0.32;fill:url(#linear-gradient-108);}.cls-179{stroke:url(#linear-gradient-109);}.cls-180{fill:url(#linear-gradient-110);}.cls-181{fill:url(#linear-gradient-111);}.cls-182{fill:url(#linear-gradient-112);}.cls-183{fill:url(#radial-gradient-57);}.cls-184{fill:url(#radial-gradient-58);}.cls-185{fill:url(#linear-gradient-113);}.cls-186{stroke:url(#linear-gradient-114);}.cls-187{fill:url(#radial-gradient-59);}.cls-188{clip-path:url(#clip-path-8);}.cls-189{fill:url(#linear-gradient-115);}.cls-190{fill:url(#linear-gradient-116);}.cls-191{fill:url(#linear-gradient-117);}.cls-192{fill:url(#linear-gradient-118);}.cls-193{stroke:url(#linear-gradient-119);}.cls-194{fill:url(#linear-gradient-120);}.cls-195{stroke:url(#linear-gradient-121);}.cls-196{fill:url(#radial-gradient-60);}.cls-197{fill:url(#radial-gradient-61);}.cls-198{fill:url(#radial-gradient-62);}.cls-199{fill:url(#radial-gradient-63);}.cls-200{opacity:0.31;fill:url(#radial-gradient-64);}.cls-201{opacity:0.28;fill:url(#radial-gradient-65);}.cls-202{fill:url(#radial-gradient-66);}.cls-203,.cls-204{opacity:0.26;}.cls-203{fill:url(#radial-gradient-67);}.cls-204{fill:url(#radial-gradient-68);}.cls-205{opacity:0.54;fill:url(#radial-gradient-69);}</style><radialGradient id="radial-gradient" cx="759.17" cy="54.52" r="32.92" gradientUnits="userSpaceOnUse"><stop offset="0" stop-color="#fff" stop-opacity="0.5"/><stop offset="0.5" stop-color="#fff" stop-opacity="0.2"/><stop offset="1" stop-color="#fff" stop-opacity="0.4"/></radialGradient><radialGradient id="radial-gradient-2" cx="759.17" cy="54.52" r="23.6" xlink:href="#radial-gradient"/><linearGradient id="linear-gradient" x1="725.75" y1="54.52" x2="792.59" y2="54.52" xlink:href="#radial-gradient"/><linearGradient id="linear-gradient-2" x1="735.07" y1="54.52" x2="783.27" y2="54.52" xlink:href="#radial-gradient"/><linearGradient id="linear-gradient-3" x1="732.94" y1="115.8" x2="785.73" y2="115.8" gradientUnits="userSpaceOnUse"><stop offset="0" stop-color="#fff" stop-opacity="0.8"/><stop offset="0.5" stop-color="#fff" stop-opacity="0.2"/><stop offset="1" stop-color="#fff" stop-opacity="0.8"/></linearGradient><linearGradient id="linear-gradient-4" x1="732.88" y1="115.8" x2="785.66" y2="115.8" xlink:href="#linear-gradient-3"/><linearGradient id="linear-gradient-5" x1="742.48" y1="-160.92" x2="775.63" y2="-160.92" gradientTransform="translate(0 160.89) scale(1 0.5)" xlink:href="#linear-gradient-3"/><linearGradient id="linear-gradient-6" x1="730.01" y1="80.43" x2="788.33" y2="80.43" xlink:href="#radial-gradient"/><linearGradient id="linear-gradient-7" x1="821.57" y1="111.65" x2="874.35" y2="111.65" xlink:href="#linear-gradient-3"/><linearGradient id="linear-gradient-8" x1="821.5" y1="111.65" x2="874.28" y2="111.65" xlink:href="#linear-gradient-3"/><linearGradient id="linear-gradient-9" x1="822.9" y1="40.51" x2="872.95" y2="40.51" xlink:href="#radial-gradient"/><linearGradient id="linear-gradient-10" x1="836.13" y1="67.74" x2="859.72" y2="67.74" xlink:href="#linear-gradient-3"/><linearGradient id="linear-gradient-11" x1="829.1" y1="77.24" x2="866.75" y2="77.24" xlink:href="#linear-gradient-3"/><radialGradient id="radial-gradient-3" cx="847.92" cy="67.74" r="9.02" gradientUnits="userSpaceOnUse"><stop offset="0" stop-color="#fff" stop-opacity="0.4"/><stop offset="0" stop-color="#fff" stop-opacity="0.6"/><stop offset="0.45" stop-color="#fff" stop-opacity="0.3"/><stop offset="0.95" stop-color="#fff" stop-opacity="0"/></radialGradient><radialGradient id="radial-gradient-4" cx="847.92" cy="77.24" r="13.71" xlink:href="#radial-gradient-3"/><linearGradient id="linear-gradient-12" x1="459.74" y1="86.53" x2="497.4" y2="86.53" gradientTransform="translate(165.62) scale(1.43 1)" xlink:href="#linear-gradient-3"/><radialGradient id="radial-gradient-5" cx="478.57" cy="86.53" r="13.71" gradientTransform="translate(165.62) scale(1.43 1)" xlink:href="#radial-gradient-3"/><radialGradient id="radial-gradient-6" cx="847.92" cy="40.51" r="25.02" xlink:href="#radial-gradient-3"/><radialGradient id="radial-gradient-8" cx="980.84" cy="-171.43" r="14.07" gradientTransform="matrix(0, 0.94, -0.48, 0, 768.41, -894.87)" gradientUnits="userSpaceOnUse"><stop offset="0" stop-color="#fff" stop-opacity="0.4"/><stop offset="0" stop-color="#fff" stop-opacity="0.6"/><stop offset="0.79" stop-color="#fff" stop-opacity="0"/></radialGradient><linearGradient id="linear-gradient-13" x1="432.03" y1="1003.16" x2="432.03" y2="963.57" gradientUnits="userSpaceOnUse"><stop offset="0" stop-color="#fff" stop-opacity="0.1"/><stop offset="1" stop-color="#fff" stop-opacity="0.6"/></linearGradient><linearGradient id="linear-gradient-14" x1="346.29" y1="982.77" x2="517.76" y2="982.77" gradientUnits="userSpaceOnUse"><stop offset="0" stop-color="#fff" stop-opacity="0.4"/><stop offset="0.53" stop-color="#fff" stop-opacity="0.7"/><stop offset="1" stop-color="#fff" stop-opacity="0.4"/></linearGradient><linearGradient id="linear-gradient-15" x1="655.32" y1="1003.16" x2="655.32" y2="963.57" xlink:href="#linear-gradient-13"/><linearGradient id="linear-gradient-16" x1="569.58" y1="982.77" x2="741.05" y2="982.77" xlink:href="#linear-gradient-14"/><linearGradient id="linear-gradient-17" x1="427.32" y1="736.34" x2="435.45" y2="736.34" gradientUnits="userSpaceOnUse"><stop offset="0" stop-color="#593021"/><stop offset="0" stop-color="#7a4a3d"/><stop offset="0" stop-color="#231f20"/><stop offset="0.67" stop-color="#6d6e71"/><stop offset="1" stop-color="#6d6e71"/></linearGradient><linearGradient id="linear-gradient-18" x1="400.78" y1="705.11" x2="463.27" y2="705.11" gradientUnits="userSpaceOnUse"><stop offset="0" stop-color="#593021"/><stop offset="0.3" stop-color="#7a4a3d"/><stop offset="0.49" stop-color="#562e24"/><stop offset="0.75" stop-color="#35190f"/><stop offset="0.89" stop-color="#764b3d"/><stop offset="1" stop-color="#613121"/></linearGradient><radialGradient id="radial-gradient-9" cx="341.34" cy="684.01" r="29.98" gradientTransform="translate(-40.92 309.68) scale(1.39 0.55)" gradientUnits="userSpaceOnUse"><stop offset="0" stop-color="#593021"/><stop offset="0" stop-color="#7a4a3d"/><stop offset="0" stop-color="#562e24"/><stop offset="0" stop-color="#68382a"/><stop offset="1" stop-color="#35190f"/></radialGradient><clipPath id="clip-path"><rect class="cls-1" x="417.54" y="566.32" width="27.68" height="117.92"/></clipPath><linearGradient id="linear-gradient-19" x1="427.42" y1="771.76" x2="435.55" y2="771.76" xlink:href="#linear-gradient-17"/><linearGradient id="linear-gradient-20" x1="421.07" y1="927.04" x2="441.7" y2="927.04" gradientUnits="userSpaceOnUse"><stop offset="0" stop-color="#593021"/><stop offset="0" stop-color="#7a4a3d"/><stop offset="0" stop-color="#231f20"/><stop offset="0.6" stop-color="#58595b"/><stop offset="1" stop-color="#6d6e71"/></linearGradient><linearGradient id="linear-gradient-21" x1="420.57" y1="927.04" x2="442.2" y2="927.04" xlink:href="#linear-gradient-17"/><linearGradient id="linear-gradient-22" x1="650.99" y1="736.34" x2="659.12" y2="736.34" xlink:href="#linear-gradient-17"/><linearGradient id="linear-gradient-23" x1="624.45" y1="705.11" x2="686.94" y2="705.11" xlink:href="#linear-gradient-18"/><radialGradient id="radial-gradient-10" cx="502.77" cy="684.01" r="29.98" xlink:href="#radial-gradient-9"/><clipPath id="clip-path-2"><rect class="cls-1" x="641.22" y="566.32" width="27.68" height="117.92"/></clipPath><linearGradient id="linear-gradient-24" x1="651.09" y1="771.76" x2="659.23" y2="771.76" xlink:href="#linear-gradient-17"/><linearGradient id="linear-gradient-25" x1="644.74" y1="927.04" x2="665.37" y2="927.04" xlink:href="#linear-gradient-20"/><linearGradient id="linear-gradient-26" x1="644.24" y1="927.04" x2="665.87" y2="927.04" xlink:href="#linear-gradient-17"/><linearGradient id="linear-gradient-27" x1="247.39" y1="731.73" x2="255.52" y2="731.73" xlink:href="#linear-gradient-17"/><linearGradient id="linear-gradient-28" x1="220.85" y1="700.49" x2="283.34" y2="700.49" xlink:href="#linear-gradient-18"/><radialGradient id="radial-gradient-11" cx="211.48" cy="679.4" r="29.98" gradientTransform="translate(-40.92 307.59) scale(1.39 0.55)" xlink:href="#radial-gradient-9"/><clipPath id="clip-path-3"><rect class="cls-1" x="237.61" y="561.7" width="27.68" height="117.92"/></clipPath><linearGradient id="linear-gradient-29" x1="247.49" y1="767.15" x2="255.62" y2="767.15" xlink:href="#linear-gradient-17"/><linearGradient id="linear-gradient-30" x1="241.14" y1="922.43" x2="261.77" y2="922.43" xlink:href="#linear-gradient-20"/><linearGradient id="linear-gradient-31" x1="240.64" y1="922.43" x2="262.27" y2="922.43" xlink:href="#linear-gradient-17"/><linearGradient id="linear-gradient-32" x1="908.76" y1="1003.16" x2="908.76" y2="963.57" xlink:href="#linear-gradient-13"/><linearGradient id="linear-gradient-33" x1="823.02" y1="982.77" x2="994.5" y2="982.77" xlink:href="#linear-gradient-14"/><linearGradient id="linear-gradient-34" x1="904.43" y1="736.34" x2="912.57" y2="736.34" xlink:href="#linear-gradient-17"/><linearGradient id="linear-gradient-35" x1="877.89" y1="705.11" x2="940.39" y2="705.11" xlink:href="#linear-gradient-18"/><radialGradient id="radial-gradient-12" cx="685.69" cy="684.01" r="29.98" xlink:href="#radial-gradient-9"/><clipPath id="clip-path-4"><rect class="cls-1" x="894.66" y="566.32" width="27.68" height="117.92"/></clipPath><linearGradient id="linear-gradient-36" x1="904.54" y1="771.76" x2="912.67" y2="771.76" xlink:href="#linear-gradient-17"/><linearGradient id="linear-gradient-37" x1="898.18" y1="927.04" x2="918.82" y2="927.04" xlink:href="#linear-gradient-20"/><linearGradient id="linear-gradient-38" x1="897.68" y1="927.04" x2="919.32" y2="927.04" xlink:href="#linear-gradient-17"/><linearGradient id="linear-gradient-39" x1="909.54" y1="995.62" x2="907.78" y2="706.61" gradientUnits="userSpaceOnUse"><stop offset="0" stop-color="#c88259"/><stop offset="0.1" stop-color="#c37d58"/><stop offset="0.22" stop-color="#b87055"/><stop offset="0.26" stop-color="#b36b51"/><stop offset="0.31" stop-color="#a65c46"/><stop offset="0.32" stop-color="#a25843"/><stop offset="0.47" stop-color="#843c34"/><stop offset="0.64" stop-color="#632220"/><stop offset="1" stop-color="#70312d" stop-opacity="0.8"/></linearGradient><linearGradient id="linear-gradient-40" x1="979.19" y1="963.99" x2="815.49" y2="764.58" gradientUnits="userSpaceOnUse"><stop offset="0" stop-color="#d2945b"/><stop offset="0.05" stop-color="#d1935a" stop-opacity="0.98"/><stop offset="0.12" stop-color="#cd8e59" stop-opacity="0.91"/><stop offset="0.19" stop-color="#c88756" stop-opacity="0.79"/><stop offset="0.26" stop-color="#c07e52" stop-opacity="0.63"/><stop offset="0.34" stop-color="#b6714d" stop-opacity="0.42"/><stop offset="0.42" stop-color="#aa6247" stop-opacity="0.17"/><stop offset="0.46" stop-color="#a25843" stop-opacity="0"/><stop offset="0.85" stop-color="#843c34" stop-opacity="0"/></linearGradient><linearGradient id="linear-gradient-41" x1="831.74" y1="843.9" x2="900.63" y2="861.63" gradientUnits="userSpaceOnUse"><stop offset="0.16" stop-color="#fff" stop-opacity="0.4"/><stop offset="0.42" stop-color="#fff" stop-opacity="0"/></linearGradient><linearGradient id="linear-gradient-42" x1="-5027.01" y1="897.91" x2="-4974.82" y2="911.34" gradientTransform="matrix(-1, 0, 0, 1, -4029.31, 0.33)" xlink:href="#linear-gradient-41"/><linearGradient id="linear-gradient-43" x1="811.45" y1="855.9" x2="1004.55" y2="855.9" gradientUnits="userSpaceOnUse"><stop offset="0" stop-color="#fff" stop-opacity="0.4"/><stop offset="0.2" stop-color="#fff" stop-opacity="0.5"/><stop offset="0.44" stop-color="#fff" stop-opacity="0.62"/><stop offset="0.67" stop-color="#fff" stop-opacity="0.7"/><stop offset="0.92" stop-color="#fff" stop-opacity="0.4"/><stop offset="1" stop-color="#fff" stop-opacity="0.4"/></linearGradient><linearGradient id="linear-gradient-44" x1="870.94" y1="698.83" x2="945.06" y2="698.83" gradientUnits="userSpaceOnUse"><stop offset="0" stop-color="#fff" stop-opacity="0.8"/><stop offset="0.2" stop-color="#fff" stop-opacity="0.9"/><stop offset="0.44" stop-color="#fff" stop-opacity="0.62"/><stop offset="0.67" stop-color="#fff" stop-opacity="0.7"/><stop offset="0.92" stop-color="#fff" stop-opacity="0.4"/><stop offset="1" stop-color="#fff" stop-opacity="0.8"/></linearGradient><linearGradient id="linear-gradient-45" x1="870.44" y1="698.83" x2="945.56" y2="698.83" xlink:href="#linear-gradient-43"/><radialGradient id="radial-gradient-13" cx="-437.54" cy="552.18" r="14.07" gradientTransform="translate(1739.64 516.55) scale(1.88 0.34)" xlink:href="#radial-gradient-8"/><radialGradient id="radial-gradient-14" cx="-753.05" cy="395.99" r="15.45" gradientTransform="matrix(2.35, -0.07, 0.02, 0.65, 2670.55, 473.98)" gradientUnits="userSpaceOnUse"><stop offset="0.09" stop-color="#fff" stop-opacity="0.4"/><stop offset="0.79" stop-color="#fff" stop-opacity="0"/></radialGradient><radialGradient id="radial-gradient-15" cx="899.67" cy="768.32" r="64.92" gradientTransform="matrix(0.31, -1.11, 0.09, 0.04, 518.11, 1837.3)" gradientUnits="userSpaceOnUse"><stop offset="0.06" stop-color="#fff" stop-opacity="0.4"/><stop offset="0.79" stop-color="#fff" stop-opacity="0"/></radialGradient><linearGradient id="linear-gradient-46" x1="337.08" y1="855.9" x2="529.18" y2="855.9" xlink:href="#radial-gradient"/><linearGradient id="linear-gradient-47" x1="356.87" y1="843.9" x2="425.76" y2="861.63" xlink:href="#linear-gradient-41"/><linearGradient id="linear-gradient-48" x1="-4552.14" y1="897.91" x2="-4499.95" y2="911.34" gradientTransform="matrix(-1, 0, 0, 1, -4029.31, 0.33)" xlink:href="#linear-gradient-41"/><linearGradient id="linear-gradient-49" x1="336.58" y1="855.9" x2="529.68" y2="855.9" xlink:href="#linear-gradient-43"/><linearGradient id="linear-gradient-50" x1="396.07" y1="698.83" x2="470.19" y2="698.83" xlink:href="#linear-gradient-44"/><linearGradient id="linear-gradient-51" x1="395.57" y1="698.83" x2="470.69" y2="698.83" xlink:href="#linear-gradient-43"/><radialGradient id="radial-gradient-16" cx="-689.46" cy="552.18" r="14.07" gradientTransform="translate(1739.64 516.55) scale(1.88 0.34)" xlink:href="#radial-gradient-8"/><radialGradient id="radial-gradient-17" cx="-954.8" cy="386.54" r="15.45" gradientTransform="matrix(2.35, -0.07, 0.02, 0.65, 2670.08, 466.24)" xlink:href="#radial-gradient-14"/><radialGradient id="radial-gradient-18" cx="420.19" cy="768.32" r="64.92" gradientTransform="matrix(0.31, -1.11, 0.09, 0.04, 191.65, 1307.43)" xlink:href="#radial-gradient-15"/><linearGradient id="linear-gradient-52" x1="560.29" y1="855.66" x2="752.39" y2="855.66" xlink:href="#radial-gradient"/><linearGradient id="linear-gradient-53" x1="656.17" y1="980.04" x2="654.78" y2="701.96" gradientUnits="userSpaceOnUse"><stop offset="0.02" stop-color="#e9eb9e" stop-opacity="0.9"/><stop offset="0.44" stop-color="#e9eb9e" stop-opacity="0.6"/><stop offset="1" stop-color="#eff2c3" stop-opacity="0.4"/></linearGradient><linearGradient id="linear-gradient-54" x1="580.08" y1="843.66" x2="648.97" y2="861.39" xlink:href="#linear-gradient-41"/><linearGradient id="linear-gradient-55" x1="-4775.35" y1="897.67" x2="-4723.16" y2="911.1" gradientTransform="matrix(-1, 0, 0, 1, -4029.31, 0.33)" xlink:href="#linear-gradient-41"/><linearGradient id="linear-gradient-56" x1="559.79" y1="855.66" x2="752.89" y2="855.66" xlink:href="#linear-gradient-43"/><linearGradient id="linear-gradient-57" x1="619.28" y1="698.59" x2="693.4" y2="698.59" xlink:href="#linear-gradient-44"/><linearGradient id="linear-gradient-58" x1="618.78" y1="698.59" x2="693.9" y2="698.59" xlink:href="#linear-gradient-43"/><radialGradient id="radial-gradient-19" cx="-571.05" cy="551.96" r="14.07" gradientTransform="translate(1739.64 516.38) scale(1.88 0.34)" xlink:href="#radial-gradient-8"/><radialGradient id="radial-gradient-20" cx="-859.96" cy="390.87" r="15.45" gradientTransform="matrix(2.35, -0.07, 0.02, 0.65, 2670.29, 469.71)" xlink:href="#radial-gradient-14"/><radialGradient id="radial-gradient-21" cx="645.57" cy="768.12" r="64.92" gradientTransform="matrix(0.31, -1.11, 0.09, 0.04, 345.12, 1556.26)" xlink:href="#radial-gradient-15"/><radialGradient id="radial-gradient-22" cx="378.92" cy="520.66" r="26.53" gradientUnits="userSpaceOnUse"><stop offset="0" stop-color="#fff" stop-opacity="0.4"/><stop offset="0" stop-color="#fff" stop-opacity="0.6"/><stop offset="0.45" stop-color="#fff" stop-opacity="0.3"/><stop offset="0.95" stop-color="#fff" stop-opacity="0.1"/></radialGradient><radialGradient id="radial-gradient-23" cx="378.53" cy="477.83" r="72.65" gradientTransform="translate(0 244.03) scale(1 0.49)" xlink:href="#radial-gradient-22"/><radialGradient id="radial-gradient-24" cx="378.57" cy="460.48" r="55.77" gradientTransform="translate(0 235.18) scale(1 0.49)" gradientUnits="userSpaceOnUse"><stop offset="0" stop-color="#fff" stop-opacity="0.4"/><stop offset="0.18" stop-color="#fff" stop-opacity="0.3"/><stop offset="0.75" stop-color="#fff" stop-opacity="0"/></radialGradient><linearGradient id="linear-gradient-59" x1="320.99" y1="495.97" x2="436.85" y2="495.97" gradientUnits="userSpaceOnUse"><stop offset="0" stop-color="#27aae1" stop-opacity="0.3"/><stop offset="0.51" stop-color="#a8e7ff"/><stop offset="1" stop-color="#a8e7ff" stop-opacity="0.3"/></linearGradient><linearGradient id="linear-gradient-60" x1="320.99" y1="485.05" x2="436.85" y2="485.05" xlink:href="#linear-gradient-59"/><radialGradient id="radial-gradient-25" cx="379.13" cy="742.64" r="44.26" gradientTransform="translate(0 88.33) scale(1 0.54)" gradientUnits="userSpaceOnUse"><stop offset="0" stop-color="#fff" stop-opacity="0.8"/><stop offset="0.56" stop-color="#fff" stop-opacity="0.6"/><stop offset="1" stop-color="#fff" stop-opacity="0"/></radialGradient><radialGradient id="radial-gradient-26" cx="378.92" cy="584.88" r="17.18" gradientTransform="translate(0 46.45) scale(1 0.72)" xlink:href="#radial-gradient-3"/><linearGradient id="linear-gradient-61" x1="363.28" y1="440.77" x2="394.56" y2="440.77" xlink:href="#radial-gradient"/><linearGradient id="linear-gradient-62" x1="363.78" y1="440.77" x2="369.19" y2="440.77" gradientUnits="userSpaceOnUse"><stop offset="0" stop-color="#fff" stop-opacity="0.5"/><stop offset="0.39" stop-color="#fff" stop-opacity="0.2"/><stop offset="1" stop-color="#fff" stop-opacity="0.4"/></linearGradient><radialGradient id="radial-gradient-27" cx="389.34" cy="443.75" r="7.82" gradientTransform="translate(464.97 52.86) rotate(88.88) scale(1 0.19)" gradientUnits="userSpaceOnUse"><stop offset="0" stop-color="#fff" stop-opacity="0.4"/><stop offset="1" stop-color="#fff" stop-opacity="0"/></radialGradient><linearGradient id="linear-gradient-63" x1="360.86" y1="470.8" x2="400.51" y2="470.8" xlink:href="#radial-gradient"/><linearGradient id="linear-gradient-64" x1="378.21" y1="420.12" x2="381.86" y2="420.12" xlink:href="#radial-gradient"/><linearGradient id="linear-gradient-65" x1="370.05" y1="424.87" x2="387.79" y2="424.87" gradientUnits="userSpaceOnUse"><stop offset="0" stop-color="#fff" stop-opacity="0.8"/><stop offset="0.23" stop-color="#fff" stop-opacity="0.4"/><stop offset="0.5" stop-color="#fff" stop-opacity="0.9"/><stop offset="0.78" stop-color="#fff" stop-opacity="0.5"/><stop offset="1" stop-color="#fff" stop-opacity="0.9"/></linearGradient><linearGradient id="linear-gradient-66" x1="370.36" y1="430.7" x2="387.48" y2="430.7" xlink:href="#linear-gradient-65"/><radialGradient id="radial-gradient-28" cx="379.13" cy="409.41" r="11.86" gradientTransform="translate(0 -97.26) scale(1 1.23)" gradientUnits="userSpaceOnUse"><stop offset="0" stop-color="#0029e9" stop-opacity="0.79"/><stop offset="0" stop-color="#0029e9" stop-opacity="0.8"/><stop offset="0.12" stop-color="#0029e9" stop-opacity="0.79"/><stop offset="0.38" stop-color="#0029e9" stop-opacity="0.6"/><stop offset="0.75" stop-color="#0050ff" stop-opacity="0.3"/><stop offset="1" stop-color="#fff" stop-opacity="0"/></radialGradient><radialGradient id="radial-gradient-29" cx="379.13" cy="402.31" r="8.9" gradientTransform="translate(0 -98.76) scale(1 1.23)" gradientUnits="userSpaceOnUse"><stop offset="0" stop-color="#0029e9" stop-opacity="0.79"/><stop offset="0" stop-color="#f15a29" stop-opacity="0.8"/><stop offset="0.05" stop-color="#f15a29" stop-opacity="0.8"/><stop offset="0.28" stop-color="#f15a29" stop-opacity="0.79"/><stop offset="0.55" stop-color="#f15a29" stop-opacity="0.6"/><stop offset="0.85" stop-color="#ff815b" stop-opacity="0.3"/><stop offset="1" stop-color="#ffbca8" stop-opacity="0.02"/></radialGradient><radialGradient id="radial-gradient-30" cx="377.92" cy="392.69" r="6.41" gradientTransform="translate(0 -100.8) scale(1 1.23)" gradientUnits="userSpaceOnUse"><stop offset="0" stop-color="#0029e9" stop-opacity="0.79"/><stop offset="0" stop-color="#dc9d46"/><stop offset="0.2" stop-color="#d99b47" stop-opacity="0.8"/><stop offset="0.41" stop-color="#e3ab52" stop-opacity="0.7"/><stop offset="0.67" stop-color="#d6963e" stop-opacity="0.3"/><stop offset="1" stop-color="#d8983f" stop-opacity="0"/></radialGradient><radialGradient id="radial-gradient-31" cx="379.13" cy="402.71" fx="363.91630820546624" r="16.02" gradientTransform="translate(187.5 778.51) rotate(-88.99) scale(1 0.46)" gradientUnits="userSpaceOnUse"><stop offset="0" stop-color="#fff" stop-opacity="0.6"/><stop offset="0.19" stop-color="#fff" stop-opacity="0.6"/><stop offset="0.37" stop-color="#fff" stop-opacity="0.2"/><stop offset="0.67" stop-color="#fff" stop-opacity="0.4"/><stop offset="0.78" stop-color="#fff" stop-opacity="0.2"/><stop offset="1" stop-color="#fff" stop-opacity="0"/></radialGradient><radialGradient id="radial-gradient-32" cx="525.6" cy="520.66" r="26.53" xlink:href="#radial-gradient-22"/><radialGradient id="radial-gradient-33" cx="525.21" cy="477.83" r="72.65" gradientTransform="translate(0 244.03) scale(1 0.49)" xlink:href="#radial-gradient-22"/><radialGradient id="radial-gradient-34" cx="525.25" cy="460.48" r="55.77" xlink:href="#radial-gradient-24"/><linearGradient id="linear-gradient-67" x1="467.67" y1="495.97" x2="583.53" y2="495.97" xlink:href="#linear-gradient-59"/><linearGradient id="linear-gradient-68" x1="467.67" y1="485.05" x2="583.53" y2="485.05" xlink:href="#linear-gradient-59"/><radialGradient id="radial-gradient-35" cx="525.81" cy="742.64" r="44.26" xlink:href="#radial-gradient-25"/><radialGradient id="radial-gradient-36" cx="525.6" cy="584.88" r="17.18" gradientTransform="translate(0 46.45) scale(1 0.72)" xlink:href="#radial-gradient-3"/><linearGradient id="linear-gradient-69" x1="509.96" y1="440.77" x2="541.24" y2="440.77" xlink:href="#radial-gradient"/><linearGradient id="linear-gradient-70" x1="510.46" y1="440.77" x2="515.87" y2="440.77" xlink:href="#linear-gradient-62"/><radialGradient id="radial-gradient-37" cx="536.02" cy="443.75" r="7.82" gradientTransform="translate(608.79 -93.79) rotate(88.88) scale(1 0.19)" xlink:href="#radial-gradient-27"/><linearGradient id="linear-gradient-71" x1="507.55" y1="470.8" x2="547.19" y2="470.8" xlink:href="#radial-gradient"/><linearGradient id="linear-gradient-72" x1="524.89" y1="420.12" x2="528.54" y2="420.12" xlink:href="#radial-gradient"/><linearGradient id="linear-gradient-73" x1="516.73" y1="424.87" x2="534.47" y2="424.87" xlink:href="#linear-gradient-65"/><linearGradient id="linear-gradient-74" x1="517.04" y1="430.7" x2="534.16" y2="430.7" xlink:href="#linear-gradient-65"/><radialGradient id="radial-gradient-38" cx="525.81" cy="409.41" r="11.86" xlink:href="#radial-gradient-28"/><radialGradient id="radial-gradient-39" cx="525.81" cy="402.31" r="8.9" xlink:href="#radial-gradient-29"/><radialGradient id="radial-gradient-40" cx="524.6" cy="392.69" r="6.41" xlink:href="#radial-gradient-30"/><radialGradient id="radial-gradient-41" cx="525.81" cy="402.71" fx="510.5967209976213" r="16.02" gradientTransform="translate(331.58 925.16) rotate(-88.99) scale(1 0.46)" xlink:href="#radial-gradient-31"/><linearGradient id="linear-gradient-75" x1="330.89" y1="194.83" x2="338.8" y2="194.83" xlink:href="#linear-gradient-17"/><linearGradient id="linear-gradient-76" x1="305.1" y1="130.06" x2="365.83" y2="130.06" xlink:href="#linear-gradient-18"/><radialGradient id="radial-gradient-42" cx="271.65" cy="109.57" r="29.13" gradientTransform="translate(-40.92 49.61) scale(1.39 0.55)" xlink:href="#radial-gradient-9"/><radialGradient id="radial-gradient-43" cx="360.7" cy="387.39" r="24.01" gradientUnits="userSpaceOnUse"><stop offset="0" stop-color="#593021"/><stop offset="0" stop-color="#7a4a3d"/><stop offset="0" stop-color="#231f20"/><stop offset="0.32" stop-color="#414042"/><stop offset="0.76" stop-color="#666668"/></radialGradient><linearGradient id="linear-gradient-77" x1="328.44" y1="376.78" x2="392.96" y2="376.78" xlink:href="#linear-gradient-17"/><linearGradient id="linear-gradient-78" x1="328.19" y1="376.78" x2="393.21" y2="376.78" gradientUnits="userSpaceOnUse"><stop offset="0" stop-color="#593021"/><stop offset="0" stop-color="#7a4a3d"/><stop offset="0" stop-color="#939598"/><stop offset="0.67" stop-color="#58595b"/><stop offset="1" stop-color="#6d6e71"/></linearGradient><radialGradient id="radial-gradient-44" cx="275.59" cy="596.71" r="10.64" gradientTransform="translate(-32.94 -78.23) scale(1.39 0.76)" gradientUnits="userSpaceOnUse"><stop offset="0" stop-color="#fff" stop-opacity="0.4"/><stop offset="0" stop-color="#fff" stop-opacity="0.6"/><stop offset="0.71" stop-color="#fff" stop-opacity="0"/></radialGradient><clipPath id="clip-path-5"><rect class="cls-1" x="321.4" y="-4.8" width="26.9" height="114.58"/></clipPath><linearGradient id="linear-gradient-79" x1="330.99" y1="194.83" x2="338.9" y2="194.83" xlink:href="#linear-gradient-17"/><linearGradient id="linear-gradient-80" x1="128.66" y1="538.16" x2="128.66" y2="498.57" xlink:href="#linear-gradient-13"/><linearGradient id="linear-gradient-81" x1="42.92" y1="517.76" x2="214.4" y2="517.76" xlink:href="#linear-gradient-14"/><linearGradient id="linear-gradient-82" x1="33.72" y1="390.89" x2="225.81" y2="390.89" xlink:href="#radial-gradient"/><linearGradient id="linear-gradient-83" x1="129.6" y1="515.28" x2="128.21" y2="237.2" xlink:href="#linear-gradient-53"/><linearGradient id="linear-gradient-84" x1="53.51" y1="378.9" x2="122.4" y2="396.62" xlink:href="#linear-gradient-41"/><linearGradient id="linear-gradient-85" x1="-4248.77" y1="432.91" x2="-4196.59" y2="446.33" gradientTransform="matrix(-1, 0, 0, 1, -4029.31, 0.33)" xlink:href="#linear-gradient-41"/><linearGradient id="linear-gradient-86" x1="33.22" y1="390.89" x2="226.31" y2="390.89" xlink:href="#linear-gradient-43"/><linearGradient id="linear-gradient-87" x1="92.7" y1="233.83" x2="166.83" y2="233.83" xlink:href="#linear-gradient-44"/><linearGradient id="linear-gradient-88" x1="92.2" y1="233.83" x2="167.33" y2="233.83" xlink:href="#linear-gradient-43"/><radialGradient id="radial-gradient-45" cx="-850.4" cy="132.95" r="14.07" gradientTransform="translate(1739.64 193.25) scale(1.88 0.34)" xlink:href="#radial-gradient-8"/><radialGradient id="radial-gradient-46" cx="-1075.28" cy="162.95" r="15.45" gradientTransform="matrix(2.35, -0.07, 0.02, 0.65, 2653.77, 138.39)" xlink:href="#radial-gradient-14"/><radialGradient id="radial-gradient-47" cx="113.87" cy="368.61" r="64.92" gradientTransform="matrix(0.31, -1.11, 0.09, 0.04, 21.02, 518.58)" xlink:href="#radial-gradient-15"/><linearGradient id="linear-gradient-89" x1="478.35" y1="194.83" x2="486.25" y2="194.83" xlink:href="#linear-gradient-17"/><linearGradient id="linear-gradient-90" x1="452.56" y1="130.06" x2="513.29" y2="130.06" xlink:href="#linear-gradient-18"/><radialGradient id="radial-gradient-48" cx="378.08" cy="109.57" r="29.13" gradientTransform="translate(-40.92 49.61) scale(1.39 0.55)" xlink:href="#radial-gradient-9"/><radialGradient id="radial-gradient-49" cx="508.16" cy="387.39" r="24.01" xlink:href="#radial-gradient-43"/><linearGradient id="linear-gradient-91" x1="475.89" y1="376.78" x2="540.42" y2="376.78" xlink:href="#linear-gradient-17"/><linearGradient id="linear-gradient-92" x1="475.64" y1="376.78" x2="540.67" y2="376.78" xlink:href="#linear-gradient-78"/><radialGradient id="radial-gradient-50" cx="380.28" cy="605.91" r="10.64" gradientTransform="translate(-31.13 -85.23) scale(1.39 0.76)" xlink:href="#radial-gradient-44"/><clipPath id="clip-path-6"><rect class="cls-1" x="468.85" y="-4.8" width="26.9" height="114.58"/></clipPath><linearGradient id="linear-gradient-93" x1="478.45" y1="194.83" x2="486.35" y2="194.83" xlink:href="#linear-gradient-17"/><linearGradient id="linear-gradient-94" x1="698.82" y1="295.99" x2="706.73" y2="295.99" xlink:href="#linear-gradient-17"/><linearGradient id="linear-gradient-95" x1="673.03" y1="231.23" x2="733.76" y2="231.23" xlink:href="#linear-gradient-18"/><radialGradient id="radial-gradient-51" cx="537.2" cy="210.73" r="29.13" gradientTransform="translate(-40.92 95.41) scale(1.39 0.55)" xlink:href="#radial-gradient-9"/><radialGradient id="radial-gradient-52" cx="728.63" cy="488.55" r="24.01" xlink:href="#radial-gradient-43"/><linearGradient id="linear-gradient-96" x1="696.36" y1="477.94" x2="760.89" y2="477.94" xlink:href="#linear-gradient-17"/><linearGradient id="linear-gradient-97" x1="696.11" y1="477.94" x2="761.14" y2="477.94" xlink:href="#linear-gradient-78"/><radialGradient id="radial-gradient-53" cx="525.48" cy="659.63" r="10.64" gradientTransform="translate(-12.66 -25) scale(1.39 0.76)" xlink:href="#radial-gradient-44"/><clipPath id="clip-path-7"><rect class="cls-1" x="689.32" y="96.36" width="26.9" height="114.58"/></clipPath><linearGradient id="linear-gradient-98" x1="698.92" y1="295.99" x2="706.82" y2="295.99" xlink:href="#linear-gradient-17"/><linearGradient id="linear-gradient-99" x1="702.68" y1="533.2" x2="702.68" y2="493.61" xlink:href="#linear-gradient-13"/><linearGradient id="linear-gradient-100" x1="616.94" y1="512.8" x2="788.42" y2="512.8" xlink:href="#linear-gradient-14"/><linearGradient id="linear-gradient-101" x1="607.74" y1="385.22" x2="799.83" y2="385.22" xlink:href="#radial-gradient"/><linearGradient id="linear-gradient-102" x1="703.62" y1="509.6" x2="702.23" y2="231.53" xlink:href="#linear-gradient-53"/><linearGradient id="linear-gradient-103" x1="627.52" y1="373.23" x2="696.42" y2="390.95" xlink:href="#linear-gradient-41"/><linearGradient id="linear-gradient-104" x1="-4822.79" y1="427.24" x2="-4770.61" y2="440.66" gradientTransform="matrix(-1, 0, 0, 1, -4029.31, 0.33)" xlink:href="#linear-gradient-41"/><linearGradient id="linear-gradient-105" x1="607.24" y1="385.22" x2="800.33" y2="385.22" xlink:href="#linear-gradient-43"/><linearGradient id="linear-gradient-106" x1="666.72" y1="228.15" x2="740.85" y2="228.15" xlink:href="#linear-gradient-44"/><linearGradient id="linear-gradient-107" x1="666.22" y1="228.15" x2="741.35" y2="228.15" xlink:href="#linear-gradient-43"/><radialGradient id="radial-gradient-54" cx="-545.88" cy="127.83" r="14.07" gradientTransform="translate(1739.64 189.3) scale(1.88 0.34)" xlink:href="#radial-gradient-8"/><radialGradient id="radial-gradient-55" cx="-831.31" cy="171.72" r="15.45" gradientTransform="matrix(2.35, -0.07, 0.02, 0.65, 2654.15, 143.81)" xlink:href="#radial-gradient-14"/><radialGradient id="radial-gradient-56" cx="693.47" cy="363.74" r="64.92" gradientTransform="matrix(0.31, -1.11, 0.09, 0.04, 416.1, 1153.59)" xlink:href="#radial-gradient-15"/><linearGradient id="linear-gradient-108" x1="825.76" y1="386.36" x2="1018.64" y2="386.36" xlink:href="#radial-gradient"/><linearGradient id="linear-gradient-109" x1="920.51" y1="533.67" x2="920.51" y2="494.08" xlink:href="#linear-gradient-13"/><linearGradient id="linear-gradient-110" x1="834.77" y1="513.28" x2="1006.25" y2="513.28" xlink:href="#linear-gradient-14"/><linearGradient id="linear-gradient-111" x1="916.97" y1="299.06" x2="925.1" y2="299.06" xlink:href="#linear-gradient-17"/><linearGradient id="linear-gradient-112" x1="890.43" y1="232.41" x2="952.92" y2="232.41" xlink:href="#linear-gradient-18"/><radialGradient id="radial-gradient-57" cx="694.74" cy="211.31" r="29.98" gradientTransform="translate(-40.92 95.67) scale(1.39 0.55)" xlink:href="#radial-gradient-9"/><radialGradient id="radial-gradient-58" cx="947.64" cy="497.22" r="24.71" xlink:href="#radial-gradient-43"/><linearGradient id="linear-gradient-113" x1="914.44" y1="486.31" x2="980.84" y2="486.31" xlink:href="#linear-gradient-17"/><linearGradient id="linear-gradient-114" x1="914.19" y1="486.31" x2="981.09" y2="486.31" xlink:href="#linear-gradient-78"/><radialGradient id="radial-gradient-59" cx="679.83" cy="676.57" r="10.95" gradientTransform="translate(-8.67 -29.55) scale(1.39 0.76)" xlink:href="#radial-gradient-44"/><clipPath id="clip-path-8"><rect class="cls-1" x="907.19" y="93.62" width="27.68" height="117.92"/></clipPath><linearGradient id="linear-gradient-115" x1="917.07" y1="299.06" x2="925.2" y2="299.06" xlink:href="#linear-gradient-17"/><linearGradient id="linear-gradient-116" x1="921.4" y1="524.59" x2="927.33" y2="238.6" gradientUnits="userSpaceOnUse"><stop offset="0.17" stop-color="#f2a93b" stop-opacity="0.5"/><stop offset="0.42" stop-color="#f3a73b" stop-opacity="0.96"/><stop offset="0.72" stop-color="#f3a63c" stop-opacity="0.3"/><stop offset="1" stop-color="#f3a63c" stop-opacity="0"/></linearGradient><linearGradient id="linear-gradient-117" x1="845.42" y1="373.88" x2="914.31" y2="391.6" xlink:href="#linear-gradient-41"/><linearGradient id="linear-gradient-118" x1="-5040.68" y1="427.89" x2="-4988.5" y2="441.31" gradientTransform="matrix(-1, 0, 0, 1, -4029.31, 0.33)" xlink:href="#linear-gradient-41"/><linearGradient id="linear-gradient-119" x1="825.13" y1="385.87" x2="1018.22" y2="385.87" xlink:href="#linear-gradient-43"/><linearGradient id="linear-gradient-120" x1="884.61" y1="228.81" x2="958.74" y2="228.81" xlink:href="#linear-gradient-44"/><linearGradient id="linear-gradient-121" x1="884.11" y1="228.81" x2="959.24" y2="228.81" xlink:href="#linear-gradient-43"/><radialGradient id="radial-gradient-60" cx="-430.28" cy="128.42" r="14.07" gradientTransform="translate(1739.64 189.76) scale(1.88 0.34)" xlink:href="#radial-gradient-8"/><radialGradient id="radial-gradient-61" cx="-738.75" cy="176.36" r="15.45" gradientTransform="matrix(2.35, -0.07, 0.02, 0.65, 2654.39, 147.82)" xlink:href="#radial-gradient-14"/><radialGradient id="radial-gradient-62" cx="913.48" cy="364.3" r="64.92" gradientTransform="matrix(0.31, -1.11, 0.09, 0.04, 565.84, 1397.34)" xlink:href="#radial-gradient-15"/><radialGradient id="radial-gradient-63" cx="1446.8" cy="119.76" fy="159.08085231498725" r="59.74" gradientTransform="translate(-786.37 291.89) scale(1.18 1.24)" gradientUnits="userSpaceOnUse"><stop offset="0.04" stop-color="#fff"/><stop offset="0.35" stop-color="#ffff40"/><stop offset="0.75" stop-color="#ffb32d" stop-opacity="0.8"/><stop offset="1" stop-color="#ffb32d" stop-opacity="0"/></radialGradient><radialGradient id="radial-gradient-64" cx="908.19" cy="131.73" fy="147.64854614928373" r="15.93" gradientTransform="translate(62.8 172.09) scale(0.91 1.55)" gradientUnits="userSpaceOnUse"><stop offset="0" stop-color="#fff"/><stop offset="0.29" stop-color="#ffff40"/><stop offset="0.55" stop-color="#ffb32d" stop-opacity="0.8"/><stop offset="1" stop-color="#ffb32d" stop-opacity="0"/></radialGradient><radialGradient id="radial-gradient-65" cx="-1373.89" cy="-1262.08" fy="-1246.1575256012213" r="15.93" gradientTransform="translate(1298.27 1587.91) scale(0.29 0.97)" xlink:href="#radial-gradient-64"/><radialGradient id="radial-gradient-66" cx="-6243.5" cy="121.75" fy="137.6706975131878" r="15.93" gradientTransform="translate(2349.71 140.27) scale(0.23 1.58)" xlink:href="#radial-gradient-64"/><radialGradient id="radial-gradient-67" cx="-4565.22" cy="-209.65" fy="-193.733111141728" r="15.93" gradientTransform="translate(2218.94 621.95) scale(0.27 1.01)" xlink:href="#radial-gradient-64"/><radialGradient id="radial-gradient-68" cx="-4902.88" cy="-223.17" fy="-207.25382938360477" r="15.93" gradientTransform="translate(2218.76 647.89) scale(0.27 1.01)" xlink:href="#radial-gradient-64"/><radialGradient id="radial-gradient-69" cx="701.42" cy="1345.07" fy="1360.9886744001467" r="15.93" gradientTransform="matrix(0, 0.87, -1.48, 0, 2934.32, -234.91)" xlink:href="#radial-gradient-64"/></defs><title>t2</title><rect class="cls-2" y="-6.32" width="1024" height="1024"/><circle class="cls-3" cx="759.17" cy="54.52" r="32.92"/><circle class="cls-4" cx="759.17" cy="54.52" r="23.6"/><circle class="cls-5" cx="759.17" cy="54.52" r="32.92"/><circle class="cls-6" cx="759.17" cy="54.52" r="23.6"/><path class="cls-7" d="M785.73,93.09A7,7,0,0,1,780.88,95H737.8a7,7,0,0,1-4.86-1.92l4.71,41a.89.89,0,0,0-.07.28c0,2.25,9.71,4.09,21.69,4.09,11.46,0,20.82-1.68,21.61-3.81H781Z"/><path class="cls-8" d="M780.88,127.92h-.07c-.79,2.13-10.15,3.81-21.61,3.81-12,0-21.69-1.83-21.69-4.09a.61.61,0,0,1,.08-.27l-3.86-33.61a7,7,0,0,1-.85-.67l4.71,41a.69.69,0,0,0-.08.28c0,2.25,9.71,4.09,21.69,4.09,11.46,0,20.82-1.68,21.61-3.81h.07l4.78-41.61a7.07,7.07,0,0,1-.86.67Z"/><path class="cls-9" d="M787.47,89.77l-5-7.67c-.71-1.08-2.4-1.91-4.48-2.26V76.4c0-1.67-2.71-3-6.05-3h-.47a1,1,0,0,0-.16-.37l-2.45-3.62c-1.2-1.77-4.5-3-8.23-3h-2.9c-3.73,0-7,1.18-8.23,3L747,73a1,1,0,0,0-.16.37H746c-3.34,0-6.05,1.35-6.05,3v3.53a6.45,6.45,0,0,0-4,2.17l-5,7.67c-1.51,2.3,1.92,4.66,6.76,4.66h43.08C785.55,94.43,789,92.07,787.47,89.77Z"/><path class="cls-10" d="M787.47,89.77l-5-7.67c-.71-1.08-2.4-1.91-4.48-2.26V76.4c0-1.67-2.71-3-6.05-3h-.47a1,1,0,0,0-.16-.37l-2.45-3.62c-1.2-1.77-4.5-3-8.23-3h-2.9c-3.73,0-7,1.18-8.23,3L747,73a1,1,0,0,0-.16.37H746c-3.34,0-6.05,1.35-6.05,3v3.53a6.45,6.45,0,0,0-4,2.17l-5,7.67c-1.51,2.3,1.92,4.66,6.76,4.66h43.08C785.55,94.43,789,92.07,787.47,89.77Z"/><path class="cls-11" d="M874.35,88.94a7,7,0,0,1-4.85,1.93H826.42a7,7,0,0,1-4.85-1.93L826.28,130a.9.9,0,0,0-.07.27c0,2.26,9.7,4.09,21.68,4.09,11.46,0,20.83-1.68,21.61-3.8h.08Z"/><path class="cls-12" d="M869.51,123.78h-.08c-.78,2.12-10.14,3.8-21.61,3.8-12,0-21.68-1.83-21.68-4.09a.9.9,0,0,1,.07-.27l-3.86-33.61a6.11,6.11,0,0,1-.85-.67L826.21,130a.9.9,0,0,0-.07.27c0,2.26,9.71,4.09,21.68,4.09,11.47,0,20.83-1.68,21.61-3.8h.08l4.77-41.62a6.11,6.11,0,0,1-.85.67Z"/><circle class="cls-13" cx="847.92" cy="40.51" r="25.02"/><rect class="cls-14" x="836.13" y="62.88" width="23.59" height="9.71" rx="2.87"/><rect class="cls-15" x="829.1" y="72.59" width="37.65" height="9.29" rx="2.87"/><rect class="cls-16" x="836.13" y="62.88" width="23.59" height="9.71" rx="2.87"/><rect class="cls-17" x="829.1" y="72.59" width="37.65" height="9.29" rx="2.87"/><rect class="cls-18" x="821.08" y="81.89" width="53.68" height="9.29" rx="2.87"/><rect class="cls-19" x="821.08" y="81.89" width="53.68" height="9.29" rx="2.87"/><circle class="cls-20" cx="847.92" cy="40.51" r="25.02"/><circle class="cls-21" cx="847.92" cy="40.51" r="25.02"/><ellipse class="cls-22" cx="847.92" cy="27.5" rx="11.18" ry="13.36" transform="translate(704.48 863.66) rotate(-82.12)"/><ellipse class="cls-23" cx="432.03" cy="983.37" rx="85.74" ry="19.12"/><ellipse class="cls-24" cx="432.03" cy="982.77" rx="85.74" ry="19.72"/><ellipse class="cls-25" cx="655.32" cy="983.37" rx="85.74" ry="19.12"/><ellipse class="cls-26" cx="655.32" cy="982.77" rx="85.74" ry="19.72"/><rect class="cls-27" x="427.32" y="576.75" width="8.13" height="319.2" rx="3.53"/><path class="cls-28" d="M463.27,683.49H400.78l3.08,38.72a.7.7,0,0,0-.12.35c0,2.3,12.63,4.16,28.21,4.16s28.21-1.86,28.21-4.16h0Z"/><ellipse class="cls-29" cx="432.03" cy="684.01" rx="31.25" ry="4.84"/><g class="cls-30"><rect class="cls-31" x="427.42" y="576.75" width="8.13" height="390.03" rx="3.53"/></g><path class="cls-32" d="M441.7,918.47a6.31,6.31,0,0,1,0-8.53,6.44,6.44,0,0,0-1.69-4.3,6.79,6.79,0,0,0,1.58-4.3c0-4-3.61-7.33-8-7.35l.15.66c4.08.09,7.37,3.05,7.37,6.69a6.13,6.13,0,0,1-1.44,3.9,7.3,7.3,0,0,0-.66-.57c-1.28-1.34-5.09-2.06-8.72-2.06-4.44,0-9.17,1.08-9.17,3.07s4.73,3.07,9.17,3.07c3.63,0,7.44-.72,8.72-2.06.24-.2.46-.41.68-.63a5.91,5.91,0,0,1,1.54,3.88,5.76,5.76,0,0,1-1.53,3.86,8,8,0,0,0-.94-.79h0c-1.47-1.2-5-1.84-8.47-1.84-4.44,0-9.17,1.07-9.17,3.07s4.73,3.06,9.17,3.06c3.74,0,7.65-.76,8.82-2.18a5.92,5.92,0,0,0,.59-.52,5.87,5.87,0,0,1,1.53,3.86,5.78,5.78,0,0,1-1.55,3.88,7.54,7.54,0,0,0-.67-.58c-1.28-1.35-5.09-2.06-8.72-2.06-4.44,0-9.17,1.07-9.17,3.07s4.73,3.06,9.17,3.06c3.74,0,7.65-.76,8.82-2.18.2-.16.39-.33.57-.5a5.87,5.87,0,0,1,1.55,3.88,5.78,5.78,0,0,1-1.53,3.86,7.22,7.22,0,0,0-.94-.8h0c-1.47-1.2-5-1.83-8.47-1.83-4.44,0-9.17,1.07-9.17,3.06s4.73,3.07,9.17,3.07c3.74,0,7.65-.76,8.82-2.18a7.54,7.54,0,0,0,.59-.52,5.87,5.87,0,0,1,1.53,3.86,5.81,5.81,0,0,1-1.57,3.91l-.53-.47c-1.14-1.43-5.08-2.2-8.84-2.2-4.44,0-9.17,1.07-9.17,3.07s4.73,3.06,9.17,3.06c3.74,0,7.65-.76,8.82-2.18.19-.15.37-.31.55-.48a5.92,5.92,0,0,1,1.57,3.91,5.76,5.76,0,0,1-1.53,3.86,9.2,9.2,0,0,0-.94-.8v0c-1.47-1.2-5-1.84-8.47-1.84-4.44,0-9.17,1.07-9.17,3.07s4.73,3.06,9.17,3.06c3.74,0,7.65-.76,8.82-2.18a5.92,5.92,0,0,0,.59-.52,5.65,5.65,0,0,1-.26,8c-.27-1.88-4.83-2.89-9.15-2.89s-9.17,1.07-9.17,3.07,4.73,3.06,9.17,3.06c3.74,0,7.65-.76,8.82-2.18a6.62,6.62,0,0,0,2.64-5.19,6.31,6.31,0,0,1,0-8.53,6.31,6.31,0,0,1,0-8.62,6.31,6.31,0,0,1,0-8.53,6.3,6.3,0,0,1,0-8.57Zm-20.11-12.79c0-1,3.29-2.42,8.65-2.42s8.65,1.41,8.65,2.42-3.29,2.42-8.65,2.42S421.59,906.69,421.59,905.68Zm0,8.57c0-1,3.29-2.42,8.65-2.42s8.65,1.41,8.65,2.42a.74.74,0,0,1-.17.42,8.06,8.06,0,0,1-1.9,1.08,20.81,20.81,0,0,1-6.58.91C424.88,916.66,421.59,915.26,421.59,914.25Zm0,42.78c0-1,3.29-2.42,8.65-2.42s8.65,1.41,8.65,2.42a.74.74,0,0,1-.17.42,8.06,8.06,0,0,1-1.9,1.08,20.81,20.81,0,0,1-6.58.91C424.88,959.44,421.59,958,421.59,957Zm0-8.53c0-1,3.29-2.42,8.65-2.42s8.65,1.41,8.65,2.42a.74.74,0,0,1-.17.42,8.28,8.28,0,0,1-1.91,1.08,20.69,20.69,0,0,1-6.57.91C424.88,950.91,421.59,949.51,421.59,948.5Zm0-8.62c0-1,3.29-2.42,8.65-2.42,4.46,0,7.48,1,8.37,1.88v0l.08.06a.74.74,0,0,1,.2.46.74.74,0,0,1-.17.42,8.43,8.43,0,0,1-1.9,1.08,20.81,20.81,0,0,1-6.58.91C424.88,942.29,421.59,940.88,421.59,939.88Zm0-8.54c0-1,3.29-2.41,8.65-2.41s8.65,1.41,8.65,2.41a.74.74,0,0,1-.17.43,8.28,8.28,0,0,1-1.91,1.08,20.69,20.69,0,0,1-6.57.91C424.88,933.76,421.59,932.35,421.59,931.34Zm0-8.56c0-1,3.29-2.42,8.65-2.42s8.65,1.41,8.65,2.42a.74.74,0,0,1-.17.42,8.06,8.06,0,0,1-1.9,1.08,20.81,20.81,0,0,1-6.58.91C424.88,925.19,421.59,923.79,421.59,922.78Z"/><rect class="cls-33" x="650.99" y="576.75" width="8.13" height="319.2" rx="3.53"/><path class="cls-34" d="M686.94,683.49H624.45l3.08,38.72a.81.81,0,0,0-.12.35c0,2.3,12.63,4.16,28.21,4.16s28.21-1.86,28.21-4.16h0Z"/><ellipse class="cls-35" cx="655.7" cy="684.01" rx="31.25" ry="4.84"/><g class="cls-36"><rect class="cls-37" x="651.09" y="576.75" width="8.13" height="390.03" rx="3.53"/></g><path class="cls-38" d="M665.37,918.47a6.31,6.31,0,0,1,0-8.53,6.44,6.44,0,0,0-1.69-4.3,6.73,6.73,0,0,0,1.58-4.3c0-4-3.61-7.33-8-7.35l.15.66c4.08.09,7.38,3.05,7.38,6.69a6.14,6.14,0,0,1-1.45,3.9,7.16,7.16,0,0,0-.65-.57c-1.29-1.34-5.1-2.06-8.73-2.06-4.44,0-9.17,1.08-9.17,3.07s4.73,3.07,9.17,3.07c3.63,0,7.44-.72,8.72-2.06a8.18,8.18,0,0,0,.68-.63,5.86,5.86,0,0,1,1.54,3.88,5.76,5.76,0,0,1-1.53,3.86,8,8,0,0,0-.94-.79h0c-1.47-1.2-5-1.84-8.47-1.84-4.44,0-9.17,1.07-9.17,3.07s4.73,3.06,9.17,3.06c3.74,0,7.65-.76,8.82-2.18a5.92,5.92,0,0,0,.59-.52,5.87,5.87,0,0,1,1.53,3.86,5.78,5.78,0,0,1-1.55,3.88,7.54,7.54,0,0,0-.67-.58c-1.28-1.35-5.09-2.06-8.72-2.06-4.44,0-9.17,1.07-9.17,3.07s4.73,3.06,9.17,3.06c3.74,0,7.65-.76,8.82-2.18.2-.16.39-.33.58-.5a5.91,5.91,0,0,1,1.54,3.88,5.78,5.78,0,0,1-1.53,3.86,7.22,7.22,0,0,0-.94-.8h0c-1.47-1.2-5-1.83-8.47-1.83-4.44,0-9.17,1.07-9.17,3.06s4.73,3.07,9.17,3.07c3.74,0,7.65-.76,8.82-2.18a7.54,7.54,0,0,0,.59-.52,5.87,5.87,0,0,1,1.53,3.86,5.76,5.76,0,0,1-1.57,3.91l-.53-.47c-1.14-1.43-5.08-2.2-8.84-2.2-4.44,0-9.17,1.07-9.17,3.07s4.73,3.06,9.17,3.06c3.74,0,7.65-.76,8.82-2.18.19-.15.37-.31.55-.48a5.92,5.92,0,0,1,1.57,3.91,5.76,5.76,0,0,1-1.53,3.86,9.2,9.2,0,0,0-.94-.8v0c-1.47-1.2-5-1.84-8.47-1.84-4.44,0-9.17,1.07-9.17,3.07s4.73,3.06,9.17,3.06c3.74,0,7.65-.76,8.82-2.18a5.92,5.92,0,0,0,.59-.52,5.87,5.87,0,0,1,1.53,3.86,5.79,5.79,0,0,1-1.79,4.13c-.27-1.88-4.83-2.89-9.15-2.89s-9.17,1.07-9.17,3.07,4.73,3.06,9.17,3.06c3.74,0,7.65-.76,8.82-2.18a6.62,6.62,0,0,0,2.64-5.19,6.31,6.31,0,0,1,0-8.53,6.31,6.31,0,0,1,0-8.62,6.31,6.31,0,0,1,0-8.53,6.3,6.3,0,0,1,0-8.57Zm-20.11-12.79c0-1,3.29-2.42,8.65-2.42s8.66,1.41,8.66,2.42-3.3,2.42-8.66,2.42S645.26,906.69,645.26,905.68Zm0,8.57c0-1,3.29-2.42,8.65-2.42s8.66,1.41,8.66,2.42a.76.76,0,0,1-.18.42,7.68,7.68,0,0,1-1.9,1.08,20.81,20.81,0,0,1-6.58.91C648.55,916.66,645.26,915.26,645.26,914.25Zm0,42.78c0-1,3.29-2.42,8.65-2.42s8.66,1.41,8.66,2.42a.76.76,0,0,1-.18.42,7.68,7.68,0,0,1-1.9,1.08,20.81,20.81,0,0,1-6.58.91C648.55,959.44,645.26,958,645.26,957Zm0-8.53c0-1,3.29-2.42,8.65-2.42s8.66,1.41,8.66,2.42a.76.76,0,0,1-.18.42,8,8,0,0,1-1.9,1.08,20.81,20.81,0,0,1-6.58.91C648.55,950.91,645.26,949.51,645.26,948.5Zm0-8.62c0-1,3.29-2.42,8.65-2.42,4.46,0,7.48,1,8.37,1.88v0l.08.06a.59.59,0,0,1,0,.88,8,8,0,0,1-1.9,1.08,20.81,20.81,0,0,1-6.58.91C648.55,942.29,645.26,940.88,645.26,939.88Zm0-8.54c0-1,3.29-2.41,8.65-2.41s8.66,1.41,8.66,2.41a.76.76,0,0,1-.18.43,8,8,0,0,1-1.9,1.08,20.81,20.81,0,0,1-6.58.91C648.55,933.76,645.26,932.35,645.26,931.34Zm0-8.56c0-1,3.29-2.42,8.65-2.42s8.66,1.41,8.66,2.42a.76.76,0,0,1-.18.42,7.68,7.68,0,0,1-1.9,1.08,20.81,20.81,0,0,1-6.58.91C648.55,925.19,645.26,923.79,645.26,922.78Z"/><rect class="cls-39" x="247.39" y="572.13" width="8.13" height="319.2" rx="3.53"/><path class="cls-40" d="M283.34,678.88H220.85l3.08,38.72a.7.7,0,0,0-.12.35c0,2.3,12.63,4.16,28.21,4.16s28.21-1.86,28.21-4.16h0Z"/><ellipse class="cls-41" cx="252.09" cy="679.4" rx="31.25" ry="4.84"/><g class="cls-42"><rect class="cls-43" x="247.49" y="572.13" width="8.13" height="390.03" rx="3.53"/></g><path class="cls-44" d="M261.77,913.86a6.31,6.31,0,0,1,0-8.53,6.46,6.46,0,0,0-1.69-4.31,6.74,6.74,0,0,0,1.57-4.3c0-4-3.6-7.32-8-7.35l.15.66c4.08.1,7.37,3.06,7.37,6.69a6.15,6.15,0,0,1-1.44,3.91q-.31-.3-.66-.57c-1.28-1.35-5.09-2.06-8.72-2.06-4.45,0-9.17,1.07-9.17,3.07s4.72,3.06,9.17,3.06c3.63,0,7.44-.71,8.72-2a8,8,0,0,0,.67-.63,5.87,5.87,0,0,1,1.55,3.88,5.78,5.78,0,0,1-1.53,3.86,7.22,7.22,0,0,0-.94-.8h0c-1.47-1.2-5-1.83-8.47-1.83-4.45,0-9.17,1.07-9.17,3.06s4.72,3.07,9.17,3.07c3.73,0,7.65-.76,8.82-2.18a7.43,7.43,0,0,0,.59-.53,5.91,5.91,0,0,1,1.53,3.87,5.78,5.78,0,0,1-1.55,3.88,6.19,6.19,0,0,0-.67-.58c-1.28-1.35-5.09-2.06-8.72-2.06-4.45,0-9.17,1.07-9.17,3.06s4.72,3.07,9.17,3.07c3.73,0,7.65-.76,8.82-2.18a6.91,6.91,0,0,0,.57-.51,5.89,5.89,0,0,1,1.55,3.88,5.8,5.8,0,0,1-1.53,3.87,7.22,7.22,0,0,0-.94-.8h0c-1.47-1.2-5-1.84-8.47-1.84-4.45,0-9.17,1.08-9.17,3.07s4.72,3.07,9.17,3.07c3.73,0,7.65-.76,8.82-2.18a7.43,7.43,0,0,0,.59-.53,5.66,5.66,0,0,1,0,7.78c-.17-.17-.35-.32-.53-.47-1.14-1.44-5.09-2.21-8.84-2.21-4.45,0-9.17,1.08-9.17,3.07s4.72,3.07,9.17,3.07c3.73,0,7.65-.76,8.82-2.18.19-.15.37-.32.55-.48a5.9,5.9,0,0,1,1.57,3.91,5.78,5.78,0,0,1-1.53,3.86,7.22,7.22,0,0,0-.94-.8h0c-1.47-1.2-5-1.83-8.47-1.83-4.45,0-9.17,1.07-9.17,3.06s4.72,3.07,9.17,3.07c3.73,0,7.65-.76,8.82-2.18a7.43,7.43,0,0,0,.59-.53,5.66,5.66,0,0,1-.26,8c-.27-1.88-4.83-2.89-9.15-2.89s-9.17,1.07-9.17,3.06,4.72,3.07,9.17,3.07c3.73,0,7.65-.76,8.82-2.18a6.65,6.65,0,0,0,2.64-5.19,6.31,6.31,0,0,1,0-8.53,6.33,6.33,0,0,1,0-8.63,6.31,6.31,0,0,1,0-8.53,6.29,6.29,0,0,1,0-8.56Zm-20.11-12.79c0-1,3.29-2.42,8.65-2.42s8.65,1.41,8.65,2.42-3.29,2.41-8.65,2.41S241.66,902.07,241.66,901.07Zm0,8.56c0-1,3.29-2.41,8.65-2.41s8.65,1.4,8.65,2.41a.69.69,0,0,1-.17.42,8,8,0,0,1-1.91,1.09,20.69,20.69,0,0,1-6.57.91C245,912.05,241.66,910.64,241.66,909.63Zm0,42.78c0-1,3.29-2.41,8.65-2.41s8.65,1.41,8.65,2.41a.74.74,0,0,1-.17.43,8.28,8.28,0,0,1-1.91,1.08,20.69,20.69,0,0,1-6.57.91C245,954.83,241.66,953.42,241.66,952.41Zm0-8.53c0-1,3.29-2.41,8.65-2.41s8.65,1.4,8.65,2.41a.69.69,0,0,1-.17.42,8,8,0,0,1-1.91,1.09,20.69,20.69,0,0,1-6.57.91C245,946.3,241.66,944.89,241.66,943.88Zm0-8.62c0-1,3.29-2.41,8.65-2.41,4.46,0,7.48,1,8.37,1.88h0l.08.07a.72.72,0,0,1,.2.45.69.69,0,0,1-.17.42,8,8,0,0,1-1.91,1.09,21,21,0,0,1-6.57.91C245,937.68,241.66,936.27,241.66,935.26Zm0-8.53c0-1,3.29-2.41,8.65-2.41s8.65,1.4,8.65,2.41a.69.69,0,0,1-.17.42,8,8,0,0,1-1.91,1.09,21,21,0,0,1-6.57.91C245,929.15,241.66,927.74,241.66,926.73Zm0-8.57c0-1,3.29-2.41,8.65-2.41s8.65,1.41,8.65,2.41a.74.74,0,0,1-.17.43,8.28,8.28,0,0,1-1.91,1.08,20.69,20.69,0,0,1-6.57.91C245,920.58,241.66,919.17,241.66,918.16Z"/><ellipse class="cls-45" cx="908.76" cy="983.37" rx="85.74" ry="19.12"/><ellipse class="cls-46" cx="908.76" cy="982.77" rx="85.74" ry="19.72"/><rect class="cls-47" x="904.43" y="576.75" width="8.13" height="319.2" rx="3.53"/><path class="cls-48" d="M940.39,683.49h-62.5L881,722.21a.79.79,0,0,0-.11.35c0,2.3,12.63,4.16,28.21,4.16s28.21-1.86,28.21-4.16h0Z"/><ellipse class="cls-49" cx="909.14" cy="684.01" rx="31.25" ry="4.84"/><g class="cls-50"><rect class="cls-51" x="904.54" y="576.75" width="8.13" height="390.03" rx="3.53"/></g><path class="cls-52" d="M918.82,918.47a6.28,6.28,0,0,1,0-8.53,6.44,6.44,0,0,0-1.7-4.3,6.73,6.73,0,0,0,1.58-4.3c0-4-3.6-7.33-8-7.35.05.22.09.44.14.66,4.09.09,7.38,3.05,7.38,6.69a6.13,6.13,0,0,1-1.44,3.9q-.32-.3-.66-.57c-1.28-1.34-5.09-2.06-8.72-2.06-4.45,0-9.18,1.08-9.18,3.07s4.73,3.07,9.18,3.07c3.62,0,7.43-.72,8.72-2.06a8,8,0,0,0,.67-.63,5.87,5.87,0,0,1,1.55,3.88,5.77,5.77,0,0,1-1.54,3.86,7.91,7.91,0,0,0-.93-.79h0c-1.48-1.2-5.05-1.84-8.47-1.84-4.45,0-9.18,1.07-9.18,3.07s4.73,3.06,9.18,3.06c3.73,0,7.65-.76,8.81-2.18a7.45,7.45,0,0,0,.6-.52,5.87,5.87,0,0,1,1.53,3.86,5.78,5.78,0,0,1-1.55,3.88c-.21-.2-.44-.4-.67-.58-1.29-1.35-5.1-2.06-8.72-2.06-4.45,0-9.18,1.07-9.18,3.07s4.73,3.06,9.18,3.06c3.73,0,7.65-.76,8.81-2.18a7.2,7.2,0,0,0,.58-.5A5.87,5.87,0,0,1,918.3,927a5.79,5.79,0,0,1-1.54,3.86,7.13,7.13,0,0,0-.93-.8h0c-1.48-1.2-5.05-1.83-8.47-1.83-4.45,0-9.18,1.07-9.18,3.06s4.73,3.07,9.18,3.07c3.73,0,7.65-.76,8.81-2.18.21-.17.41-.34.6-.52a5.87,5.87,0,0,1,1.53,3.86,5.77,5.77,0,0,1-1.58,3.91c-.17-.16-.34-.32-.53-.47-1.14-1.43-5.08-2.2-8.83-2.2-4.45,0-9.18,1.07-9.18,3.07s4.73,3.06,9.18,3.06c3.73,0,7.65-.76,8.81-2.18a5.11,5.11,0,0,0,.55-.48,5.88,5.88,0,0,1,1.58,3.91,5.77,5.77,0,0,1-1.54,3.86,9.07,9.07,0,0,0-.93-.8v0c-1.48-1.2-5.05-1.84-8.47-1.84-4.45,0-9.18,1.07-9.18,3.07s4.73,3.06,9.18,3.06c3.73,0,7.65-.76,8.81-2.18a7.45,7.45,0,0,0,.6-.52,5.87,5.87,0,0,1,1.53,3.86,5.8,5.8,0,0,1-1.8,4.13c-.26-1.88-4.83-2.89-9.14-2.89s-9.18,1.07-9.18,3.07,4.73,3.06,9.18,3.06c3.73,0,7.65-.76,8.81-2.18a6.6,6.6,0,0,0,2.65-5.19,6.28,6.28,0,0,1,0-8.53,6.29,6.29,0,0,1,0-8.62,6.28,6.28,0,0,1,0-8.53,6.3,6.3,0,0,1,0-8.57Zm-20.11-12.79c0-1,3.29-2.42,8.65-2.42s8.65,1.41,8.65,2.42-3.29,2.42-8.65,2.42S898.71,906.69,898.71,905.68Zm0,8.57c0-1,3.29-2.42,8.65-2.42s8.65,1.41,8.65,2.42a.69.69,0,0,1-.18.42,7.68,7.68,0,0,1-1.9,1.08,20.74,20.74,0,0,1-6.57.91C902,916.66,898.71,915.26,898.71,914.25Zm0,42.78c0-1,3.29-2.42,8.65-2.42S916,956,916,957a.69.69,0,0,1-.18.42,7.68,7.68,0,0,1-1.9,1.08,20.74,20.74,0,0,1-6.57.91C902,959.44,898.71,958,898.71,957Zm0-8.53c0-1,3.29-2.42,8.65-2.42s8.65,1.41,8.65,2.42a.69.69,0,0,1-.18.42,8,8,0,0,1-1.9,1.08,20.74,20.74,0,0,1-6.57.91C902,950.91,898.71,949.51,898.71,948.5Zm0-8.62c0-1,3.29-2.42,8.65-2.42,4.46,0,7.48,1,8.37,1.88v0l.08.06a.76.76,0,0,1,.21.46.69.69,0,0,1-.18.42,8,8,0,0,1-1.9,1.08,20.74,20.74,0,0,1-6.57.91C902,942.29,898.71,940.88,898.71,939.88Zm0-8.54c0-1,3.29-2.41,8.65-2.41s8.65,1.41,8.65,2.41a.69.69,0,0,1-.18.43,8,8,0,0,1-1.9,1.08,20.74,20.74,0,0,1-6.57.91C902,933.76,898.71,932.35,898.71,931.34Zm0-8.56c0-1,3.29-2.42,8.65-2.42s8.65,1.41,8.65,2.42a.69.69,0,0,1-.18.42,7.68,7.68,0,0,1-1.9,1.08,20.74,20.74,0,0,1-6.57.91C902,925.19,898.71,923.79,898.71,922.78Z"/><path class="cls-53" d="M1000.37,966.49a26,26,0,0,0-1.39-8.42L943.83,797.49a63.38,63.38,0,0,1-3.44-20.57V705.58h-62v71.34a63.13,63.13,0,0,1-3.45,20.57l-55,160.09a27.75,27.75,0,0,0-1.54,9.3,15.29,15.29,0,0,0-.16,1.66c-.93,26.86,40.81,34.16,91.16,34.16s91.16-7.3,91.16-34.16A12.8,12.8,0,0,0,1000.37,966.49Z"/><path class="cls-54" d="M998.69,965.37a25.84,25.84,0,0,0-1.4-8.43L942.15,796.37a63.41,63.41,0,0,1-3.45-20.58V704.46h-62v71.33a63.14,63.14,0,0,1-3.45,20.58l-55,160.09a27.75,27.75,0,0,0-1.54,9.3,13.18,13.18,0,0,0-.17,1.65c-.92,26.86,40.82,34.17,91.16,34.17s91.16-7.31,91.16-34.17A14,14,0,0,0,998.69,965.37Z"/><path class="cls-55" d="M825.53,971.34a14.24,14.24,0,0,1,.17-1.74,29.24,29.24,0,0,1,1.62-9.77L885.24,791.7a66.51,66.51,0,0,0,3.63-21.61V704.58H875.31v65.51a66.24,66.24,0,0,1-3.63,21.61L813.76,959.83a29.24,29.24,0,0,0-1.62,9.77,14.24,14.24,0,0,0-.17,1.74c-1,28.2,43,35.88,96,35.88q3.42,0,6.77-.05C864.83,1006.52,824.59,998.33,825.53,971.34Z"/><path class="cls-56" d="M1003.38,969.87a29.24,29.24,0,0,0-1.62-9.77L956,827.28q-8.6-5.07-17.1-10.29l49.3,143.11a29.24,29.24,0,0,1,1.62,9.77,14.27,14.27,0,0,1,.17,1.73c.93,27-39.31,35.19-89.26,35.84q3.36,0,6.78,0c53,0,97-7.68,96-35.89A14.29,14.29,0,0,0,1003.38,969.87Z"/><path class="cls-57" d="M1003.86,969.19a26.72,26.72,0,0,0-1.47-8.85L944.3,791.7a66.24,66.24,0,0,1-3.63-21.61V704.58H875.31v65.51a66.24,66.24,0,0,1-3.63,21.61L813.76,959.83a29.24,29.24,0,0,0-1.62,9.77,14.24,14.24,0,0,0-.17,1.74c-1,28.2,43,35.88,96,35.88s96-7.68,96-35.88A14,14,0,0,0,1003.86,969.19Z"/><rect class="cls-58" x="870.94" y="692.94" width="74.12" height="11.78" rx="4.89"/><rect class="cls-59" x="870.94" y="692.94" width="74.12" height="11.78" rx="4.89"/><ellipse class="cls-60" cx="911.12" cy="705.2" rx="26.73" ry="7.86"/><g class="cls-61"><path class="cls-62" d="M935.49,773.81c.75,3.33-10.25,28.91-32.58,34.12-22.39,5.8-34.45-18.51-34.06-31.28-.75-13.38,10.25-2.62,32.58,1C923.82,781.91,935.88,769.88,935.49,773.81Z"/></g><path class="cls-63" d="M883.13,776.57,839.3,929.84s25.18,21.76,37.77,6,23.67-159.26,23.67-159.26Z"/><rect class="cls-64" x="898.66" y="936.11" width="18.69" height="0.66"/><rect class="cls-64" x="898.66" y="868.85" width="18.69" height="0.66"/><rect class="cls-64" x="898.66" y="957.81" width="18.69" height="0.66"/><rect class="cls-64" x="898.66" y="908.8" width="18.69" height="0.66"/><path class="cls-64" d="M924.36,879c0-.44,0-.8,0-1.14H925l0,.68h0a1.45,1.45,0,0,1,1.32-.78,1.24,1.24,0,0,1,1.19.84h0a1.8,1.8,0,0,1,.47-.54,1.44,1.44,0,0,1,.93-.3c.56,0,1.39.37,1.39,1.83V882h-.75v-2.39c0-.81-.3-1.29-.92-1.29a1,1,0,0,0-.9.69,1.52,1.52,0,0,0-.06.39V882H927v-2.53c0-.67-.3-1.15-.88-1.15a1.05,1.05,0,0,0-1,.76,1.21,1.21,0,0,0-.06.38V882h-.75Z"/><path class="cls-64" d="M931.65,876.17h.76v5.23h2.51V882h-3.27Z"/><text class="cls-65" transform="translate(922.82 961.84)">100</text><text class="cls-65" transform="translate(922.81 940.14)">150</text><text class="cls-65" transform="translate(922.81 912.83)">200</text><text class="cls-65" transform="translate(922.82 872.87)">250</text><path class="cls-66" d="M529,969.19a27,27,0,0,0-1.47-8.85L469.43,791.7a66.24,66.24,0,0,1-3.63-21.61V704.58H400.44v65.51a66.24,66.24,0,0,1-3.63,21.61L338.89,959.83a29.24,29.24,0,0,0-1.62,9.77,14.24,14.24,0,0,0-.17,1.74c-1,28.2,43,35.88,96,35.88s96-7.68,96-35.88A14,14,0,0,0,529,969.19Z"/><path class="cls-67" d="M350.65,971.34a14.24,14.24,0,0,1,.18-1.74,29.24,29.24,0,0,1,1.62-9.77L410.37,791.7A66.51,66.51,0,0,0,414,770.09V704.58H400.44v65.51a66.24,66.24,0,0,1-3.63,21.61L338.89,959.83a29.24,29.24,0,0,0-1.62,9.77,14.24,14.24,0,0,0-.17,1.74c-1,28.2,43,35.88,96,35.88,2.28,0,4.53,0,6.77-.05C390,1006.52,349.72,998.33,350.65,971.34Z"/><path class="cls-68" d="M528.51,969.87a29.24,29.24,0,0,0-1.62-9.77L481.14,827.28Q472.55,822.21,464,817l49.3,143.11a29.23,29.23,0,0,1,1.61,9.77,12.53,12.53,0,0,1,.18,1.73c.93,27-39.31,35.19-89.26,35.84q3.36,0,6.78,0c53,0,97-7.68,96-35.89A14.27,14.27,0,0,0,528.51,969.87Z"/><path class="cls-69" d="M529,969.19a27,27,0,0,0-1.47-8.85L469.43,791.7a66.24,66.24,0,0,1-3.63-21.61V704.58H400.44v65.51a66.24,66.24,0,0,1-3.63,21.61L338.89,959.83a29.24,29.24,0,0,0-1.62,9.77,14.24,14.24,0,0,0-.17,1.74c-1,28.2,43,35.88,96,35.88s96-7.68,96-35.88A14,14,0,0,0,529,969.19Z"/><rect class="cls-70" x="396.07" y="692.94" width="74.12" height="11.78" rx="4.89"/><rect class="cls-71" x="396.07" y="692.94" width="74.12" height="11.78" rx="4.89"/><ellipse class="cls-72" cx="436.25" cy="705.2" rx="26.73" ry="7.86"/><path class="cls-73" d="M460.62,773.81c.75,3.33-10.25,28.91-32.58,34.12-22.4,5.8-34.45-18.51-34.06-31.28-.75-13.38,10.25-2.62,32.58,1C449,781.91,461,769.88,460.62,773.81Z"/><path class="cls-74" d="M408.26,776.57,364.43,929.84s25.18,21.76,37.77,6,23.67-159.26,23.67-159.26Z"/><rect class="cls-64" x="420.77" y="935.11" width="18.69" height="0.66"/><rect class="cls-64" x="420.77" y="867.85" width="18.69" height="0.66"/><rect class="cls-64" x="420.77" y="956.81" width="18.69" height="0.66"/><rect class="cls-64" x="420.77" y="907.8" width="18.69" height="0.66"/><path class="cls-64" d="M446.47,878c0-.44,0-.8,0-1.14h.67l0,.68h0a1.42,1.42,0,0,1,1.32-.78,1.24,1.24,0,0,1,1.19.84h0a1.8,1.8,0,0,1,.47-.54,1.44,1.44,0,0,1,.93-.3c.56,0,1.39.37,1.39,1.83V881h-.75v-2.39c0-.81-.3-1.29-.92-1.29a1,1,0,0,0-.9.69,1.18,1.18,0,0,0-.06.39V881h-.75v-2.53c0-.67-.3-1.15-.88-1.15a1,1,0,0,0-1,.76,1.21,1.21,0,0,0-.06.38V881h-.75Z"/><path class="cls-64" d="M453.76,875.17h.76v5.23H457V881h-3.26Z"/><text class="cls-65" transform="translate(444.92 960.84)">100</text><text class="cls-65" transform="translate(444.92 939.14)">150</text><text class="cls-65" transform="translate(444.92 911.83)">200</text><text class="cls-65" transform="translate(444.92 871.87)">250</text><path class="cls-75" d="M752.2,969a27,27,0,0,0-1.47-8.85L692.64,791.46A66.24,66.24,0,0,1,689,769.85V704.34H623.65v65.51A66.24,66.24,0,0,1,620,791.46L562.1,959.59a29.24,29.24,0,0,0-1.62,9.77,14.27,14.27,0,0,0-.17,1.73c-1,28.21,43,35.89,96,35.89s96-7.68,96-35.89A14,14,0,0,0,752.2,969Z"/><path class="cls-76" d="M746.49,964.7A27.45,27.45,0,0,0,745.1,956L690.34,790.87a67.21,67.21,0,0,1-3.43-21.16V705.54H625.3v64.17a67.2,67.2,0,0,1-3.42,21.16L567.27,955.53a29.84,29.84,0,0,0-1.52,9.57,13.79,13.79,0,0,0-.17,1.7c-.91,27.63,22.19,34.52,90.54,35.14,57.82.52,90.54-7.51,90.54-35.14A13.32,13.32,0,0,0,746.49,964.7Z"/><path class="cls-77" d="M573.86,971.1a14.24,14.24,0,0,1,.18-1.74,29.24,29.24,0,0,1,1.62-9.77l57.92-168.13a66.51,66.51,0,0,0,3.63-21.61V704.34H623.65v65.51A66.24,66.24,0,0,1,620,791.46L562.1,959.59a29.24,29.24,0,0,0-1.62,9.77,14.24,14.24,0,0,0-.17,1.74c-1,28.2,43,35.88,96,35.88,2.28,0,4.53,0,6.77-.05C613.17,1006.28,572.93,998.09,573.86,971.1Z"/><path class="cls-78" d="M751.72,969.63a29.24,29.24,0,0,0-1.62-9.77L704.35,827q-8.6-5.07-17.1-10.29l49.3,143.11a29.23,29.23,0,0,1,1.61,9.77,12.53,12.53,0,0,1,.18,1.73c.93,27-39.31,35.19-89.26,35.84q3.36,0,6.78,0c53,0,97-7.68,96-35.89A14.27,14.27,0,0,0,751.72,969.63Z"/><path class="cls-79" d="M752.2,969a27,27,0,0,0-1.47-8.85L692.64,791.46A66.24,66.24,0,0,1,689,769.85V704.34H623.65v65.51A66.24,66.24,0,0,1,620,791.46L562.1,959.59a29.24,29.24,0,0,0-1.62,9.77,14.27,14.27,0,0,0-.17,1.73c-1,28.21,43,35.89,96,35.89s96-7.68,96-35.89A14,14,0,0,0,752.2,969Z"/><rect class="cls-80" x="619.28" y="692.7" width="74.12" height="11.78" rx="4.89"/><rect class="cls-81" x="619.28" y="692.7" width="74.12" height="11.78" rx="4.89"/><ellipse class="cls-82" cx="659.46" cy="704.96" rx="26.73" ry="7.86"/><path class="cls-83" d="M683.83,773.57c.75,3.33-10.25,28.91-32.58,34.12-22.4,5.8-34.45-18.51-34.06-31.28-.75-13.38,10.25-2.62,32.58,1C672.16,781.67,684.22,769.64,683.83,773.57Z"/><path class="cls-84" d="M631.47,776.33,587.64,929.6s25.18,21.76,37.77,6,23.67-159.26,23.67-159.26Z"/><rect class="cls-64" x="645.33" y="934.41" width="18.69" height="0.66"/><rect class="cls-64" x="645.33" y="867.14" width="18.69" height="0.66"/><rect class="cls-64" x="645.33" y="956.11" width="18.69" height="0.66"/><rect class="cls-64" x="645.33" y="907.1" width="18.69" height="0.66"/><path class="cls-64" d="M671,877.26c0-.43,0-.79,0-1.14h.67l0,.68h0a1.46,1.46,0,0,1,1.33-.77,1.26,1.26,0,0,1,1.19.84h0a1.71,1.71,0,0,1,.47-.55,1.44,1.44,0,0,1,.93-.29c.55,0,1.38.36,1.38,1.83v2.48h-.75V878c0-.81-.29-1.3-.91-1.3a1,1,0,0,0-.91.7,1.44,1.44,0,0,0-.06.38v2.61h-.75v-2.53c0-.67-.29-1.16-.88-1.16a1.05,1.05,0,0,0-.94.77.9.9,0,0,0-.06.37v2.55H671Z"/><path class="cls-64" d="M678.32,874.47h.76v5.23h2.51v.64h-3.27Z"/><text class="cls-65" transform="translate(669.49 960.14)">100</text><text class="cls-65" transform="translate(669.49 938.44)">150</text><text class="cls-65" transform="translate(669.49 911.13)">200</text><text class="cls-65" transform="translate(669.49 871.17)">250</text><path class="cls-85" d="M378.92,521.74c-16.56,0-30.52-4.24-35-10a6.44,6.44,0,0,0-1.47,3.93c0,7.71,16.31,14,36.43,14s36.43-6.26,36.43-14a6.39,6.39,0,0,0-1.48-3.93C409.44,517.5,395.47,521.74,378.92,521.74Z"/><path class="cls-86" d="M444.07,475.79c0-17-29.17-30.81-65.15-30.81s-65.15,13.79-65.15,30.81c0,8.06,6.56,15.4,17.29,20.9,6.46,3.82,11.15,10.87,13.12,14.21,2.24,6.85,16.94,12.15,34.74,12.15,16.16,0,29.76-4.36,33.81-10.29h0a8.46,8.46,0,0,0,.75-1.38c1.8-3.16,6.8-11,13.83-15h0C437.73,490.94,444.07,483.71,444.07,475.79Z"/><path class="cls-87" d="M379.67,451.63c28.82,0,52.71,9.95,57.17,23,0,0,0-.08,0-.11,0-15.13-25.94-27.4-57.93-27.4S321,459.37,321,474.5a13.53,13.53,0,0,0,.76,4.4C321.89,463.83,347.76,451.63,379.67,451.63Z"/><path class="cls-88" d="M444.07,475.79c0-17-29.17-30.81-65.15-30.81s-65.15,13.79-65.15,30.81c0,8.06,6.56,15.4,17.29,20.9,6.46,3.82,11.15,10.87,13.12,14.21,2.24,6.85,16.94,12.15,34.74,12.15,16.16,0,29.76-4.36,33.81-10.29h0a8.46,8.46,0,0,0,.75-1.38c1.8-3.16,6.8-11,13.83-15h0C437.73,490.94,444.07,483.71,444.07,475.79Z"/><path class="cls-88" d="M378.92,521.74c-16.56,0-30.52-4.24-35-10a6.44,6.44,0,0,0-1.47,3.93c0,7.71,16.31,14,36.43,14s36.43-6.26,36.43-14a6.39,6.39,0,0,0-1.48-3.93C409.44,517.5,395.47,521.74,378.92,521.74Z"/><path class="cls-89" d="M436.85,485.05c0-6.93-25.94-12.55-57.93-12.55S321,478.12,321,485.05a3.47,3.47,0,0,0,.84,2.13h0c1.83,2.75,8.87,7.94,12.67,9.75,5.93,3.27,10.24,9.28,12,12.14,2.07,5.84,15.55,10.36,31.9,10.36,14.83,0,27.31-3.72,31-8.78h0a6.4,6.4,0,0,0,.69-1.17c1.66-2.7,6.24-9.41,12.7-12.78h0a49.17,49.17,0,0,0,12.49-8.79h0A4,4,0,0,0,436.85,485.05Z"/><ellipse class="cls-90" cx="378.92" cy="485.05" rx="57.93" ry="12.55"/><path class="cls-91" d="M379.13,495.62c-32.34,0-58.84-5.12-61.17-11.61a2.77,2.77,0,0,0-.17.93c0,6.93,27.46,12.54,61.34,12.54s61.34-5.61,61.34-12.54a2.77,2.77,0,0,0-.17-.93C438,490.5,411.47,495.62,379.13,495.62Z"/><path class="cls-92" d="M398.89,461.26c-.15,3.54-9,6.39-20,6.39s-19.83-2.85-20-6.39c-2.11,1-3.33,2.12-3.33,3.34,0,3.58,10.43,6.48,23.31,6.48s23.31-2.9,23.31-6.48C402.23,463.38,401,462.24,398.89,461.26Z"/><path class="cls-93" d="M394.56,455.18l-.16-.22a8.26,8.26,0,0,1-1.59-4.89V427.56a4.34,4.34,0,0,0-4.34-4.34H369.15a4.34,4.34,0,0,0-4.34,4.34v22.82a8.25,8.25,0,0,1-1.53,4.8l.2,0h-.2c0,1.72,7,3.11,15.64,3.11s15.64-1.39,15.64-3.11h-.2Z"/><path class="cls-94" d="M366.32,455.21h.2l-.2,0a8.25,8.25,0,0,0,1.53-4.8V427.56a4.34,4.34,0,0,1,4.34-4.34h-2.55a4.33,4.33,0,0,0-4.33,4.34v22.82a8.33,8.33,0,0,1-1.53,4.8l.2,0h-.2c0,1.72,7,3.11,15.64,3.11h1.27C372.65,458.18,366.32,456.84,366.32,455.21Z"/><path class="cls-95" d="M394.56,455.18l-.16-.22a8.26,8.26,0,0,1-1.59-4.89V427.56a4.34,4.34,0,0,0-4.34-4.34H369.15a4.34,4.34,0,0,0-4.34,4.34v22.82a8.25,8.25,0,0,1-1.53,4.8l.2,0h-.2c0,1.72,7,3.11,15.64,3.11s15.64-1.39,15.64-3.11h-.2Z"/><ellipse class="cls-96" cx="389.34" cy="443.75" rx="1.55" ry="10.95"/><path class="cls-97" d="M373.1,507a21.81,21.81,0,0,1-6.65-.92c-2.89-.94-4.82-2.54-5.59-4.63l2.31-1c.46,1.28,1.88,2.36,4,3,6.28,2.05,17.66.43,25.81-5.8,1.78-1.37,1.73-2,1.72-2s-.23-.37-.77-.67a39.11,39.11,0,0,1-11,5c-4.41,1.19-7.22,1.09-8.35-.3a3.9,3.9,0,0,1-.8-4.32c2-4.13,11.86-4.69,16.71-4.07a16.49,16.49,0,0,1,3.2.69c2.15-1.65,3.54-3.38,3.9-5,2.88-12.9-7.87-18.67-13.65-21.77a22,22,0,0,1-3.09-1.83c-9-7.17-3.07-27.84-2.81-28.71l2.36.81c-.06.2-5.63,19.7,1.91,25.72a22.81,22.81,0,0,0,2.72,1.59c5.95,3.19,18.32,9.82,15,24.83a11.15,11.15,0,0,1-3.85,5.67,3.27,3.27,0,0,1,1,1.67c.55,2.4-1.9,4.28-2.71,4.9A36.43,36.43,0,0,1,373.1,507Zm13.59-13.23c-5.19,0-10,1.35-10.76,2.84-.05.12-.22.46.45,1.29.55.44,4,.41,9.55-1.74a38,38,0,0,0,4.56-2.13l-.34-.05A26.67,26.67,0,0,0,386.69,493.72Z"/><path class="cls-98" d="M381.15,423.82s.13-.32.71-7.4l-.8,1.41L380,416.42v2.12l-1.78-1.13.62,2-.62,4.43Z"/><rect class="cls-99" x="370.05" y="423.82" width="17.74" height="2.1" rx="0.94"/><path class="cls-100" d="M386.74,425.87H371.1a1,1,0,0,1-.74-.31v8.77a1.52,1.52,0,0,0,1.52,1.51H386a1.52,1.52,0,0,0,1.51-1.51v-8.77A1,1,0,0,1,386.74,425.87Z"/><ellipse class="cls-101" cx="379.13" cy="405.85" rx="12.8" ry="15.63"/><ellipse class="cls-102" cx="379.13" cy="395.63" rx="9.6" ry="11.73"/><ellipse class="cls-103" cx="377.92" cy="381.76" rx="6.92" ry="8.45"/><ellipse class="cls-104" cx="379.13" cy="402.71" rx="7.21" ry="17.29"/><path class="cls-105" d="M525.6,521.74c-16.56,0-30.52-4.24-35-10a6.44,6.44,0,0,0-1.47,3.93c0,7.71,16.31,14,36.43,14s36.43-6.26,36.43-14a6.39,6.39,0,0,0-1.48-3.93C556.12,517.5,542.15,521.74,525.6,521.74Z"/><path class="cls-106" d="M590.75,475.79c0-17-29.17-30.81-65.15-30.81s-65.15,13.79-65.15,30.81c0,8.06,6.56,15.4,17.29,20.9,6.46,3.82,11.15,10.87,13.12,14.21,2.24,6.85,16.94,12.15,34.74,12.15,16.16,0,29.76-4.36,33.81-10.29h0a8.46,8.46,0,0,0,.75-1.38c1.8-3.16,6.8-11,13.83-15h0C584.41,490.94,590.75,483.71,590.75,475.79Z"/><path class="cls-107" d="M526.35,451.63c28.82,0,52.71,9.95,57.17,23,0,0,0-.08,0-.11,0-15.13-25.94-27.4-57.93-27.4s-57.93,12.27-57.93,27.4a13.53,13.53,0,0,0,.76,4.4C468.57,463.83,494.44,451.63,526.35,451.63Z"/><path class="cls-88" d="M590.75,475.79c0-17-29.17-30.81-65.15-30.81s-65.15,13.79-65.15,30.81c0,8.06,6.56,15.4,17.29,20.9,6.46,3.82,11.15,10.87,13.12,14.21,2.24,6.85,16.94,12.15,34.74,12.15,16.16,0,29.76-4.36,33.81-10.29h0a8.46,8.46,0,0,0,.75-1.38c1.8-3.16,6.8-11,13.83-15h0C584.41,490.94,590.75,483.71,590.75,475.79Z"/><path class="cls-88" d="M525.6,521.74c-16.56,0-30.52-4.24-35-10a6.44,6.44,0,0,0-1.47,3.93c0,7.71,16.31,14,36.43,14s36.43-6.26,36.43-14a6.39,6.39,0,0,0-1.48-3.93C556.12,517.5,542.15,521.74,525.6,521.74Z"/><path class="cls-108" d="M583.53,485.05c0-6.93-25.94-12.55-57.93-12.55s-57.93,5.62-57.93,12.55a3.47,3.47,0,0,0,.84,2.13h0c1.83,2.75,8.88,7.94,12.67,9.75,5.93,3.27,10.24,9.28,12,12.14,2.07,5.84,15.55,10.36,31.9,10.36,14.83,0,27.31-3.72,31-8.78h0a6.4,6.4,0,0,0,.69-1.17c1.66-2.7,6.24-9.41,12.7-12.78h0A49.17,49.17,0,0,0,582,487.9h0A4,4,0,0,0,583.53,485.05Z"/><ellipse class="cls-109" cx="525.6" cy="485.05" rx="57.93" ry="12.55"/><path class="cls-110" d="M525.81,495.62c-32.34,0-58.84-5.12-61.17-11.61a2.77,2.77,0,0,0-.17.93c0,6.93,27.46,12.54,61.34,12.54s61.34-5.61,61.34-12.54A2.77,2.77,0,0,0,587,484C584.65,490.5,558.15,495.62,525.81,495.62Z"/><path class="cls-111" d="M545.57,461.26c-.15,3.54-9,6.39-20,6.39s-19.83-2.85-20-6.39c-2.11,1-3.33,2.12-3.33,3.34,0,3.58,10.43,6.48,23.31,6.48s23.31-2.9,23.31-6.48C548.91,463.38,547.69,462.24,545.57,461.26Z"/><path class="cls-112" d="M541.24,455.18l-.16-.22a8.26,8.26,0,0,1-1.59-4.89V427.56a4.34,4.34,0,0,0-4.34-4.34H515.83a4.34,4.34,0,0,0-4.34,4.34v22.82a8.25,8.25,0,0,1-1.53,4.8l.2,0H510c0,1.72,7,3.11,15.64,3.11s15.64-1.39,15.64-3.11H541Z"/><path class="cls-113" d="M513,455.21h.2l-.2,0a8.25,8.25,0,0,0,1.53-4.8V427.56a4.34,4.34,0,0,1,4.34-4.34h-2.55a4.33,4.33,0,0,0-4.33,4.34v22.82a8.33,8.33,0,0,1-1.53,4.8l.2,0h-.2c0,1.72,7,3.11,15.64,3.11h1.27C519.33,458.18,513,456.84,513,455.21Z"/><path class="cls-95" d="M541.24,455.18l-.16-.22a8.26,8.26,0,0,1-1.59-4.89V427.56a4.34,4.34,0,0,0-4.34-4.34H515.83a4.34,4.34,0,0,0-4.34,4.34v22.82a8.25,8.25,0,0,1-1.53,4.8l.2,0H510c0,1.72,7,3.11,15.64,3.11s15.64-1.39,15.64-3.11H541Z"/><ellipse class="cls-114" cx="536.02" cy="443.75" rx="1.55" ry="10.95"/><path class="cls-115" d="M519.78,507a21.81,21.81,0,0,1-6.65-.92c-2.89-.94-4.82-2.54-5.58-4.63l2.3-1c.46,1.28,1.88,2.36,4,3,6.28,2.05,17.66.43,25.81-5.8,1.78-1.37,1.73-2,1.73-2s-.24-.37-.78-.67a39.11,39.11,0,0,1-11,5c-4.41,1.19-7.22,1.09-8.35-.3a3.88,3.88,0,0,1-.79-4.32c2-4.13,11.85-4.69,16.7-4.07a16.49,16.49,0,0,1,3.2.69c2.15-1.65,3.54-3.38,3.9-5,2.88-12.9-7.87-18.67-13.65-21.77a22,22,0,0,1-3.09-1.83c-9-7.17-3.07-27.84-2.81-28.71l2.36.81c-.06.2-5.63,19.7,1.91,25.72a22.81,22.81,0,0,0,2.72,1.59c6,3.19,18.32,9.82,15,24.83a11.15,11.15,0,0,1-3.85,5.67,3.27,3.27,0,0,1,1,1.67c.55,2.4-1.9,4.28-2.71,4.9A36.43,36.43,0,0,1,519.78,507Zm13.59-13.23c-5.19,0-10,1.35-10.76,2.84-.05.12-.22.46.45,1.29.55.44,4,.41,9.56-1.74a39.47,39.47,0,0,0,4.56-2.13l-.35-.05A26.67,26.67,0,0,0,533.37,493.72Z"/><path class="cls-116" d="M527.83,423.82s.13-.32.71-7.4l-.8,1.41-1.07-1.41v2.12l-1.78-1.13.62,2-.62,4.43Z"/><rect class="cls-117" x="516.73" y="423.82" width="17.74" height="2.1" rx="0.94"/><path class="cls-118" d="M533.42,425.87H517.78a1,1,0,0,1-.74-.31v8.77a1.52,1.52,0,0,0,1.52,1.51h14.09a1.52,1.52,0,0,0,1.51-1.51v-8.77A1,1,0,0,1,533.42,425.87Z"/><ellipse class="cls-119" cx="525.81" cy="405.85" rx="12.8" ry="15.63"/><ellipse class="cls-120" cx="525.81" cy="395.63" rx="9.6" ry="11.73"/><ellipse class="cls-121" cx="524.6" cy="381.76" rx="6.92" ry="8.45"/><ellipse class="cls-122" cx="525.81" cy="402.71" rx="7.21" ry="17.29"/><rect class="cls-123" x="330.89" y="5.34" width="7.9" height="378.99" rx="3.53"/><path class="cls-124" d="M365.83,109.06H305.1l3,37.63a.64.64,0,0,0-.12.34c0,2.23,12.28,4,27.42,4s27.41-1.81,27.41-4h0Z"/><ellipse class="cls-125" cx="335.47" cy="109.57" rx="30.36" ry="4.7"/><path class="cls-126" d="M328.49,376.78c0,.24-.05.48-.05.72,0,11.32,14.44,20.49,32.26,20.49S393,388.82,393,377.5c0-.24,0-.48-.06-.72Z"/><ellipse class="cls-127" cx="360.7" cy="376.78" rx="32.26" ry="11.91"/><ellipse class="cls-128" cx="360.7" cy="376.78" rx="32.26" ry="11.91"/><ellipse class="cls-129" cx="348.25" cy="379.93" rx="15.66" ry="14.07" transform="translate(-54.98 58.95) rotate(-8.97)"/><g class="cls-130"><rect class="cls-131" x="330.99" y="5.34" width="7.9" height="378.99" rx="3.53"/></g><path class="cls-132" d="M350.29,382.75l12.38,4.12,7.15-3.4s4.82-1.44,5.65-2.55,7.07-8.22,7.1-9.39,2.79-6.35,2.79-6.35l-1.79-2.95a12,12,0,0,0-7.2-1.09,16.32,16.32,0,0,1-8.54-1.59s-6.4,2.52-6.87,4.22-4,3.87-4,5.34-5.43,7.19-5.43,7.19S348.41,382.13,350.29,382.75Z"/><path class="cls-133" d="M352.46,380.83s8.78-6.31,9.46-6.3,3.36,1.89,3,2.14-.09,1.33,1.45,2.05a1.59,1.59,0,0,1-1,3c-2.07-.26-4.35-1.84-6.85-1.3A30.83,30.83,0,0,1,352.46,380.83Z"/><path class="cls-134" d="M351.33,380l10.39-6.38s3.83-4.84,3.14-5.31-.74-1.55.33-3l2.58-3.42-.82-1.45-2.33.49-3.42,2a4.72,4.72,0,0,1-1,3c-1.15,1.51-2.35,2.31-3.74,4.26s-1.82,4.47-2.75,5.71-3.82,4.29-3.82,4.29Z"/><path class="cls-134" d="M364.09,374s3.51-3,5.7-2.47,2.59,1.18,2.87.81-1.63,1.7,2-2.6,3.82-2.51,4.92-3.05a14.79,14.79,0,0,0,3-2.78s1.6-.05,1.11.84-1.83,3.1-2.55,4.29a17.44,17.44,0,0,0-2.12,4.41,22.74,22.74,0,0,1-4.18,6.69c-1,.83-2.43,1-2.81,1.88s-6.52,2.63-6.52,2.63,1.72-2,2.65-3.27l.92-1.22-.74-3.16-3.34-2.88Z"/><path class="cls-133" d="M367,370.1l6.13-3.27s.53.91.89.43a4.16,4.16,0,0,1,1.48-2,17.94,17.94,0,0,1,4.6-2.32s.13-.49-1.16-.62-1.08.4-3.75.76a5,5,0,0,1-4.52-1.32c-.76-.62-2.43-1.86-2.43-1.86s-.7-.22-.88,2.56.42,4.73.75,5,1.09-1.75.33.25a5.32,5.32,0,0,1-2.45,2.78l1.68-.78"/><path class="cls-135" d="M351.37,381.67s7-4.3,7.76-4.58.16.55,1.88-2.11,2.42-3,2.42-3l-.7.31a3.75,3.75,0,0,1-1.62,1.72,13.59,13.59,0,0,0-2.83,1.65c-1.26.86-2.65,1.71-3.65,2.32A23.35,23.35,0,0,0,351.37,381.67Z"/><path class="cls-135" d="M366.94,368.81a14.73,14.73,0,0,0,.56-3.14c-.1-.73-1.27-.51,0-2.23l1.64-2.16-.91-1.34a2.06,2.06,0,0,0-1.4,1.85,3.33,3.33,0,0,1-.94,2.63c-.72,1-1.5,1.54-.86,2.3a7.27,7.27,0,0,1,1,1.79l-1.55,3.5,1.9-2.5Z"/><ellipse class="cls-136" cx="128.66" cy="518.36" rx="85.74" ry="19.12"/><ellipse class="cls-137" cx="128.66" cy="517.76" rx="85.74" ry="19.72"/><path class="cls-138" d="M225.63,504.18a27.19,27.19,0,0,0-1.47-8.84L166.06,326.7a66.51,66.51,0,0,1-3.63-21.61V239.57H97.08v65.52a66.51,66.51,0,0,1-3.63,21.61L35.53,494.83a29.18,29.18,0,0,0-1.62,9.76,14.66,14.66,0,0,0-.18,1.74c-1,28.21,43,35.88,96,35.88s96-7.67,96-35.88A14.07,14.07,0,0,0,225.63,504.18Z"/><path class="cls-139" d="M219.91,499.93a27.14,27.14,0,0,0-1.38-8.66L163.76,326.11A67.16,67.16,0,0,1,160.34,305V240.79H98.73V305a67.17,67.17,0,0,1-3.43,21.16L40.7,490.77a29.54,29.54,0,0,0-1.53,9.57A16,16,0,0,0,39,502c-.92,27.62,22.19,34.52,90.54,35.14,57.81.52,90.54-7.52,90.54-35.14A13.55,13.55,0,0,0,219.91,499.93Z"/><path class="cls-140" d="M47.29,506.33a14.64,14.64,0,0,1,.17-1.74,29.18,29.18,0,0,1,1.62-9.76L107,326.7a66.24,66.24,0,0,0,3.63-21.61V239.57H97.08v65.52a66.51,66.51,0,0,1-3.63,21.61L35.53,494.83a29.18,29.18,0,0,0-1.62,9.76,14.66,14.66,0,0,0-.18,1.74c-1,28.21,43,35.88,96,35.88q3.42,0,6.78,0C86.59,541.51,46.36,533.33,47.29,506.33Z"/><path class="cls-141" d="M225.15,504.86a29.18,29.18,0,0,0-1.62-9.76L177.77,362.28q-8.58-5.08-17.1-10.29L210,495.1a29.18,29.18,0,0,1,1.62,9.76,14.64,14.64,0,0,1,.17,1.74c.94,27-39.3,35.18-89.25,35.84q3.34,0,6.77,0c53,0,97-7.67,96-35.88A14.64,14.64,0,0,0,225.15,504.86Z"/><path class="cls-142" d="M225.63,504.18a27.19,27.19,0,0,0-1.47-8.84L166.06,326.7a66.51,66.51,0,0,1-3.63-21.61V239.57H97.08v65.52a66.51,66.51,0,0,1-3.63,21.61L35.53,494.83a29.18,29.18,0,0,0-1.62,9.76,14.66,14.66,0,0,0-.18,1.74c-1,28.21,43,35.88,96,35.88s96-7.67,96-35.88A14.07,14.07,0,0,0,225.63,504.18Z"/><rect class="cls-143" x="92.7" y="227.94" width="74.12" height="11.78" rx="4.89"/><rect class="cls-144" x="92.7" y="227.94" width="74.12" height="11.78" rx="4.89"/><ellipse class="cls-145" cx="132.88" cy="240.2" rx="26.73" ry="7.86"/><path class="cls-146" d="M157.25,308.81c.75,3.33-10.25,28.91-32.58,34.11-22.39,5.8-34.45-18.51-34-31.28-.76-13.38,10.24-2.61,32.57,1C145.59,316.9,157.64,304.87,157.25,308.81Z"/><path class="cls-147" d="M104.9,311.56,61.06,464.84s25.18,21.76,37.78,6,23.67-159.26,23.67-159.26Z"/><rect class="cls-64" x="107.74" y="470.11" width="18.69" height="0.66"/><rect class="cls-64" x="107.74" y="402.84" width="18.69" height="0.66"/><rect class="cls-64" x="107.74" y="491.81" width="18.69" height="0.66"/><rect class="cls-64" x="107.74" y="442.8" width="18.69" height="0.66"/><path class="cls-64" d="M133.45,413c0-.43,0-.79,0-1.14h.67l0,.68h0a1.46,1.46,0,0,1,1.33-.77,1.24,1.24,0,0,1,1.19.84h0a1.71,1.71,0,0,1,.47-.55,1.44,1.44,0,0,1,.93-.29c.56,0,1.38.36,1.38,1.82V416h-.75v-2.38c0-.81-.29-1.3-.91-1.3a1,1,0,0,0-.91.7,1.38,1.38,0,0,0-.06.38V416h-.74v-2.52c0-.67-.3-1.16-.88-1.16a1.05,1.05,0,0,0-1,.77.9.9,0,0,0-.06.37V416h-.75Z"/><path class="cls-64" d="M140.74,410.17h.75v5.23H144V416h-3.26Z"/><text class="cls-65" transform="translate(131.9 495.83)">100</text><text class="cls-65" transform="translate(131.9 474.13)">150</text><text class="cls-65" transform="translate(131.9 446.82)">200</text><text class="cls-65" transform="translate(131.9 406.87)">250</text><rect class="cls-148" x="478.35" y="5.34" width="7.9" height="378.99" rx="3.53"/><path class="cls-149" d="M513.29,109.06H452.56l3,37.63a.64.64,0,0,0-.12.34c0,2.23,12.27,4,27.41,4s27.42-1.81,27.42-4h0Z"/><ellipse class="cls-150" cx="482.92" cy="109.57" rx="30.36" ry="4.7"/><path class="cls-151" d="M476,376.78c0,.24-.06.48-.06.72,0,11.32,14.45,20.49,32.27,20.49s32.26-9.17,32.26-20.49c0-.24,0-.48-.06-.72Z"/><ellipse class="cls-152" cx="508.16" cy="376.78" rx="32.26" ry="11.91"/><ellipse class="cls-153" cx="508.16" cy="376.78" rx="32.26" ry="11.91"/><ellipse class="cls-154" cx="495.7" cy="379.93" rx="15.66" ry="14.07" transform="translate(-53.18 81.94) rotate(-8.97)"/><g class="cls-155"><rect class="cls-156" x="478.45" y="5.34" width="7.9" height="378.99" rx="3.53"/></g><path class="cls-132" d="M496.91,387.58s11.14,2.31,27.22-.95c0,0,10.41-1.26,11.57-3.89s-7.89-5.89-9.88-4.2-10.41-1.58-13.88-1.37-13.77-.42-14.5,1.79-8.1.94-8.1,3.47S487.24,386.63,496.91,387.58Z"/><path class="cls-135" d="M513.52,378.64s1.26-3.47,4.73-1.05,3.57,1.37,7.46,2.1,6.62,2.21,3,3.26,3.47,3.37-5.57,1.47-6.31-2.83-9.57-2.31-2.41,1.37-4.31,1.16-3.26-.84-3.15-2.11S509.1,378.33,513.52,378.64Z"/><path class="cls-134" d="M497.86,382.74c1.57.42,3.36,3.15,7.25,2.84s5-1.05,7.25-.42,7-.11,6,1-1.26,1.26-4.41,1.05.42-.52-6-.31-5.47,1.57-8.62.21-5.15-1-5.57-2.84S497.86,382.74,497.86,382.74Z"/><rect class="cls-157" x="698.82" y="106.5" width="7.9" height="378.99" rx="3.53"/><path class="cls-158" d="M733.76,210.22H673l3,37.63a.64.64,0,0,0-.12.34c0,2.23,12.27,4,27.41,4s27.42-1.81,27.42-4h0Z"/><ellipse class="cls-159" cx="703.4" cy="210.73" rx="30.36" ry="4.7"/><path class="cls-160" d="M696.42,477.94c0,.24-.06.48-.06.72,0,11.32,14.45,20.49,32.27,20.49s32.26-9.17,32.26-20.49c0-.24,0-.48-.06-.72Z"/><ellipse class="cls-161" cx="728.63" cy="477.94" rx="32.26" ry="11.91"/><ellipse class="cls-162" cx="728.63" cy="477.94" rx="32.26" ry="11.91"/><ellipse class="cls-163" cx="716.17" cy="481.09" rx="15.66" ry="14.07" transform="translate(-66.25 117.55) rotate(-8.97)"/><g class="cls-164"><rect class="cls-165" x="698.92" y="106.5" width="7.9" height="378.99" rx="3.53"/></g><path class="cls-132" d="M717.38,488.74s11.14,2.31,27.23-.95c0,0,10.4-1.26,11.56-3.89s-7.88-5.88-9.88-4.2-10.41-1.58-13.88-1.37-13.77-.42-14.5,1.79-8.1.94-8.1,3.47S707.71,487.79,717.38,488.74Z"/><path class="cls-135" d="M734,479.8s1.26-3.47,4.73-1.05,3.57,1.37,7.46,2.1,6.63,2.21,3.05,3.26,3.47,3.37-5.57,1.47-6.31-2.83-9.57-2.31-2.41,1.37-4.31,1.16-3.25-.84-3.15-2.11S729.57,479.49,734,479.8Z"/><path class="cls-134" d="M718.33,483.9c1.57.42,3.36,3.16,7.25,2.84s5-1.05,7.25-.42,7-.11,6,1.05-1.26,1.26-4.41,1.05.42-.52-6-.31-5.47,1.57-8.62.21-5.15-.95-5.57-2.84S718.33,483.9,718.33,483.9Z"/><path class="cls-133" d="M512.78,385.49a21.81,21.81,0,0,1,5,.34c2.17.48,2.25.2,3.77-.41s.32.75-.72,1.09a13.21,13.21,0,0,1-4.25.82c-1.77,0-6.26.47-5.78-.48A3.62,3.62,0,0,1,512.78,385.49Z"/><ellipse class="cls-166" cx="702.68" cy="513.4" rx="85.74" ry="19.12"/><ellipse class="cls-167" cx="702.68" cy="512.8" rx="85.74" ry="19.72"/><path class="cls-168" d="M799.64,498.51a27,27,0,0,0-1.46-8.85L740.08,321a66.51,66.51,0,0,1-3.63-21.61V233.9H671.1v65.52A66.25,66.25,0,0,1,667.46,321L609.55,489.16a28.93,28.93,0,0,0-1.62,9.76,14.66,14.66,0,0,0-.18,1.74c-1,28.21,43,35.88,96,35.88s96-7.67,96-35.88A12.92,12.92,0,0,0,799.64,498.51Z"/><path class="cls-169" d="M793.93,494.26a27.14,27.14,0,0,0-1.38-8.66L737.78,320.44a67.16,67.16,0,0,1-3.42-21.16V235.12H672.74v64.16a67.16,67.16,0,0,1-3.42,21.16L614.72,485.1a29.54,29.54,0,0,0-1.53,9.57,16,16,0,0,0-.16,1.7c-.92,27.62,22.19,34.52,90.54,35.14,57.81.52,90.54-7.52,90.54-35.14A13.55,13.55,0,0,0,793.93,494.26Z"/><path class="cls-170" d="M621.31,500.66a14.64,14.64,0,0,1,.17-1.74,29.18,29.18,0,0,1,1.62-9.76L681,321a66.24,66.24,0,0,0,3.63-21.61V233.9H671.1v65.52A66.25,66.25,0,0,1,667.46,321L609.55,489.16a28.93,28.93,0,0,0-1.62,9.76,14.66,14.66,0,0,0-.18,1.74c-1,28.21,43,35.88,96,35.88q3.42,0,6.78,0C660.61,535.84,620.38,527.66,621.31,500.66Z"/><path class="cls-171" d="M799.16,499.19a29.17,29.17,0,0,0-1.61-9.76L751.79,356.6q-8.58-5.07-17.1-10.28L784,489.43a29.18,29.18,0,0,1,1.62,9.76,14.64,14.64,0,0,1,.17,1.74c.93,27-39.3,35.18-89.26,35.84q3.36,0,6.78,0c53,0,97-7.67,96-35.88A12.83,12.83,0,0,0,799.16,499.19Z"/><path class="cls-172" d="M799.64,498.51a27,27,0,0,0-1.46-8.85L740.08,321a66.51,66.51,0,0,1-3.63-21.61V233.9H671.1v65.52A66.25,66.25,0,0,1,667.46,321L609.55,489.16a28.93,28.93,0,0,0-1.62,9.76,14.66,14.66,0,0,0-.18,1.74c-1,28.21,43,35.88,96,35.88s96-7.67,96-35.88A12.92,12.92,0,0,0,799.64,498.51Z"/><rect class="cls-173" x="666.72" y="222.27" width="74.12" height="11.78" rx="4.89"/><rect class="cls-174" x="666.72" y="222.27" width="74.12" height="11.78" rx="4.89"/><ellipse class="cls-175" cx="706.9" cy="234.53" rx="26.73" ry="7.86"/><path class="cls-176" d="M731.27,303.14c.75,3.33-10.25,28.9-32.58,34.11-22.39,5.8-34.45-18.51-34.05-31.28-.76-13.38,10.25-2.61,32.57,1C719.61,311.23,731.66,299.2,731.27,303.14Z"/><path class="cls-177" d="M678.92,305.89,635.08,459.17s25.18,21.76,37.77,6,23.67-159.26,23.67-159.26Z"/><rect class="cls-64" x="681.76" y="465.15" width="18.69" height="0.66"/><rect class="cls-64" x="681.76" y="397.88" width="18.69" height="0.66"/><rect class="cls-64" x="681.76" y="486.85" width="18.69" height="0.66"/><rect class="cls-64" x="681.76" y="437.84" width="18.69" height="0.66"/><path class="cls-64" d="M707.47,408c0-.43,0-.79,0-1.14h.67l0,.68h0a1.46,1.46,0,0,1,1.33-.77,1.25,1.25,0,0,1,1.19.84h0a1.71,1.71,0,0,1,.47-.55,1.44,1.44,0,0,1,.93-.29c.55,0,1.38.36,1.38,1.82v2.48h-.75v-2.38c0-.81-.29-1.3-.91-1.3a1,1,0,0,0-.91.7,1.38,1.38,0,0,0-.06.38v2.6h-.75v-2.52c0-.67-.29-1.16-.88-1.16a1.05,1.05,0,0,0-.94.77.9.9,0,0,0-.06.37v2.54h-.75Z"/><path class="cls-64" d="M714.75,405.21h.76v5.23H718v.63h-3.27Z"/><text class="cls-65" transform="translate(705.92 490.88)">100</text><text class="cls-65" transform="translate(705.92 469.18)">150</text><text class="cls-65" transform="translate(705.92 441.86)">200</text><text class="cls-65" transform="translate(705.92 401.91)">250</text><path class="cls-178" d="M1018.45,499.65a27,27,0,0,0-1.47-8.85L958.64,322.16A66.21,66.21,0,0,1,955,300.55V235H889.38v65.51a65.91,65.91,0,0,1-3.65,21.61L827.57,490.3a29.18,29.18,0,0,0-1.62,9.76,14.66,14.66,0,0,0-.18,1.74c-1,28.21,43.18,35.88,96.43,35.88s96.44-7.67,96.44-35.88A14.08,14.08,0,0,0,1018.45,499.65Z"/><ellipse class="cls-179" cx="920.51" cy="513.88" rx="85.74" ry="19.12"/><ellipse class="cls-180" cx="920.51" cy="513.28" rx="85.74" ry="19.72"/><rect class="cls-181" x="916.97" y="104.04" width="8.13" height="390.03" rx="3.53"/><path class="cls-182" d="M952.92,210.79H890.43l3.08,38.72a.7.7,0,0,0-.12.35c0,2.3,12.63,4.16,28.21,4.16s28.21-1.86,28.21-4.16h0Z"/><ellipse class="cls-183" cx="921.68" cy="211.31" rx="31.25" ry="4.84"/><path class="cls-184" d="M914.5,486.31c0,.24-.06.49-.06.74,0,11.64,14.86,21.08,33.2,21.08s33.2-9.44,33.2-21.08c0-.25,0-.5-.05-.74Z"/><ellipse class="cls-185" cx="947.64" cy="486.31" rx="33.2" ry="12.25"/><ellipse class="cls-186" cx="947.64" cy="486.31" rx="33.2" ry="12.25"/><ellipse class="cls-187" cx="934.83" cy="489.55" rx="16.12" ry="14.48" transform="translate(-64.9 151.75) rotate(-8.97)"/><g class="cls-188"><rect class="cls-189" x="917.07" y="104.04" width="8.13" height="390.03" rx="3.53"/></g><path class="cls-190" d="M1012.91,497.23a26.09,26.09,0,0,0-1.4-8.48L956.37,327.21a63.85,63.85,0,0,1-3.45-20.7V234.75h-62v71.76a63.85,63.85,0,0,1-3.45,20.7l-55,161.06a28.24,28.24,0,0,0-1.53,9.35,13.34,13.34,0,0,0-.17,1.66c-.92,27,40.82,34.37,91.16,34.37s91.16-7.35,91.16-34.37A14.06,14.06,0,0,0,1012.91,497.23Z"/><path class="cls-191" d="M839.2,501.31a14.27,14.27,0,0,1,.17-1.73,29.24,29.24,0,0,1,1.62-9.77l57.92-168.13a66.24,66.24,0,0,0,3.63-21.61V234.55H889v65.52a66.51,66.51,0,0,1-3.63,21.61L827.44,489.81a29.24,29.24,0,0,0-1.62,9.77,14.29,14.29,0,0,0-.18,1.73c-1,28.21,43,35.88,96,35.88q3.42,0,6.78,0C878.51,536.49,838.27,528.31,839.2,501.31Z"/><path class="cls-192" d="M1017.06,499.84a29.22,29.22,0,0,0-1.62-9.76L969.68,357.26q-8.58-5.08-17.1-10.29l49.3,143.11a29.22,29.22,0,0,1,1.62,9.76,14.64,14.64,0,0,1,.17,1.74c.94,27-39.3,35.18-89.25,35.84q3.35,0,6.77,0c53,0,97-7.67,96-35.88A14.64,14.64,0,0,0,1017.06,499.84Z"/><path class="cls-193" d="M1017.54,499.16a27.23,27.23,0,0,0-1.47-8.84L958,321.68a66.51,66.51,0,0,1-3.63-21.61V234.55H889v65.52a66.51,66.51,0,0,1-3.63,21.61L827.44,489.81a29.24,29.24,0,0,0-1.62,9.77,14.29,14.29,0,0,0-.18,1.73c-1,28.21,43,35.88,96,35.88s96-7.67,96-35.88A14.07,14.07,0,0,0,1017.54,499.16Z"/><rect class="cls-194" x="884.61" y="222.92" width="74.12" height="11.78" rx="4.89"/><rect class="cls-195" x="884.61" y="222.92" width="74.12" height="11.78" rx="4.89"/><ellipse class="cls-196" cx="924.79" cy="235.18" rx="26.73" ry="7.86"/><g class="cls-61"><path class="cls-197" d="M949.16,303.79c.76,3.33-10.25,28.91-32.57,34.11-22.4,5.8-34.46-18.5-34.06-31.28-.75-13.37,10.24-2.61,32.57,1C937.5,311.88,949.55,299.85,949.16,303.79Z"/></g><path class="cls-198" d="M896.81,306.55,853,459.82s25.18,21.76,37.78,6,23.67-159.25,23.67-159.25Z"/><ellipse class="cls-199" cx="923.5" cy="432.89" rx="67.06" ry="84.24" transform="translate(-74.31 221.65) rotate(-13.16)"/><rect class="cls-64" x="911.48" y="466.09" width="18.69" height="0.66"/><rect class="cls-64" x="911.48" y="398.82" width="18.69" height="0.66"/><rect class="cls-64" x="911.48" y="487.79" width="18.69" height="0.66"/><rect class="cls-64" x="911.48" y="438.78" width="18.69" height="0.66"/><path class="cls-64" d="M937.19,408.94c0-.43,0-.79,0-1.14h.67l0,.68h0a1.46,1.46,0,0,1,1.32-.77,1.25,1.25,0,0,1,1.2.84h0a1.84,1.84,0,0,1,.47-.55,1.46,1.46,0,0,1,.93-.29c.56,0,1.39.36,1.39,1.82V412h-.75v-2.38c0-.81-.3-1.3-.91-1.3a1,1,0,0,0-.91.7,1.38,1.38,0,0,0-.06.38V412h-.75v-2.52c0-.67-.29-1.16-.88-1.16a1.06,1.06,0,0,0-1,.77,1.1,1.1,0,0,0-.06.37V412h-.74Z"/><path class="cls-64" d="M944.47,406.15h.76v5.23h2.51V412h-3.27Z"/><text class="cls-65" transform="translate(935.64 491.82)">100</text><text class="cls-65" transform="translate(935.64 470.12)">150</text><text class="cls-65" transform="translate(935.64 442.8)">200</text><text class="cls-65" transform="translate(935.64 402.85)">250</text><ellipse class="cls-200" cx="887.15" cy="373.82" rx="13.72" ry="28.14" transform="matrix(0.96, -0.27, 0.27, 0.96, -68.56, 258.04)"/><ellipse class="cls-201" cx="896.72" cy="364.5" rx="4.42" ry="17.58" transform="translate(4.9 740.83) rotate(-45)"/><ellipse class="cls-202" cx="916.55" cy="329.65" rx="3.47" ry="28.61" transform="translate(-55.29 264.41) rotate(-15.94)"/><ellipse class="cls-203" cx="967.38" cy="408.97" rx="4.14" ry="18.32" transform="translate(-75.12 281.42) rotate(-15.94)"/><ellipse class="cls-204" cx="874.63" cy="421.28" rx="4.14" ry="18.32" transform="translate(-82.07 256.42) rotate(-15.94)"/><ellipse class="cls-205" cx="950.93" cy="371.62" rx="26.81" ry="13.08" transform="translate(181.72 1042.96) rotate(-62.46)"/></svg>